<?xml version="1.0" encoding="UTF-8" standalone="no"?>
<!DOCTYPE svg  PUBLIC '-//W3C//DTD SVG 1.1//EN'  'http://www.w3.org/Graphics/SVG/1.1/DTD/svg11.dtd'>
<svg xmlns="http://www.w3.org/2000/svg" version="1.1">
<defs>
<font id="BreeSerif-Regular" horiz-adv-x="500">
<font-face font-weight="400" underline-thickness="50" bbox="-115 -281 1000 1077" ascent="800" cap-height="665" x-height="503" panose-1="2 0 5 3 4 0 0 2 0 4" unicode-range="U+000D-FB04" units-per-em="1000" underline-position="-150" descent="-200" font-family="BreeSerif"/>
<missing-glyph/>
<glyph glyph-name=".notdef"/>
<glyph horiz-adv-x="0" glyph-name=".null"/>
<glyph horiz-adv-x="0" glyph-name=".null"/>
<glyph horiz-adv-x="333" glyph-name="nonmarkingreturn"/>
<glyph horiz-adv-x="220" unicode="" glyph-name="CR"/>
<glyph horiz-adv-x="200" unicode=" " glyph-name="space"/>
<glyph horiz-adv-x="277" unicode="!" glyph-name="exclam" d="M88 2q-18 19 -18 47q0 27 19 47t49 20t50 -18q19 -18 19 -47q-1 -28 -19 -48t-50 -20t-50 19zM84 529v119q0 47 56 47t56 -49v-117l-20 -349h-71z"/>
<glyph horiz-adv-x="349" unicode='&quot;' glyph-name="quotedbl" d="M199 665h93l-9 -230h-74zM56 665h93l-10 -230h-73z"/>
<glyph horiz-adv-x="534" unicode="#" glyph-name="numbersign" d="M212 379l-14 -156h110l14 156h-110zM289 0l13 157h-110l-13 -157h-73l13 157h-101v66h107l14 156h-102v66h107l15 160h73l-15 -160h110l15 160h73l-15 -160h101v-66h-106l-14 -156h101v-66h-107l-13 -157h-73z"/>
<glyph horiz-adv-x="535" unicode="$" glyph-name="dollar" d="M230 558q-52 -18 -52 -69t52 -75v144zM362 196q0 50 -57 73v-156q57 18 57 83zM230 -91v100q-96 3 -172 38v149l99 7v-58q0 -15 4 -21t21 -12t48 -6v187q-78 22 -113 49t-49 58t-13 73q-1 75 47 123t128 59v92h75v-90q84 -5 155 -38v-141l-98 -6v54q0 14 -4 20t-20 12 q-16 5 -33 6v-176h1q76 -23 122 -58q58 -42 58 -125t-50 -132t-131 -61v-103h-75z"/>
<glyph horiz-adv-x="801" unicode="%" glyph-name="percent" d="M293 -9l-79 36l292 626l81 -34zM189 361q70 -1 70 113t-68 114q-70 0 -70 -114t68 -113zM77 610q43 48 115 47q72 0 114 -45q41 -45 41 -135q1 -89 -41 -137t-118 -48t-114 46q-40 46 -40 135t43 137zM611 55q70 -1 70 113t-68 114q-70 0 -70 -114t68 -113zM499 304 q43 48 115 47q72 0 114 -45q41 -45 41 -135q1 -89 -41 -137t-118 -48t-114 46q-40 46 -40 135t43 137z"/>
<glyph horiz-adv-x="714" unicode="&amp;" glyph-name="ampersand" d="M408 130q-120 102 -181 184q-61 -43 -61 -117q0 -51 32 -83t100 -31q68 0 110 47zM475 220q19 48 19 92q0 14 -18 16l-32 2v78h211v-81l-55 -2q0 -96 -42 -176q45 -38 126 -96l-66 -87q-60 40 -126 94q-74 -74 -200 -74t-184 59t-58 144q0 132 122 208q-31 51 -31 110 q0 76 51 123q52 47 144 47t180 -41v-151l-102 -7v61q0 28 -21 35q-27 8 -53 8q-81 0 -81 -77q0 -102 216 -285z"/>
<glyph horiz-adv-x="205" unicode="&apos;" glyph-name="quotesingle" d="M56 665h93l-10 -230h-73z"/>
<glyph horiz-adv-x="331" unicode="(" glyph-name="parenleft" d="M201 -176q-132 224 -132 449t132 456l95 -44q-109 -215 -109 -406t108 -410z"/>
<glyph horiz-adv-x="331" unicode=")" glyph-name="parenright" d="M130 731q132 -224 132 -449t-132 -456l-95 44q109 215 109 406t-108 410z"/>
<glyph horiz-adv-x="452" unicode="*" glyph-name="asterisk" d="M179 557l-134 22l7 44q5 32 28 40q7 2 14 2l32 -12l77 -54l-32 142l42 11q11 3 24 3t25 -12q12 -11 11 -25q0 -14 -2 -22l-18 -99l117 74l25 -36q11 -18 11 -30q0 -40 -44 -43l-93 -8l108 -80l-25 -36q-18 -24 -38 -24q-26 0 -42 30l-48 89l-68 -123l-40 19 q-30 14 -30 39t24 40z"/>
<glyph horiz-adv-x="535" unicode="+" glyph-name="plus" d="M216 364v161h102v-161h154v-98h-154v-160h-102v160h-154v98h154z"/>
<glyph horiz-adv-x="241" unicode="," glyph-name="comma" d="M202 79l-103 -234l-63 19l31 203q7 50 49 50q20 -1 32 -7l20 -10t10 -6l12 -8t12 -7z"/>
<glyph horiz-adv-x="322" unicode="-" glyph-name="hyphen" d="M30 242v92h262v-92h-262z"/>
<glyph horiz-adv-x="226" unicode="." glyph-name="period" d="M59 4.5q-19 19.5 -19 51t19.5 52t53 20.5t53.5 -19.5t20 -51t-19 -52t-54 -20.5t-54 19.5z"/>
<glyph horiz-adv-x="428" unicode="/" glyph-name="slash" d="M110 -110l-102 38l306 827l104 -37z"/>
<glyph horiz-adv-x="535" unicode="0" glyph-name="zero" d="M267 86q53 0 83 53t30 185t-28 183q-28 52 -84 52q-56 1 -84 -55t-28 -186t28 -180q28 -52 83 -52zM272 657q227 0 227 -329q0 -174 -59 -256t-175 -82t-173 80t-57 251q0 170 63 253t174 83z"/>
<glyph horiz-adv-x="454" unicode="1" glyph-name="one" d="M205 121v393l-117 -60l-44 77l182 113h98v-554l104 -5v-85h-348v82l96 6q15 1 22 8t7 25z"/>
<glyph horiz-adv-x="513" unicode="2" glyph-name="two" d="M59 0v77l199 251q31 40 41 54q9 14 19 38t10 58t-24 57q-24 22 -60 22t-54 -6q-18 -5 -22 -13t-4 -24v-71l-102 7v160q94 47 193 47q99 -1 149 -49t50 -132t-85 -187l-161 -190h250v-99h-399z"/>
<glyph horiz-adv-x="522" unicode="3" glyph-name="three" d="M167 373h103q60 38 60 107q0 77 -87 77q-31 0 -53 -7q-22 -6 -26 -14t-3 -24v-72l-102 7v160q100 50 198 50q99 -1 147 -45t48 -115q0 -53 -25 -95t-66 -68q101 -32 101 -142q0 -92 -57 -148t-169 -57q-56 0 -110 15t-86 35l35 95q79 -44 157 -44q109 0 109 97 q0 49 -33 73t-112 24h-38z"/>
<glyph horiz-adv-x="536" unicode="4" glyph-name="four" d="M347 462h70v-187h89v-95h-90v-90l83 -5v-85h-294v82l62 5q29 2 29 28v66h-256v83l188 395l95 -47l-161 -337h143v54z"/>
<glyph horiz-adv-x="507" unicode="5" glyph-name="five" d="M442 549h-229l-20 -153q113 -8 183 -58t70 -150q0 -81 -54 -140t-168 -59q-56 0 -110 15t-85 35l40 92q78 -43 150 -43q102 0 102 98q0 122 -239 122l43 336h199q23 0 23 28v43l95 -7v-159z"/>
<glyph horiz-adv-x="534" unicode="6" glyph-name="six" d="M372 211q0 114 -89 114q-25 0 -59 -12t-52 -27v-20q0 -79 23 -132t80 -53q43 1 70 35t27 95zM395 671l23 -90q-214 -27 -239 -212q63 41 141 41t123 -52q46 -52 46 -148q-1 -96 -57 -158q-56 -63 -164 -63t-162 78q-52 78 -52 209q0 357 341 395z"/>
<glyph horiz-adv-x="475" unicode="7" glyph-name="seven" d="M23 644h432v-83l-229 -561h-125l235 545h-189q-22 0 -22 -31v-40l-102 7v163z"/>
<glyph horiz-adv-x="535" unicode="8" glyph-name="eight" d="M328 553q-24 19 -60 19t-60 -22t-24 -53q0 -60 95 -108q29 21 51 51t22 62t-24 51zM336 104q26 24 26 65t-28 69t-83 55q-43 -29 -65 -57t-22 -66t26 -64t72 -26q48 0 74 24zM47 159q0 111 122 182q-101 62 -101 149q0 72 56 120t150 47q94 1 142 -43t47 -107 q0 -80 -95 -160q122 -71 122 -174q0 -79 -57 -131t-171 -53q-114 1 -164 51q-51 50 -51 119z"/>
<glyph horiz-adv-x="535" unicode="9" glyph-name="nine" d="M194 530q-27 -34 -27 -91t23 -87q24 -30 58 -29q34 -1 68 11t51 26v18q0 186 -101 186q-45 0 -72 -34zM139 -12l-24 93q115 13 175 61t71 132q-58 -38 -139 -38q-80 0 -126 52t-46 147t57 159t166 63q109 0 160 -78t51 -209q0 -351 -345 -382z"/>
<glyph horiz-adv-x="226" unicode=":" glyph-name="colon" d="M59 4.5q-19 19.5 -19 51t19.5 52t53 20.5t53.5 -19.5t20 -51t-19 -52t-54 -20.5t-54 19.5zM59 372.5q-19 19.5 -19 51t19.5 52t53 20.5t53.5 -19.5t20 -51t-19 -52t-54 -20.5t-54 19.5z"/>
<glyph horiz-adv-x="241" unicode=";" glyph-name="semicolon" d="M202 79l-103 -234l-63 19l31 203q7 50 49 50q20 -1 32 -7l20 -10t10 -6l12 -8t12 -7zM87 372q-19 20 -19 52t20 52t52 20q34 0 54 -20t20 -50q0 -32 -19 -52t-54 -21t-54 19z"/>
<glyph horiz-adv-x="535" unicode="&lt;" glyph-name="less" d="M434 537l40 -89l-273 -126l275 -132l-42 -90l-366 180v78z"/>
<glyph horiz-adv-x="535" unicode="=" glyph-name="equal" d="M470 259v-97h-405v97h405zM470 450v-96h-405v96h405z"/>
<glyph horiz-adv-x="535" unicode="&gt;" glyph-name="greater" d="M70 448l40 89l366 -179v-78l-366 -180l-42 90l275 132z"/>
<glyph horiz-adv-x="433" unicode="?" glyph-name="question" d="M134 2q-18 19 -18 47q0 27 19 47t49 20t50 -18q19 -18 19 -47q-1 -28 -19 -48t-50 -20t-50 19zM281 538q0 63 -69 63q-23 1 -43 -5q-19 -6 -23 -14t-4 -24v-53l-102 7v137q96 46 184 46t130 -41q43 -40 43 -106q-1 -66 -27 -104t-68 -68t-53 -44t-12 -42l-5 -110h-96 l-5 105v15q0 44 16 73q18 32 79 76q33 25 38 33l10 16q7 15 7 40z"/>
<glyph horiz-adv-x="953" unicode="@" glyph-name="at" d="M555 361q-24 11 -57 11q-113 -1 -113 -168q0 -133 88 -133q82 0 82 96v194zM798 284q0 130 -75 208t-231 78t-244 -99t-89 -251t79 -245q80 -92 223 -92q89 0 158 31l25 -73q-78 -34 -182 -34q-104 -1 -181 33t-123 92q-91 113 -91 280q0 206 123 321t316 115 q171 0 275 -94t104 -267q0 -140 -68 -213t-181 -74h-57l-8 54l-3 1q-39 -58 -118 -58q-163 0 -163 204q1 116 57 180t160 64q72 0 150 -29v-293l4 -53q140 9 140 214z"/>
<glyph horiz-adv-x="662" unicode="A" glyph-name="A" d="M323 553l-93 -285h186l-90 285h-3zM68 112l161 466l-63 6v81h229l204 -577h1l57 -3v-85h-258v81l38 3q17 2 23 8t1 22l-21 62h-234l-30 -88l60 -3v-85h-231v81l33 3q21 2 30 28z"/>
<glyph horiz-adv-x="602" unicode="B" glyph-name="B" d="M218 573v-181h74q62 0 92 26t29 71q1 46 -29 65t-85 19h-81zM218 303v-209h94q130 0 130 106q0 50 -32 76t-93 27h-99zM39 665h282q216 0 216 -167q0 -92 -92 -140q59 -15 93 -55t33 -104q1 -97 -65 -148t-191 -51h-281v81l33 3q29 3 29 28v465l-57 3v85z"/>
<glyph horiz-adv-x="602" unicode="C" glyph-name="C" d="M436 559q-11 19 -82 19q-93 0 -141 -63t-48 -182q0 -247 185 -247h26t45 6t25 14q4 7 4 22v80l102 -7v-173q-78 -41 -198 -41q-154 0 -234 86t-80 256q0 94 27 164t73 109q90 75 214 75q100 0 188 -41v-170l-102 -7v78q0 15 -4 22z"/>
<glyph horiz-adv-x="665" unicode="D" glyph-name="D" d="M218 568v-472h102q86 0 134 62t48 180q0 230 -195 230h-89zM34 0v81l33 3q29 3 29 28v465l-57 3v85h274q147 0 229 -78t83 -231q0 -96 -25 -166t-68 -110q-86 -80 -214 -80h-284z"/>
<glyph horiz-adv-x="549" unicode="E" glyph-name="E" d="M509 0h-475v81l33 3q29 3 29 28v465l-57 3v85h458v-166l-102 -7v40q0 17 -5 24t-24 7h-148v-171h231v-102h-231v-187h161q18 -1 23 7t5 25v50l102 -7v-178z"/>
<glyph horiz-adv-x="543" unicode="F" glyph-name="F" d="M34 0v81l33 3q29 3 29 28v465l-57 3v85h483v-166l-102 -7v40q0 17 -5 24t-24 7h-173v-177h246v-102h-246v-196l89 -3v-85h-273z"/>
<glyph horiz-adv-x="641" unicode="G" glyph-name="G" d="M564 233v-181q-93 -64 -231 -64q-137 0 -215 86t-78 257q0 75 20 135t50 99q32 39 74 65q80 47 182 47t189 -41v-170l-102 -7v78q0 15 -4 22q-11 19 -91 19q-193 0 -193 -239q0 -252 174 -252q69 0 106 24v149h-1l-77 3v85h249v-80l-23 -2q-17 -2 -23 -8t-6 -25z"/>
<glyph horiz-adv-x="712" unicode="H" glyph-name="H" d="M499 117v173h-283v-202l58 -3v-85h-242v81l33 3q29 3 29 28v465l-57 3v85h242v-81l-33 -3q-16 -3 -23 -9t-7 -24v-155h283v184l-57 3v85h242v-81l-33 -3q-29 -3 -29 -32v-461l57 -3v-85h-242v81l33 3q15 2 22 8t7 25z"/>
<glyph horiz-adv-x="307" unicode="I" glyph-name="I" d="M94 117v460l-57 3v85h242v-81l-33 -3q-29 -3 -29 -32v-461l57 -3v-85h-242v81l33 3q15 2 22 8t7 25z"/>
<glyph horiz-adv-x="474" unicode="J" glyph-name="J" d="M393 134q-17 -147 -197 -147q-94 0 -168 42v175l102 7v-79q0 -15 4 -22q4 -8 21 -14t53 -6t51 22q16 22 16 69v395l-78 4v85h262v-81l-33 -3q-29 -3 -29 -31v-311q0 -71 -4 -105z"/>
<glyph horiz-adv-x="622" unicode="K" glyph-name="K" d="M94 117v460l-57 3v85h240v-81l-33 -3q-29 -3 -29 -32v-220l204 248l-56 3v85h234v-81l-33 -3q-19 -2 -40 -28l-142 -174l177 -291l53 -3v-85h-256v81l31 3q20 2 20 16q0 6 -5 16l-99 171l-88 -106v-93l57 -3v-85h-240v81l33 3q15 2 22 8t7 25z"/>
<glyph horiz-adv-x="537" unicode="L" glyph-name="L" d="M507 0h-475v81l33 3q29 3 29 28v465l-57 3v85h241v-81l-33 -3q-29 -3 -29 -32v-446h166q14 -1 18 7t5 25v70l102 -7v-198z"/>
<glyph horiz-adv-x="834" unicode="M" glyph-name="M" d="M248 665l170 -452h2l171 452h198v-81l-33 -3q-30 -3 -29 -35l25 -458l62 -3v-85h-241v81l36 3q27 2 26 26l-19 353h-2l-154 -399h-95l-152 395h-2l-20 -371l65 -3v-85h-236v81l36 3q23 2 25 27l27 465l-61 4v85h201z"/>
<glyph horiz-adv-x="705" unicode="N" glyph-name="N" d="M32 0v81l36 3q26 2 26 28v465l-57 3v85h180l283 -459h2v371l-66 3v85h244v-81l-36 -3q-24 -2 -24 -31v-550h-117l-289 466h-2v-378l65 -3v-85h-245z"/>
<glyph horiz-adv-x="664" unicode="O" glyph-name="O" d="M165 336q0 -248 172 -248q92 0 129 76q34 67 34 164q0 87 -30 160q-18 40 -52 63t-89 23t-95 -36t-54 -87q-15 -51 -15 -115zM544 593q80 -85 80 -257t-80 -260t-214 -89q-136 0 -213 88t-77 256q0 91 27 161t71 108q90 77 208 77t198 -84z"/>
<glyph horiz-adv-x="590" unicode="P" glyph-name="P" d="M216 330h72q146 0 146 119q0 71 -38 95t-119 24h-61v-238zM32 0v81l33 3q29 3 29 28v465l-57 3v85h286q113 -1 175 -53t62 -157t-71 -163t-188 -59h-85v-145l96 -3v-85h-280z"/>
<glyph horiz-adv-x="664" unicode="Q" glyph-name="Q" d="M164 336q0 -248 172 -248q92 0 130 76q33 67 33 164q0 87 -31 160q-16 40 -50 63t-90 23q-54 0 -94 -36t-55 -87t-15 -115zM623 331q-1 -129 -55 -212t-157 -110v-3q77 -4 147 -46q50 -31 117 -31q15 0 31 2l-12 -96q-14 -1 -27 -1l-99 17q-63 22 -123 50q-68 32 -126 32 q-28 0 -56 -6l14 72q-238 31 -238 332q0 91 27 161t72 108q88 77 206 77t199 -84q80 -84 80 -262z"/>
<glyph horiz-adv-x="626" unicode="R" glyph-name="R" d="M216 357h87q123 0 123 110q0 63 -32 82t-105 19h-73v-211zM32 0v81l33 3q29 3 29 28v465l-57 3v85h273q116 0 178 -43t62 -141q0 -68 -36 -112t-84 -64q36 -13 57 -61l72 -157l57 -2v-85h-247v81l29 3q23 3 23 18q0 6 -4 14l-47 100q-10 26 -24 36t-39 10h-91v-174l65 -3 v-85h-249z"/>
<glyph horiz-adv-x="522" unicode="S" glyph-name="S" d="M241 90q120 0 120 96q0 50 -53 74q-28 14 -72 26t-74 24t-60 35q-59 43 -59 135q-1 92 63 144t166 53q102 0 191 -41v-150l-102 -7v58q0 15 -4 22q-11 19 -71 19t-88 -21t-28 -65q0 -32 24 -56q16 -16 48 -26t66 -22q36 -11 64 -24t57 -36q61 -45 61 -139t-68 -148 t-178 -54t-198 41v158l102 7v-61q0 -15 4 -22q4 -8 24 -14t65 -6z"/>
<glyph horiz-adv-x="553" unicode="T" glyph-name="T" d="M218 112v454h-78q-23 0 -23 -31v-47l-102 7v170h523v-170l-102 -7v47q0 17 -5 24t-24 7h-68v-478l79 -3v-85h-282v81l53 3q29 3 29 28z"/>
<glyph horiz-adv-x="659" unicode="U" glyph-name="U" d="M201 548v-332q-1 -70 33 -98t96 -29q62 0 98 31q34 31 34 91v366l-58 3v85h237v-81l-33 -3q-29 -3 -29 -30v-357q0 -97 -68 -152t-188 -55q-119 -1 -181 53t-62 170v367l-58 3v85h242v-81l-33 -3q-16 -3 -23 -9t-7 -24z"/>
<glyph horiz-adv-x="654" unicode="V" glyph-name="V" d="M201 546l134 -403h5l140 433l-61 4v85h230v-81l-33 -3q-13 -1 -19 -7t-12 -23l-189 -551h-130l-204 577l-57 3v85h258v-81l-33 -3q-31 -2 -31 -24q0 -5 2 -11z"/>
<glyph horiz-adv-x="885" unicode="W" glyph-name="W" d="M880 584l-33 -3q-26 -2 -33 -36l-126 -545h-137l-105 445h-3l-102 -445h-141l-138 577l-57 3v85h248v-81l-33 -3q-31 -3 -31 -26q0 -4 1 -9l87 -386h4l104 452h129l108 -454h2l85 418l-54 4v85h225v-81z"/>
<glyph horiz-adv-x="621" unicode="X" glyph-name="X" d="M521 549l-143 -193l175 -264l63 -4v-88h-278v82l30 3q19 1 26 13t-2 25l-90 139l-115 -174l48 -3v-85h-230v81l31 3q19 3 38 32l162 232l-152 224l-55 5v88h265v-82l-25 -3q-21 -2 -27 -14t5 -27l67 -105l97 143l-50 3v85h229v-81l-31 -3q-19 -3 -38 -32z"/>
<glyph horiz-adv-x="570" unicode="Y" glyph-name="Y" d="M222 112v142l-170 323l-47 3v85h244v-81l-30 -3q-17 -1 -21 -12t4 -27l85 -174h4l109 208l-50 4v85h215v-81l-30 -3q-19 -2 -34 -30l-157 -297v-166l78 -3v-85h-282v81l53 3q29 2 29 28z"/>
<glyph horiz-adv-x="533" unicode="Z" glyph-name="Z" d="M477 584l-305 -489h194q25 0 25 32v70l102 -7v-190h-460v83l302 487h-166q-27 0 -27 -31v-40l-102 7v159h437v-81z"/>
<glyph horiz-adv-x="325" unicode="[" glyph-name="bracketleft" d="M80 -166v880h210v-81h-100v-718h100v-81h-210z"/>
<glyph horiz-adv-x="440" unicode="\" glyph-name="backslash" d="M15 718l103 38l307 -828l-103 -37z"/>
<glyph horiz-adv-x="325" unicode="]" glyph-name="bracketright" d="M245 714v-880h-210v81h100v718h-100v81h210z"/>
<glyph horiz-adv-x="553" unicode="^" glyph-name="asciicircum" d="M509 301l-101 -16l-130 267l-131 -267l-98 17l187 372h87z"/>
<glyph unicode="_" glyph-name="underscore" d="M0 -147v73h500v-73h-500z"/>
<glyph unicode="`" glyph-name="grave" d="M234 786l116 -192l-39 -33l-128 124q-25 23 -25 43t29 36z"/>
<glyph horiz-adv-x="567" unicode="a" glyph-name="a" d="M366 159v259q-28 13 -77 13q-67 0 -97 -54t-30 -143q0 -162 104 -162q44 0 72 26.5t28 60.5zM482 483v-372q0 -16 5.5 -22t19.5 -7l32 -2v-80h-159v58l-3 1q-50 -72 -137 -72q-102 0 -151 65t-49 178q0 136 66 212t198 76q85 0 178 -35z"/>
<glyph horiz-adv-x="556" unicode="b" glyph-name="b" d="M193 354v-259q38 -20 88 -20q114 0 114 185q0 169 -112 169q-36 0 -63 -21t-27 -54zM77 30v574q0 23 -25 24l-35 2v83h176v-237q45 42 121 42q94 0 149 -64t55 -178q0 -289 -242 -289q-52 1 -110 13t-89 30z"/>
<glyph horiz-adv-x="471" unicode="c" glyph-name="c" d="M186 125q32 -47 92.5 -47t119.5 43l43 -77q-71 -58 -178 -58t-168.5 67.5t-61.5 199.5t70.5 198.5t159 66.5t164.5 -41v-130l-92 -7v48q0 27 -19.5 33.5t-40.5 6.5q-121 0 -121 -171q0 -85 32 -132z"/>
<glyph horiz-adv-x="568" unicode="d" glyph-name="d" d="M366 156v259q-36 16 -76 16q-66 0 -96 -53t-31 -135q0 -168 108 -168q41 -1 68 23t27 58zM284 518q43 0 82 -12v101q0 22 -26 24l-43 3v79h186v-608q1 -23 25 -23l35 -2v-80h-162v59l-3 1q-45 -73 -136 -73q-114 0 -160 76q-42 69 -42 169q0 130 64 208t180 78z"/>
<glyph horiz-adv-x="484" unicode="e" glyph-name="e" d="M306 318.5q31 22.5 31 53.5q0 61 -60 61q-56 0 -86 -44.5t-33 -106.5q44 1 80.5 7.5t67.5 29zM284 518q75 0 119 -36.5t44 -102.5q0 -44 -19 -77.5t-47 -52.5t-68 -31q-67 -20 -151 -20q3 -53 33 -85.5t92 -32.5t124 44l38 -81q-20 -18 -67.5 -37t-108.5 -19 q-122 0 -179 67.5t-57 185.5t65 198t182 80z"/>
<glyph horiz-adv-x="370" unicode="f" glyph-name="f" d="M96 112v307h-86v84h86v38q0 98 45 141q42 41 123 41t144 -35l-29 -80q-48 25 -90 25q-42 -1 -58 -21t-16 -62v-47h148v-84h-148v-335l84 -4v-80h-265v76l33 3q15 3 22 9t7 24z"/>
<glyph horiz-adv-x="544" unicode="g" glyph-name="g" d="M364 204v215q-35 12 -80 12q-61 0 -93.5 -45t-32.5 -122q0 -158 104 -158q43 0 72.5 26.5t29.5 71.5zM414 -162q-55 -52 -172 -52t-183 33v139l95 8v-48q0 -27 25 -36.5t69 -9.5q64 0 90 38.5t26 108.5v55q-48 -56 -133 -56q-52 0 -91.5 20t-61.5 54q-43 68 -43 160 q0 131 71 198.5t189 67.5q98 0 185 -37v-371q0 -85 -2 -109q-9 -111 -64 -163z"/>
<glyph horiz-adv-x="600" unicode="h" glyph-name="h" d="M94 112v487q0 16 -6 22t-19 7l-35 2v83h178v-269q52 74 146 74q76 0 118 -44t41 -130v-261l57 -3v-80h-238v76l33 3q15 3 22 9t7 24v206q0 52 -16 80t-64 28t-76 -30t-29 -71v-242l57 -3v-80h-238v76l33 3q15 3 22 9t7 24z"/>
<glyph horiz-adv-x="296" unicode="i" glyph-name="i" d="M67 642q0 32 21 54t55 21q33 1 55 -21t22 -54t-22 -52t-55 -21q-34 1 -55 21t-21 52zM214 503v-420l57 -3v-80h-238v76l33 3q29 3 29 32v278q1 17 -5 23t-20 6l-35 2v83h179z"/>
<glyph horiz-adv-x="283" unicode="j" glyph-name="j" d="M61 642q0 32 21 54t55 21q33 1 55 -21t22 -54t-22 -52t-55 -21q-34 1 -55 21t-21 52zM208 503v-527q0 -80 -26 -130q-33 -60 -134 -60q-72 0 -128 35l36 83q40 -21 72 -21t46 20t15 68v418q1 16 -5 22t-20 7l-35 2v83h179z"/>
<glyph horiz-adv-x="556" unicode="k" glyph-name="k" d="M95 112v487q1 16 -5 22t-20 7l-35 2v83h178v-433q55 5 96 34t56 76q3 10 3 16q0 17 -19 17l-38 2v78h207v-81l-48 -2q-13 -102 -88 -161l98 -176l61 -3v-80h-146l-114 208q-33 -9 -68 -14v-111h1l57 -3v-80h-238v76l33 3q15 3 22 9t7 24z"/>
<glyph horiz-adv-x="298" unicode="l" glyph-name="l" d="M212 713v-630l57 -3v-80h-238v76l33 3q29 3 29 32v493q0 22 -25 24l-35 2v83h179z"/>
<glyph horiz-adv-x="866" unicode="m" glyph-name="m" d="M27 422v81h169v-65q56 80 154 80t131 -80q56 80 152 80q72 0 111 -44t39 -130v-261l57 -3v-80h-238v76l33 3q15 3 21 9t8 23v207q0 56 -12 82t-59 26t-71 -28t-24 -75v-240l55 -3v-80h-236v76l33 3q15 3 22 9t7 24v206q-1 56 -13 82t-58 26t-71 -29q-24 -29 -24 -72v-242 l54 -3v-80h-236v76l33 3q15 3 22 9t7 24h1v276q0 18 -6 24t-19 7z"/>
<glyph horiz-adv-x="600" unicode="n" glyph-name="n" d="M27 423v80h169v-65q26 37 69 58.5t93 21.5q76 0 117.5 -43.5t41.5 -130.5v-261l57 -3v-80h-238v76l33 3q15 2 22 8.5t7 24.5v206q0 55 -17 81.5t-64.5 26.5t-75.5 -30t-28 -71v-242l57 -3v-80h-238v76l33 3q15 2 22 8.5t7 24.5v277q0 30 -25 31z"/>
<glyph horiz-adv-x="528" unicode="o" glyph-name="o" d="M33 252q0 74 22 128.5t59 83.5q71 54 157 54q60 0 101.5 -19.5t65 -45t40 -74t16.5 -114.5q0 -138 -67 -209t-171.5 -71t-163.5 67.5t-59 199.5zM263 73q109 0 109 176q0 89 -24.5 135t-82 46t-84.5 -44t-27 -120q0 -141 52 -177q23 -16 57 -16z"/>
<glyph horiz-adv-x="568" unicode="p" glyph-name="p" d="M406 254q0 167 -101 167q-41 1 -71 -25t-30 -61v-230q38 -25 92 -25t82 50t28 124zM89 -95v484q1 17 -5 23t-20 7l-42 3v81h169v-65q16 30 58 55t100 25q181 0 181 -254q0 -135 -59 -207t-160 -72q-60 0 -107 29v-138l81 -4v-79h-258v76l33 3q15 2 22 8t7 25z"/>
<glyph horiz-adv-x="551" unicode="q" glyph-name="q" d="M366 164v255q-34 12 -79 12q-60 1 -92 -51t-32 -134q0 -122 49 -156q22 -15 61 -15t66 23t27 66zM367 -95v138q-48 -56 -125 -56q-76 1 -122 39t-63 90t-17 114q0 146 70 217t188 71q98 0 185 -37v-605l58 -3v-80h-263v76l59 3q15 1 23 8t7 25z"/>
<glyph horiz-adv-x="462" unicode="r" glyph-name="r" d="M95 112v277q0 16 -5.5 22.5t-19.5 7.5l-42 3v81h169v-75q18 39 56 64.5t87.5 25.5t94.5 -22v-149l-93 -7v46q0 20 -10 25q-11 5 -27 5q-40 0 -65.5 -28.5t-25.5 -72.5v-232l87 -4v-79h-268v76l33 3q15 2 22 8.5t7 24.5z"/>
<glyph horiz-adv-x="451" unicode="s" glyph-name="s" d="M295 427q-24 9 -58 9t-54.5 -15.5t-20.5 -38t7.5 -35t23.5 -21.5q25 -13 60 -22.5t52 -15t42.5 -18.5t38.5 -28q35 -37 35 -95q0 -75 -54.5 -117.5t-138.5 -42.5q-122 0 -184 31v139l90 7v-48q0 -44 84 -44t84 61q0 22 -14.5 36t-28.5 19t-33.5 10t-38 10t-40 13.5 t-47.5 24.5q-51 33 -51 110.5t55 119.5t138.5 42t165.5 -40v-120l-90 -7v42q0 25 -23 34z"/>
<glyph horiz-adv-x="377" unicode="t" glyph-name="t" d="M144 609h65v-106h133l-10 -84h-123v-263q0 -44 16 -62q15 -18 49 -17q34 0 68 21l30 -77q-50 -35 -127 -35q-45 0 -76 12t-46 25q-15 14 -23 41q-8 26 -9 42t-1 46v267h-71l10 73q47 4 71 34t44 83z"/>
<glyph horiz-adv-x="591" unicode="u" glyph-name="u" d="M563 79v-79h-162v65q-55 -78 -162 -78q-155 0 -155 173v231q0 27 -25 28l-32 2v82h176v-317q0 -53 15 -80t62 -27t75.5 29t28.5 70v211q0 16 -5.5 22.5t-19.5 7.5l-32 2v82h176v-392q0 -16 5 -21.5t20 -7.5z"/>
<glyph horiz-adv-x="558" unicode="v" glyph-name="v" d="M337 503h211v-78l-31 -2q-20 -2 -27 -24l-129 -399h-153l-140 398q-4 14 -10 19t-19 6l-29 2v78h235v-80l-61 -3l103 -329h2l100 329l-52 3v80z"/>
<glyph horiz-adv-x="795" unicode="w" glyph-name="w" d="M364 483h97l104 -372h2l68 309l-51 3v80h201v-77l-33 -2q-20 -2 -27 -24l-95 -400h-144l-82 298h-3l-85 -298h-147l-101 399q-5 14 -10.5 19t-18.5 6l-29 2v77h229v-80l-56 -3l69 -307h2z"/>
<glyph horiz-adv-x="534" unicode="x" glyph-name="x" d="M319 106l-61 80l-83 -103l47 -3v-80h-208v79l31 3q23 3 40 24l115 144l-123 170l-51 6v77h233v-79l-29 -2q-12 -1 -16 -9t4 -17l57 -76l77 100l-41 3v80h203v-78l-30 -2q-21 -1 -40 -25l-110 -139l131 -174l51 -6v-79h-238v79l31 2q13 1 15 9t-5 16z"/>
<glyph horiz-adv-x="573" unicode="y" glyph-name="y" d="M401 19v76q-55 -78 -162 -78q-155 0 -155 173v201q0 27 -25 28l-32 2v82h176v-287q0 -53 15 -80t62 -27t75.5 29t28.5 70v181q0 17 -5.5 23.5t-19.5 6.5l-32 2v82h176v-484q0 -121 -58.5 -177t-177 -56t-184.5 33v139l95 8v-48q0 -27 25 -36.5t69 -9.5q129 0 129 147z "/>
<glyph horiz-adv-x="483" unicode="z" glyph-name="z" d="M448 0h-408v76l257 338h-126q-21 0 -26.5 -8t-5.5 -26v-35l-94 7v151h398v-68l-260 -345h142q29 0 29 34v42l94 -7v-159z"/>
<glyph horiz-adv-x="340" unicode="{" glyph-name="braceleft" d="M205 570l9 -163q0 -51 -15 -81t-51 -45q38 -13 52 -39t14 -82l-11 -176q-1 -39 9 -57t35 -18t45 5l10 -76q-42 -9 -79 -9q-61 0 -95 34t-33 93l11 191q0 42 -12 67t-51 30v74q41 5 53 29t11 74l-8 169q0 61 32 95t94 34q40 0 80 -10l-10 -74q-28 5 -40 5q-31 0 -41 -16 t-9 -54z"/>
<glyph horiz-adv-x="274" unicode="|" glyph-name="bar" d="M85 -88v835h104v-835h-104z"/>
<glyph horiz-adv-x="340" unicode="}" glyph-name="braceright" d="M137 -16l-11 176q0 56 14 82t52 39q-36 15 -51 45t-15 81l9 163q1 38 -9 54t-41 16q-12 0 -40 -5l-10 74q40 10 80 10q62 0 94 -34t32 -95l-8 -169q-1 -50 11 -74t53 -29v-74q-39 -5 -51 -30t-12 -67l11 -191q1 -59 -33 -93t-95 -34q-37 0 -79 9l10 76q20 -5 45 -5t35 18 t9 57z"/>
<glyph horiz-adv-x="598" unicode="~" glyph-name="asciitilde" d="M405 218q-46 0 -112 36t-90 37q-41 0 -84 -65l-72 56q63 106 146 106q43 0 109 -38t95 -38q45 0 81 64l73 -54q-49 -104 -146 -104z"/>
<glyph horiz-adv-x="207" unicode=" " glyph-name="uni00A0"/>
<glyph horiz-adv-x="277" unicode="¡" glyph-name="exclamdown" d="M188 499q18 -19 19 -47q0 -28 -19 -48q-20 -20 -50 -19t-49 19t-19 46t18 48t50 20t50 -19zM193 -28v-119q0 -47 -56 -47t-56 49v117l20 349h71z"/>
<glyph horiz-adv-x="535" unicode="¢" glyph-name="cent" d="M270 472q-74 -35 -74 -160t74 -160v320zM270 -60v110q-91 14 -143 78t-52 179q-1 113 55 179t140 83v116h75v-112q71 -4 139 -40v-130l-92 -7v48q0 27 -21 34q-15 4 -26 5v-344q51 3 105 43l43 -77q-63 -50 -148 -57v-108h-75z"/>
<glyph horiz-adv-x="552" unicode="£" glyph-name="sterling" d="M116 210l6 79h-84l10 84h80l6 86q14 198 219 198q93 0 170 -41v-140l-102 -7v47q1 15 -3 22t-21 14t-43 7q-52 1 -76 -25t-28 -84l-6 -77h175l-10 -83h-170l-3 -41q-6 -84 -87 -146l2 -4q54 20 82 20t82 -10t95 -10t90 14l-13 -107q-48 -9 -92 -9q-44 1 -118 13t-126 12 t-119 -30v93q77 36 84 125z"/>
<glyph horiz-adv-x="550" unicode="¥" glyph-name="yen" d="M59 296v76h113l-120 205l-47 3v85h244v-81l-30 -3q-17 -1 -21 -12t4 -27l75 -154h4l99 188l-50 4v85h215v-81l-30 -3q-19 -2 -34 -30l-107 -179h113v-76h-153v-65h153v-76h-153v-67l78 -3v-85h-282v81l53 3q29 2 29 28v43h-153v76h153v65h-153z"/>
<glyph horiz-adv-x="275" unicode="¦" glyph-name="brokenbar" d="M85 403v344h105v-344h-105zM85 -88v374h105v-374h-105z"/>
<glyph horiz-adv-x="552" unicode="§" glyph-name="section" d="M242 183q16 -9 59 -39t51 -37q29 26 29 66q0 19 -5 29q-6 10 -8 15t-10 13t-12 10q-4 4 -15 12t-17 13q-6 4 -22 14q-81 51 -110 76q-29 -27 -29 -66q0 -19 5 -29q6 -10 8 -15t10 -13t12 -10q4 -4 15 -12t17 -13q6 -4 22 -14zM407 35q13 -34 13 -67t-8 -59 q-8 -25 -26 -53t-57 -44q-38 -16 -90 -17q-83 0 -158 39v132l92 7v-48q0 -28 19 -34q18 -6 48 -6q30 1 50 19t21 49q0 21 -7 33t-11 20q-4 6 -14 14q-9 8 -15 14t-20 14t-20 12q-31 19 -44 26q-71 42 -104 82t-33 100q0 87 84 159q-13 29 -13 65t8 61t26 53t57 44 q38 16 90 17q79 0 158 -41v-130l-92 -7v48q0 28 -19 34q-18 6 -48 6q-30 -1 -50 -19t-21 -49q0 -49 66 -93q9 -6 33 -20q93 -56 130 -101t37 -105q0 -85 -82 -155z"/>
<glyph unicode="¨" glyph-name="dieresis" d="M102 599.5q-19 18.5 -19 47t19.5 48t49.5 19.5t49.5 -19.5t19.5 -48t-19.5 -47t-50 -18.5t-49.5 18.5zM302 599.5q-19 18.5 -19 47t19.5 48t49.5 19.5t49.5 -19.5t19.5 -48t-19.5 -47t-50 -18.5t-49.5 18.5z"/>
<glyph horiz-adv-x="814" unicode="©" glyph-name="copyright" d="M409 198q45 0 96 42l40 -54q-54 -56 -139 -56q-86 0 -130 54t-44 147q0 55 16 96t44 62q53 41 113 41q95 0 150 -75l-56 -44q-46 50 -90 50q-45 -1 -71 -31t-26 -98q0 -134 97 -134zM597 130q77 78 77 198t-78 198t-194 78t-190 -80t-73 -201q-1 -123 73 -197t191 -74 t194 78zM654 576q99 -100 99 -248t-99 -248t-254 -100q-156 0 -248 96t-92 247t96 252t248 101q151 0 250 -100z"/>
<glyph horiz-adv-x="414" unicode="ª" glyph-name="ordfeminine" d="M266 369v164q-22 8 -46 8q-40 1 -60 -31t-20 -81q0 -105 66 -105q26 0 43 14t17 31zM280 264v38h-4q-38 -46 -100 -46t-95 46t-33 126q0 78 48 130t134 52q63 0 128 -24v-244q0 -11 4 -15t17 -5l17 -1v-57h-116z"/>
<glyph horiz-adv-x="530" unicode="«" glyph-name="guillemotleft" d="M497 406l-120 -143l113 -160l-47 -42l-174 161q-18 18 -18 44t29 49l170 136zM293 406l-120 -143l113 -160l-47 -42l-174 161q-18 18 -18 44t29 49l170 136z"/>
<glyph horiz-adv-x="535" unicode="¬" glyph-name="logicalnot" d="M385 171v144h-333v97h429v-241h-96z"/>
<glyph horiz-adv-x="322" unicode="­" glyph-name="uni00AD" d="M42 244v93h237v-93h-237z"/>
<glyph horiz-adv-x="463" unicode="®" glyph-name="registered" d="M338 372q42 42 42 108t-43 108t-109 43q-66 0 -105 -42q-40 -42 -40 -108t41 -108q40 -42 106 -42t108 41zM376 622q58 -56 57 -140q0 -84 -57 -140q-58 -56 -148 -56t-144 54t-54 140t56 142t144 55q88 1 146 -55zM207 498h16q36 0 36 30q0 25 -36 25h-16v-55zM287 459 l36 -81h-50l-31 70q-6 14 -16 14h-19v-84h-45v211h76q70 0 70 -57q0 -42 -34 -58q8 -4 13 -15z"/>
<glyph unicode="¯" glyph-name="macron" d="M104 610v84h287v-84h-287z"/>
<glyph horiz-adv-x="298" unicode="°" glyph-name="degree" d="M97 596q-1 -26 13 -42t39 -17q25 1 38 17t13 42q0 61 -52 61t-51 -61zM64 514q-30 32 -29 82q0 50 32 84t83 34t82 -32t31 -83q0 -50 -32 -84q-33 -34 -85 -34q-52 1 -82 33z"/>
<glyph horiz-adv-x="535" unicode="±" glyph-name="plusminus" d="M214 364v156h102v-156h154v-98h-154v-134h154v-97h-405v97h149v134h-149v98h149z"/>
<glyph horiz-adv-x="337" unicode="²" glyph-name="twosuperior" d="M23 700q72 37 141 37t101 -28q32 -29 32 -67q1 -38 -13 -64t-43 -61l-89 -101h158v-75h-275v58l124 144q44 52 44 76q0 46 -47 46q-27 1 -40 -5t-15 -11t-2 -17v-45l-76 4v109z"/>
<glyph horiz-adv-x="337" unicode="³" glyph-name="threesuperior" d="M98 571h65q38 22 38 55q0 41 -50 41q-21 -1 -35 -5t-14 -22v-33l-70 5v95q62 30 127 30q65 -1 97 -27t32 -69q0 -58 -57 -97q64 -20 64 -85q1 -55 -37 -89t-111 -34t-123 31l23 65q50 -26 98 -26q63 0 63 47q0 27 -20 39t-64 13h-32z"/>
<glyph unicode="´" glyph-name="acute" d="M148 594l116 192l47 -22q29 -16 29 -36t-25 -43l-128 -124z"/>
<glyph horiz-adv-x="584" unicode="µ" glyph-name="mu" d="M504 503v-400q0 -33 26 -33q14 0 39 12l14 -70q-43 -24 -91 -24q-75 0 -79 81q-16 -37 -51 -60t-78 -23q-70 0 -103 49v-251h-107v719h112v-289q0 -70 22 -107t74 -37t80 44t28 117v272h114z"/>
<glyph horiz-adv-x="549" unicode="¶" glyph-name="paragraph" d="M457 549v-468q0 -131 -51 -194t-194 -92l-25 98q87 21 121 59t34 110v517h-72v-364q-95 3 -157 57t-62 167t66 169t175 57h227v-81l-33 -3q-29 -3 -29 -32z"/>
<glyph horiz-adv-x="309" unicode="·" glyph-name="periodcentered" d="M104 258q-18 18 -19 48q1 30 19 50q18 19 50 19q32 -1 51 -19t19 -48t-18 -50t-52 -19q-32 1 -50 19z"/>
<glyph unicode="¸" glyph-name="cedilla" d="M212 3h57l-17 -66q42 -3 68 -24t25 -65t-37 -66q-36 -24 -85 -24t-90 18l16 52q39 -13 67 -13q48 -1 48 37t-88 38z"/>
<glyph horiz-adv-x="316" unicode="¹" glyph-name="onesuperior" d="M61 407l59 4q16 1 16 16v212l-81 -36l-29 57l125 71h73v-320l70 -3v-67h-233v66z"/>
<glyph horiz-adv-x="406" unicode="º" glyph-name="ordmasculine" d="M42 430q0 136 108 172q27 9 56 9q64 -1 110 -39t47 -128q0 -90 -45 -139q-46 -49 -120 -49t-115 46t-41 128zM136 442q0 -111 66 -111t67 101q1 53 -15 79t-53 26q-65 0 -65 -95z"/>
<glyph horiz-adv-x="530" unicode="»" glyph-name="guillemotright" d="M358 263l-120 145l47 45l170 -136q29 -23 29 -51t-20 -45l-172 -158l-47 42zM154 263l-120 145l47 45l170 -136q29 -23 29 -51t-20 -45l-172 -158l-47 42z"/>
<glyph horiz-adv-x="825" unicode="¼" glyph-name="onequarter" d="M624 86v27h-152v58l112 232l69 -32l-92 -189h68l29 76h53v-76h61v-71h-61v-41l71 -3v-67h-233v66l59 4q16 1 16 16zM284 -41l-76 35l324 692l78 -33zM62 327l59 4q16 1 16 16v212l-81 -36l-29 57l125 71h73v-320l70 -3v-67h-233v66z"/>
<glyph horiz-adv-x="825" unicode="½" glyph-name="onehalf" d="M497 359q72 37 141 37t101 -28t32 -66q1 -38 -13 -65q-14 -26 -43 -61l-89 -101h158v-75h-275v58l124 144q44 52 44 76q0 46 -47 46q-27 0 -40 -6t-15 -10q-2 -5 -2 -17v-45l-76 4v109zM277 -41l-76 35l324 692l78 -33zM64 327l59 4q16 1 16 16v212l-81 -36l-29 57 l125 71h73v-320l70 -3v-67h-233v66z"/>
<glyph horiz-adv-x="825" unicode="¾" glyph-name="threequarters" d="M635 86v27h-152v58l112 232l69 -32l-92 -189h68l29 76h53v-76h61v-71h-61v-41l71 -3v-67h-233v66l59 4q16 1 16 16zM294 -41l-76 35l324 692l78 -33zM124 491h65q38 22 38 55q0 41 -50 41q-21 -1 -35 -5t-14 -22v-33l-70 5v95q62 30 127 30q65 -1 97 -27t32 -69 q0 -58 -57 -97q64 -20 64 -85q1 -55 -37 -89t-111 -34t-123 31l23 65q50 -26 98 -26q63 0 63 47q0 27 -20 39t-64 13h-32z"/>
<glyph horiz-adv-x="433" unicode="¿" glyph-name="questiondown" d="M310 499q18 -19 19 -47q0 -28 -19 -48q-20 -20 -50 -19t-49 19t-19 46t18 48t50 20t50 -19zM164 -37q0 -63 69 -63q23 0 43 6t24 13q4 8 3 24v53l102 -7v-137q-95 -46 -183 -46t-131 41t-43 107t26 102q26 38 69 68q42 30 53 45q11 14 12 42l5 110h96l5 -105v-15 q0 -44 -16 -73q-18 -32 -79 -76q-33 -24 -38 -32t-9 -18q-8 -14 -8 -39z"/>
<glyph horiz-adv-x="662" unicode="À" glyph-name="Agrave" d="M237 907l162 -157l-30 -41l-155 87q-36 20 -36 40t19 38zM323 553l-93 -285h186l-90 285h-3zM68 112l161 466l-63 6v81h229l204 -577h1l57 -3v-85h-258v81l38 3q17 2 23 8t1 22l-21 62h-234l-30 -88l60 -3v-85h-231v81l33 3q21 2 30 28z"/>
<glyph horiz-adv-x="662" unicode="Á" glyph-name="Aacute" d="M221 750l162 157l40 -33q18 -17 18 -33q0 -25 -35 -45l-155 -87zM323 553l-93 -285h186l-90 285h-3zM68 112l161 466l-63 6v81h229l204 -577h1l57 -3v-85h-258v81l38 3q17 2 23 8t1 22l-21 62h-234l-30 -88l60 -3v-85h-231v81l33 3q21 2 30 28z"/>
<glyph horiz-adv-x="662" unicode="Â" glyph-name="Acircumflex" d="M181 708l-41 34l118 128q21 23 42 23l40 -21l120 -129l-41 -35l-120 86zM323 553l-93 -285h186l-90 285h-3zM68 112l161 466l-63 6v81h229l204 -577h1l57 -3v-85h-258v81l38 3q17 2 23 8t1 22l-21 62h-234l-30 -88l60 -3v-85h-231v81l33 3q21 2 30 28z"/>
<glyph horiz-adv-x="662" unicode="Ã" glyph-name="Atilde" d="M184 728l-48 35q36 79 102 79q24 0 70 -14t68 -14t40 32l54 -29q-33 -87 -103 -87q-21 0 -65 14t-62 13q-18 1 -29 -5t-27 -24zM323 553l-93 -285h186l-90 285h-3zM68 112l161 466l-63 6v81h229l204 -577h1l57 -3v-85h-258v81l38 3q17 2 23 8t1 22l-21 62h-234l-30 -88 l60 -3v-85h-231v81l33 3q21 2 30 28z"/>
<glyph horiz-adv-x="662" unicode="Ä" glyph-name="Adieresis" d="M153 740q-19 18 -19 46t20 48t49 20t49 -20t20 -48t-20 -46t-50 -19q-30 1 -49 19zM353 740q-19 18 -19 46t20 48t49 20t49 -20t20 -48t-20 -46t-50 -19q-30 1 -49 19zM323 553l-93 -285h186l-90 285h-3zM68 112l161 466l-63 6v81h229l204 -577h1l57 -3v-85h-258v81l38 3 q17 2 23 8t1 22l-21 62h-234l-30 -88l60 -3v-85h-231v81l33 3q21 2 30 28z"/>
<glyph horiz-adv-x="662" unicode="Å" glyph-name="Aring" d="M305 834q-36 0 -36 -42t36 -41q17 0 27 12t9 30q0 41 -36 41zM234 726q-24 26 -24 68q0 40 26 66t70 26q42 0 67 -26t25 -65t-26 -67t-70 -28t-68 26zM323 553l-93 -285h186l-90 285h-3zM68 112l161 466l-63 6v81h229l204 -577h1l57 -3v-85h-258v81l38 3q17 2 23 8t1 22 l-21 62h-234l-30 -88l60 -3v-85h-231v81l33 3q21 2 30 28z"/>
<glyph horiz-adv-x="854" unicode="Æ" glyph-name="AE" d="M318 553l-93 -285h186l-90 285h-3zM63 112l161 466l-63 6v81h641v-166l-102 -7v40q0 17 -5 24t-24 7h-225l59 -171h249v-102h-231l66 -187h95q18 0 23 7.5t5 24.5v50l102 -7v-178h-420v81l38 3q17 2 23 8t1 22l-21 62h-234l-30 -88l60 -3v-85h-231v81l33 3q21 2 30 28z "/>
<glyph horiz-adv-x="602" unicode="Ç" glyph-name="Ccedilla" d="M436 559q-11 19 -82 19q-93 0 -141 -63t-48 -182q0 -247 185 -247h26t45 6t25 14q4 7 4 22v80l102 -7v-173q-78 -41 -197 -41l-13 -50q42 -3 68 -24t25 -65t-37 -66q-36 -24 -85 -24t-90 18l16 52q39 -13 67 -13q48 -1 48 37t-88 38l32 101q-126 13 -192 99t-66 239 q0 94 27 164t73 109q90 75 214 75q100 0 188 -41v-170l-102 -7v78q0 15 -4 22z"/>
<glyph horiz-adv-x="549" unicode="È" glyph-name="Egrave" d="M214 907l162 -157l-30 -41l-155 87q-36 20 -36 40t19 38zM509 0h-475v81l33 3q29 3 29 28v465l-57 3v85h458v-166l-102 -7v40q0 17 -5 24t-24 7h-148v-171h231v-102h-231v-187h161q18 -1 23 7t5 25v50l102 -7v-178z"/>
<glyph horiz-adv-x="549" unicode="É" glyph-name="Eacute" d="M184 750l162 157l40 -33q18 -17 18 -33q0 -25 -35 -45l-155 -87zM509 0h-475v81l33 3q29 3 29 28v465l-57 3v85h458v-166l-102 -7v40q0 17 -5 24t-24 7h-148v-171h231v-102h-231v-187h161q18 -1 23 7t5 25v50l102 -7v-178z"/>
<glyph horiz-adv-x="549" unicode="Ê" glyph-name="Ecircumflex" d="M155 708l-41 34l118 128q21 23 42 23l40 -21l120 -129l-41 -35l-120 86zM509 0h-475v81l33 3q29 3 29 28v465l-57 3v85h458v-166l-102 -7v40q0 17 -5 24t-24 7h-148v-171h231v-102h-231v-187h161q18 -1 23 7t5 25v50l102 -7v-178z"/>
<glyph horiz-adv-x="549" unicode="Ë" glyph-name="Edieresis" d="M126 740q-19 18 -19 46q-1 28 19 48t50 20t50 -20t19 -48q1 -28 -19 -46t-50 -19q-30 1 -50 19zM326 740q-19 18 -19 46q-1 28 19 48t50 20t50 -20t19 -48q1 -28 -19 -46t-50 -19q-30 1 -50 19zM509 0h-475v81l33 3q29 3 29 28v465l-57 3v85h458v-166l-102 -7v40 q0 17 -5 24t-24 7h-148v-171h231v-102h-231v-187h161q18 -1 23 7t5 25v50l102 -7v-178z"/>
<glyph horiz-adv-x="307" unicode="Ì" glyph-name="Igrave" d="M86 907l162 -157l-30 -41l-155 87q-36 20 -36 40t19 38zM94 117v460l-57 3v85h242v-81l-33 -3q-29 -3 -29 -32v-461l57 -3v-85h-242v81l33 3q15 2 22 8t7 25z"/>
<glyph horiz-adv-x="307" unicode="Í" glyph-name="Iacute" d="M64 750l162 157l40 -33q18 -17 18 -33q0 -25 -35 -45l-155 -87zM94 117v460l-57 3v85h242v-81l-33 -3q-29 -3 -29 -32v-461l57 -3v-85h-242v81l33 3q15 2 22 8t7 25z"/>
<glyph horiz-adv-x="307" unicode="Î" glyph-name="Icircumflex" d="M38 708l-41 34l118 128q21 23 42 23l40 -21l120 -129l-41 -35l-120 86zM94 117v460l-57 3v85h242v-81l-33 -3q-29 -3 -29 -32v-461l57 -3v-85h-242v81l33 3q15 2 22 8t7 25z"/>
<glyph horiz-adv-x="307" unicode="Ï" glyph-name="Idieresis" d="M9 740q-19 18 -19 46t20 48t49 20t49 -20t20 -48t-20 -46t-50 -19q-30 1 -49 19zM209 740q-19 18 -19 46t20 48t49 20t49 -20t20 -48t-20 -46t-50 -19q-30 1 -49 19zM94 117v460l-57 3v85h242v-81l-33 -3q-29 -3 -29 -32v-461l57 -3v-85h-242v81l33 3q15 2 22 8t7 25z "/>
<glyph horiz-adv-x="679" unicode="Ð" glyph-name="Eth" d="M232 568v-188h169v-90h-169v-194h102q86 0 134 62t48 180q0 230 -195 230h-89zM48 0v81l33 3q29 3 29 28v178h-74v90h74v197l-57 3v85h274q147 0 229 -78t83 -231q0 -96 -25 -166t-68 -110q-86 -80 -214 -80h-284z"/>
<glyph horiz-adv-x="705" unicode="Ñ" glyph-name="Ntilde" d="M222 728l-48 35q36 79 102 79q24 0 70 -14t68 -14t40 32l54 -29q-33 -87 -103 -87q-21 0 -65 14t-62 13q-18 1 -29 -5t-27 -24zM32 0v81l36 3q26 2 26 28v465l-57 3v85h180l283 -459h2v371l-66 3v85h244v-81l-36 -3q-24 -2 -24 -31v-550h-117l-289 466h-2v-378l65 -3v-85 h-245z"/>
<glyph horiz-adv-x="664" unicode="Ò" glyph-name="Ograve" d="M282 907l162 -157l-30 -41l-155 87q-36 20 -36 40t19 38zM165 336q0 -248 172 -248q92 0 129 76q34 67 34 164q0 87 -30 160q-18 40 -52 63t-89 23t-95 -36t-54 -87q-15 -51 -15 -115zM544 593q80 -85 80 -257t-80 -260t-214 -89q-136 0 -213 88t-77 256q0 91 27 161 t71 108q90 77 208 77t198 -84z"/>
<glyph horiz-adv-x="664" unicode="Ó" glyph-name="Oacute" d="M237 750l162 157l40 -33q18 -17 18 -33q0 -25 -35 -45l-155 -87zM165 336q0 -248 172 -248q92 0 129 76q34 67 34 164q0 87 -30 160q-18 40 -52 63t-89 23t-95 -36t-54 -87q-15 -51 -15 -115zM544 593q80 -85 80 -257t-80 -260t-214 -89q-136 0 -213 88t-77 256 q0 91 27 161t71 108q90 77 208 77t198 -84z"/>
<glyph horiz-adv-x="664" unicode="Ô" glyph-name="Ocircumflex" d="M220 708l-41 34l118 128q21 23 42 23l40 -21l120 -129l-41 -35l-120 86zM165 336q0 -248 172 -248q92 0 129 76q34 67 34 164q0 87 -30 160q-18 40 -52 63t-89 23t-95 -36t-54 -87q-15 -51 -15 -115zM544 593q80 -85 80 -257t-80 -260t-214 -89q-136 0 -213 88t-77 256 q0 91 27 161t71 108q90 77 208 77t198 -84z"/>
<glyph horiz-adv-x="664" unicode="Õ" glyph-name="Otilde" d="M220 728l-48 35q36 79 102 79q24 0 70 -14t68 -14t40 32l54 -29q-33 -87 -103 -87q-21 0 -65 14t-62 13q-18 1 -29 -5t-27 -24zM165 336q0 -248 172 -248q92 0 129 76q34 67 34 164q0 87 -30 160q-18 40 -52 63t-89 23t-95 -36t-54 -87q-15 -51 -15 -115zM544 593 q80 -85 80 -257t-80 -260t-214 -89q-136 0 -213 88t-77 256q0 91 27 161t71 108q90 77 208 77t198 -84z"/>
<glyph horiz-adv-x="664" unicode="Ö" glyph-name="Odieresis" d="M188 740q-19 18 -19 46q-1 28 19 48t50 20t50 -20t19 -48q1 -28 -19 -46t-50 -19q-30 1 -50 19zM388 740q-19 18 -19 46q-1 28 19 48t50 20t50 -20t19 -48q1 -28 -19 -46t-50 -19q-30 1 -50 19zM165 336q0 -248 172 -248q92 0 129 76q34 67 34 164q0 87 -30 160 q-18 40 -52 63t-89 23t-95 -36t-54 -87q-15 -51 -15 -115zM544 593q80 -85 80 -257t-80 -260t-214 -89q-136 0 -213 88t-77 256q0 91 27 161t71 108q90 77 208 77t198 -84z"/>
<glyph horiz-adv-x="535" unicode="×" glyph-name="multiply" d="M197 314l-114 114l72 72l114 -114l112 112l69 -69l-112 -113l113 -113l-72 -72l-113 113l-113 -113l-70 69z"/>
<glyph horiz-adv-x="664" unicode="Ø" glyph-name="Oslash" d="M466 495l-191 -397q26 -10 67 -10t74 20t50 56q34 66 34 166t-34 165zM165 336q0 -110 34 -172l192 400q-28 10 -56 10q-61 0 -101 -36t-54 -87q-15 -51 -15 -115zM528 608q96 -88 96 -266t-80 -266t-214 -89q-56 0 -107 16l-50 -103l-87 42l53 110q-99 88 -99 279 q0 91 27 161t71 108q89 77 203 77q54 0 103 -17l44 91l89 -41z"/>
<glyph horiz-adv-x="659" unicode="Ù" glyph-name="Ugrave" d="M257 907l162 -157l-30 -41l-155 87q-36 20 -36 40t19 38zM201 548v-332q-1 -70 33 -98t96 -29q62 0 98 31q34 31 34 91v366l-58 3v85h237v-81l-33 -3q-29 -3 -29 -30v-357q0 -97 -68 -152t-188 -55q-119 -1 -181 53t-62 170v367l-58 3v85h242v-81l-33 -3q-16 -3 -23 -9 t-7 -24z"/>
<glyph horiz-adv-x="659" unicode="Ú" glyph-name="Uacute" d="M243 750l162 157l40 -33q18 -17 18 -33q0 -25 -35 -45l-155 -87zM201 548v-332q-1 -70 33 -98t96 -29q62 0 98 31q34 31 34 91v366l-58 3v85h237v-81l-33 -3q-29 -3 -29 -30v-357q0 -97 -68 -152t-188 -55q-119 -1 -181 53t-62 170v367l-58 3v85h242v-81l-33 -3 q-16 -3 -23 -9t-7 -24z"/>
<glyph horiz-adv-x="659" unicode="Û" glyph-name="Ucircumflex" d="M209 708l-41 34l118 128q21 23 42 23l40 -21l120 -129l-41 -35l-120 86zM201 548v-332q-1 -70 33 -98t96 -29q62 0 98 31q34 31 34 91v366l-58 3v85h237v-81l-33 -3q-29 -3 -29 -30v-357q0 -97 -68 -152t-188 -55q-119 -1 -181 53t-62 170v367l-58 3v85h242v-81l-33 -3 q-16 -3 -23 -9t-7 -24z"/>
<glyph horiz-adv-x="659" unicode="Ü" glyph-name="Udieresis" d="M188 740q-19 18 -19 46q-1 28 19 48t50 20t50 -20t19 -48q1 -28 -19 -46t-50 -19q-30 1 -50 19zM388 740q-19 18 -19 46q-1 28 19 48t50 20t50 -20t19 -48q1 -28 -19 -46t-50 -19q-30 1 -50 19zM201 548v-332q-1 -70 33 -98t96 -29q62 0 98 31q34 31 34 91v366l-58 3v85 h237v-81l-33 -3q-29 -3 -29 -30v-357q0 -97 -68 -152t-188 -55q-119 -1 -181 53t-62 170v367l-58 3v85h242v-81l-33 -3q-16 -3 -23 -9t-7 -24z"/>
<glyph horiz-adv-x="570" unicode="Ý" glyph-name="Yacute" d="M191 750l162 157l40 -33q18 -17 18 -33q0 -25 -35 -45l-155 -87zM222 112v142l-170 323l-47 3v85h244v-81l-30 -3q-17 -1 -21 -12t4 -27l85 -174h4l109 208l-50 4v85h215v-81l-30 -3q-19 -2 -34 -30l-157 -297v-166l78 -3v-85h-282v81l53 3q29 2 29 28z"/>
<glyph horiz-adv-x="590" unicode="Þ" glyph-name="Thorn" d="M216 559v-17h107q113 0 175 -50t62 -150t-71 -156t-188 -56h-85v-46l96 -3v-81h-280v78l33 3q29 3 29 28v470l-62 4v82h277v-75l-64 -3q-29 -2 -29 -28zM216 227h72q146 0 146 109q0 66 -38 88t-119 21h-61v-218z"/>
<glyph horiz-adv-x="625" unicode="ß" glyph-name="germandbls" d="M90 112v398q0 203 240 203q108 -1 162 -41t54 -104q0 -54 -46 -97q-20 -18 -39 -34q-46 -39 -46 -67q0 -32 63 -70q28 -16 54 -34t44 -49t19 -71q-1 -76 -51 -118t-136 -41q-86 0 -153 31v139l90 7v-48q0 -16 3 -23q4 -7 20 -13q15 -6 40 -7q2 1 4 1q28 0 47 17 q18 17 18 45t-18 49t-43 35q-24 14 -50 30t-44 40q-18 26 -18 60t20 64t44 49t45 44q20 25 20 49q0 67 -112 67t-112 -107v-516h-181v76l33 3q15 3 22 9t7 24z"/>
<glyph horiz-adv-x="567" unicode="à" glyph-name="agrave" d="M366 159v259q-28 13 -77 13q-67 0 -97 -54t-30 -143q0 -162 104 -162q44 0 72 26.5t28 60.5zM482 483v-372q0 -16 5.5 -22t19.5 -7l32 -2v-80h-159v58l-3 1q-50 -72 -137 -72q-102 0 -151 65t-49 178q0 136 66 212t198 76q85 0 178 -35zM253 786l116 -192l-39 -33 l-128 124q-25 23 -25 43t29 36z"/>
<glyph horiz-adv-x="567" unicode="á" glyph-name="aacute" d="M214 594l116 192l47 -22q29 -16 29 -36t-25 -43l-128 -124zM366 159v259q-28 13 -77 13q-67 0 -97 -54t-30 -143q0 -162 104 -162q44 0 72 26t28 61zM482 483v-372q0 -16 6 -22t19 -7l32 -2v-80h-159v58l-3 1q-50 -72 -137 -72q-102 0 -151 65t-49 178q0 136 66 212 t198 76q85 0 178 -35z"/>
<glyph horiz-adv-x="567" unicode="â" glyph-name="acircumflex" d="M366 159v259q-28 13 -77 13q-67 0 -97 -54t-30 -143q0 -162 104 -162q44 0 72 26.5t28 60.5zM482 483v-372q0 -16 5.5 -22t19.5 -7l32 -2v-80h-159v58l-3 1q-50 -72 -137 -72q-102 0 -151 65t-49 178q0 136 66 212t198 76q85 0 178 -35zM174 562l-41 32l115 151 q20 26 43 26q25 0 46 -28l113 -148l-41 -34l-118 104z"/>
<glyph horiz-adv-x="567" unicode="ã" glyph-name="atilde" d="M175 596l-48 35q36 79 102 79q24 0 70 -14q45 -14 67 -14t41 32l54 -29q-33 -87 -103 -87q-22 0 -66 14t-62 13q-18 1 -28 -5q-11 -6 -27 -24zM366 159v259q-28 13 -77 13q-67 0 -97 -54t-30 -143q0 -162 104 -162q44 0 72 26t28 61zM482 483v-372q0 -16 6 -22t19 -7 l32 -2v-80h-159v58l-3 1q-50 -72 -137 -72q-102 0 -151 65t-49 178q0 136 66 212t198 76q85 0 178 -35z"/>
<glyph horiz-adv-x="567" unicode="ä" glyph-name="adieresis" d="M366 159v259q-28 13 -77 13q-67 0 -97 -54t-30 -143q0 -162 104 -162q44 0 72 26.5t28 60.5zM482 483v-372q0 -16 5.5 -22t19.5 -7l32 -2v-80h-159v58l-3 1q-50 -72 -137 -72q-102 0 -151 65t-49 178q0 136 66 212t198 76q85 0 178 -35zM140 599.5q-19 18.5 -19 47 t19.5 48t49.5 19.5t49.5 -19.5t19.5 -48t-19.5 -47t-50 -18.5t-49.5 18.5zM340 599.5q-19 18.5 -19 47t19.5 48t49.5 19.5t49.5 -19.5t19.5 -48t-19.5 -47t-50 -18.5t-49.5 18.5z"/>
<glyph horiz-adv-x="567" unicode="å" glyph-name="aring" d="M287 698q-36 0 -36 -42t36 -41q17 0 27 12t9 30q0 41 -36 41zM216 590q-24 26 -24 68q0 40 26 66t70 26q42 0 67 -26t25 -65t-26 -67t-70 -28t-68 26zM366 159v259q-28 13 -77 13q-67 0 -97 -54t-30 -143q0 -162 104 -162q44 0 72 26t28 61zM482 483v-372q0 -16 6 -22 t19 -7l32 -2v-80h-159v58l-3 1q-50 -72 -137 -72q-102 0 -151 65t-49 178q0 136 66 212t198 76q85 0 178 -35z"/>
<glyph horiz-adv-x="765" unicode="æ" glyph-name="ae" d="M618 375q0 27 -16 42.5t-43 15.5q-56 0 -86.5 -45t-33.5 -107q54 0 96.5 13.5t62.5 33.5t20 47zM287 431q-63 0 -94 -53t-31 -136.5t24.5 -126.5t82.5 -43q43 0 75 32q-26 55 -26 146t51 166q-37 15 -82 15zM442 484q53 34 126 34t116.5 -36.5t43.5 -102.5 q0 -179 -285 -181q3 -55 34 -87t90 -32t125 45l38 -81q-23 -19 -70 -37.5t-110 -18.5q-104 0 -158 54q-66 -54 -148 -54q-108 0 -156 67.5t-48 189.5t67 198t192 76q73 0 143 -34z"/>
<glyph horiz-adv-x="471" unicode="ç" glyph-name="ccedilla" d="M186 125q32 -47 92 -47t120 43l43 -77q-63 -53 -157 -57l-12 -50q42 -3 68 -24t25 -65t-37 -66q-36 -24 -85 -24t-90 18l16 52q39 -13 67 -13q48 -1 48 37t-88 38l31 99q-93 11 -143 77t-51 179q1 141 71 207t158 66t165 -41v-130l-92 -7v48q1 28 -19 34t-41 6 q-121 0 -121 -171q0 -85 32 -132z"/>
<glyph horiz-adv-x="484" unicode="è" glyph-name="egrave" d="M306 318.5q31 22.5 31 53.5q0 61 -60 61q-56 0 -86 -44.5t-33 -106.5q44 1 80.5 7.5t67.5 29zM284 518q75 0 119 -36.5t44 -102.5q0 -44 -19 -77.5t-47 -52.5t-68 -31q-67 -20 -151 -20q3 -53 33 -85.5t92 -32.5t124 44l38 -81q-20 -18 -67.5 -37t-108.5 -19 q-122 0 -179 67.5t-57 185.5t65 198t182 80zM220 786l116 -192l-39 -33l-128 124q-25 23 -25 43t29 36z"/>
<glyph horiz-adv-x="484" unicode="é" glyph-name="eacute" d="M173 594l116 192l47 -22q29 -16 29 -36t-25 -43l-128 -124zM306 318q31 22 31 54q0 61 -60 61q-56 -1 -86 -45t-33 -106q44 2 80 8t68 28zM284 518q75 0 119 -36t44 -103q0 -43 -19 -77t-47 -53t-68 -31q-67 -20 -151 -20q3 -54 33 -86t92 -32t124 44l38 -81 q-19 -18 -67 -37t-109 -19q-122 -1 -179 67t-57 186t65 198t182 80z"/>
<glyph horiz-adv-x="484" unicode="ê" glyph-name="ecircumflex" d="M306 318.5q31 22.5 31 53.5q0 61 -60 61q-56 0 -86 -44.5t-33 -106.5q44 1 80.5 7.5t67.5 29zM284 518q75 0 119 -36.5t44 -102.5q0 -44 -19 -77.5t-47 -52.5t-68 -31q-67 -20 -151 -20q3 -53 33 -85.5t92 -32.5t124 44l38 -81q-20 -18 -67.5 -37t-108.5 -19 q-122 0 -179 67.5t-57 185.5t65 198t182 80zM145 562l-41 32l115 151q20 26 43 26q25 0 46 -28l113 -148l-41 -34l-118 104z"/>
<glyph horiz-adv-x="484" unicode="ë" glyph-name="edieresis" d="M110 600q-19 18 -19 46q-1 28 19 48t50 20t50 -20t19 -48q1 -28 -19 -46t-50 -19q-30 1 -50 19zM310 600q-19 18 -19 46q-1 28 19 48t50 20t50 -20t19 -48q1 -28 -19 -46t-50 -19q-30 1 -50 19zM277 433q-56 -1 -86 -45t-33 -106q44 2 80 8t68 28q31 22 31 54 q0 61 -60 61zM284 518q75 0 119 -36t44 -103q0 -43 -19 -77t-47 -53q-75 -51 -219 -51q3 -54 33 -86t92 -32t124 44l38 -81q-19 -18 -67 -37t-109 -19q-122 -1 -179 67t-57 186t65 198t182 80z"/>
<glyph horiz-adv-x="296" unicode="ì" glyph-name="igrave" d="M214 503v-420l57 -3v-80h-238v76l33 3q29 3 29 32v278q0 17 -5.5 23t-19.5 6l-35 2v83h179zM96 786l116 -192l-39 -33l-128 124q-25 23 -25 43t29 36z"/>
<glyph horiz-adv-x="296" unicode="í" glyph-name="iacute" d="M82 594l116 192l47 -22q29 -16 29 -36t-25 -43l-128 -124zM214 503v-420l57 -3v-80h-238v76l33 3q29 3 29 32v278q1 17 -5 23t-20 6l-35 2v83h179z"/>
<glyph horiz-adv-x="296" unicode="î" glyph-name="icircumflex" d="M214 503v-420l57 -3v-80h-238v76l33 3q29 3 29 32v278q0 17 -5.5 23t-19.5 6l-35 2v83h179zM8 562l-41 32l115 151q20 26 43 26q25 0 46 -28l113 -148l-41 -34l-118 104z"/>
<glyph horiz-adv-x="296" unicode="ï" glyph-name="idieresis" d="M-25 600q-19 18 -19 46t20 48t49 20t49 -20t20 -48t-20 -46t-50 -19q-30 1 -49 19zM175 600q-19 18 -19 46t20 48t49 20t49 -20t20 -48t-20 -46t-50 -19q-30 1 -49 19zM214 503v-420l57 -3v-80h-238v76l33 3q29 3 29 32v278q1 17 -5 23t-20 6l-35 2v83h179z"/>
<glyph horiz-adv-x="512" unicode="ð" glyph-name="eth" d="M153 213q1 -63 25 -97t74 -35t76 49t27 131q0 41 -1 55q-45 37 -104 37q-97 0 -97 -140zM202 477l-46 65l66 45q-44 27 -100 37l24 93q100 -13 171 -65l84 57l45 -65l-67 -47q99 -123 99 -321q0 -130 -57 -210t-172 -80t-167 61t-52 163t54 169q54 66 149 66 q65 0 114 -32q-19 70 -62 121z"/>
<glyph horiz-adv-x="600" unicode="ñ" glyph-name="ntilde" d="M27 423v80h169v-65q26 37 69 58.5t93 21.5q76 0 117.5 -43.5t41.5 -130.5v-261l57 -3v-80h-238v76l33 3q15 2 22 8.5t7 24.5v206q0 55 -17 81.5t-64.5 26.5t-75.5 -30t-28 -71v-242l57 -3v-80h-238v76l33 3q15 2 22 8.5t7 24.5v277q0 30 -25 31zM177 596l-48 35 q36 79 102 79q24 0 70 -14t67.5 -14t40.5 32l54 -29q-33 -87 -103 -87q-22 0 -66 13.5t-61.5 13.5t-28.5 -5.5t-27 -23.5z"/>
<glyph horiz-adv-x="528" unicode="ò" glyph-name="ograve" d="M33 252q0 74 22 128.5t59 83.5q71 54 157 54q60 0 101.5 -19.5t65 -45t40 -74t16.5 -114.5q0 -138 -67 -209t-171.5 -71t-163.5 67.5t-59 199.5zM263 73q109 0 109 176q0 89 -24.5 135t-82 46t-84.5 -44t-27 -120q0 -141 52 -177q23 -16 57 -16zM228 786l116 -192 l-39 -33l-128 124q-25 23 -25 43t29 36z"/>
<glyph horiz-adv-x="528" unicode="ó" glyph-name="oacute" d="M186 594l116 192l47 -22q29 -16 29 -36t-25 -43l-128 -124zM33 252q0 74 22 128t59 84q71 54 157 54q59 0 101 -20t66 -44q24 -26 40 -74t16 -115q0 -138 -67 -209t-171 -71q-104 -1 -164 67q-59 68 -59 200zM263 73q109 0 109 176q0 89 -24 135t-82 46t-85 -44t-27 -120 q0 -141 52 -177q23 -16 57 -16z"/>
<glyph horiz-adv-x="528" unicode="ô" glyph-name="ocircumflex" d="M33 252q0 74 22 128.5t59 83.5q71 54 157 54q60 0 101.5 -19.5t65 -45t40 -74t16.5 -114.5q0 -138 -67 -209t-171.5 -71t-163.5 67.5t-59 199.5zM263 73q109 0 109 176q0 89 -24.5 135t-82 46t-84.5 -44t-27 -120q0 -141 52 -177q23 -16 57 -16zM144 562l-41 32l115 151 q20 26 43 26q25 0 46 -28l113 -148l-41 -34l-118 104z"/>
<glyph horiz-adv-x="528" unicode="õ" glyph-name="otilde" d="M147 596l-48 35q36 79 102 79q24 0 70 -14q45 -14 67 -14t41 32l54 -29q-33 -87 -103 -87q-22 0 -66 14t-62 13q-18 1 -28 -5q-11 -6 -27 -24zM33 252q0 74 22 128t59 84q71 54 157 54q59 0 101 -20t66 -44q24 -26 40 -74t16 -115q0 -138 -67 -209t-171 -71 q-104 -1 -164 67q-59 68 -59 200zM263 73q109 0 109 176q0 89 -24 135t-82 46t-85 -44t-27 -120q0 -141 52 -177q23 -16 57 -16z"/>
<glyph horiz-adv-x="528" unicode="ö" glyph-name="odieresis" d="M33 252q0 74 22 128.5t59 83.5q71 54 157 54q60 0 101.5 -19.5t65 -45t40 -74t16.5 -114.5q0 -138 -67 -209t-171.5 -71t-163.5 67.5t-59 199.5zM263 73q109 0 109 176q0 89 -24.5 135t-82 46t-84.5 -44t-27 -120q0 -141 52 -177q23 -16 57 -16zM111 599.5 q-19 18.5 -19 47t19.5 48t49.5 19.5t49.5 -19.5t19.5 -48t-19.5 -47t-50 -18.5t-49.5 18.5zM311 599.5q-19 18.5 -19 47t19.5 48t49.5 19.5t49.5 -19.5t19.5 -48t-19.5 -47t-50 -18.5t-49.5 18.5z"/>
<glyph horiz-adv-x="535" unicode="÷" glyph-name="divide" d="M470 362v-96h-405v96h405zM221 456q-17 18 -17 48t18 48q18 20 46 20q30 0 48 -18t18 -48t-18 -50t-48 -19t-47 19zM221 78q-17 18 -17 48t18 50t46 19q30 0 48 -18t18 -48q0 -29 -18 -49t-48 -20t-47 18z"/>
<glyph horiz-adv-x="528" unicode="ø" glyph-name="oslash" d="M267 430q-57 0 -84 -44t-27 -118.5t12 -115.5l138 271q-15 7 -39 7zM265 73q109 0 109 176q0 64 -13 104l-139 -272q19 -8 43 -8zM137 -84l-72 36l42 86q-72 69 -72 214q0 74 22 128.5t59 83.5q71 54 157 54q44 0 79 -11l38 76l73 -35l-40 -80q73 -64 73 -202.5 t-67 -209.5t-172 -71q-44 0 -80 12z"/>
<glyph horiz-adv-x="591" unicode="ù" glyph-name="ugrave" d="M563 79v-79h-162v65q-55 -78 -162 -78q-155 0 -155 173v231q0 27 -25 28l-32 2v82h176v-317q0 -53 15 -80t62 -27t75.5 29t28.5 70v211q0 16 -5.5 22.5t-19.5 7.5l-32 2v82h176v-392q0 -16 5 -21.5t20 -7.5zM234 786l116 -192l-39 -33l-128 124q-25 23 -25 43t29 36z"/>
<glyph horiz-adv-x="591" unicode="ú" glyph-name="uacute" d="M204 594l116 192l47 -22q29 -16 29 -36t-25 -43l-128 -124zM563 79v-79h-162v65q-55 -78 -162 -78q-155 0 -155 173v231q0 27 -25 28l-32 2v82h176v-317q0 -53 15 -80t62 -27q48 0 76 29t28 70v211q0 17 -6 23t-19 7l-32 2v82h176v-392q0 -15 5 -21t20 -8z"/>
<glyph horiz-adv-x="591" unicode="û" glyph-name="ucircumflex" d="M563 79v-79h-162v65q-55 -78 -162 -78q-155 0 -155 173v231q0 27 -25 28l-32 2v82h176v-317q0 -53 15 -80t62 -27t75.5 29t28.5 70v211q0 16 -5.5 22.5t-19.5 7.5l-32 2v82h176v-392q0 -16 5 -21.5t20 -7.5zM157 562l-41 32l115 151q20 26 43 26q25 0 46 -28l113 -148 l-41 -34l-118 104z"/>
<glyph horiz-adv-x="591" unicode="ü" glyph-name="udieresis" d="M127 600q-19 18 -19 46t20 48t49 20t49 -20t20 -48t-20 -46t-50 -19q-30 1 -49 19zM327 600q-19 18 -19 46t20 48t49 20t49 -20t20 -48t-20 -46t-50 -19q-30 1 -49 19zM563 79v-79h-162v65q-55 -78 -162 -78q-155 0 -155 173v231q0 27 -25 28l-32 2v82h176v-317 q0 -53 15 -80t62 -27q48 0 76 29t28 70v211q0 17 -6 23t-19 7l-32 2v82h176v-392q0 -15 5 -21t20 -8z"/>
<glyph horiz-adv-x="573" unicode="ý" glyph-name="yacute" d="M401 19v76q-55 -78 -162 -78q-155 0 -155 173v201q0 27 -25 28l-32 2v82h176v-287q0 -53 15 -80t62 -27t75.5 29t28.5 70v181q0 17 -5.5 23.5t-19.5 6.5l-32 2v82h176v-484q0 -121 -58.5 -177t-177 -56t-184.5 33v139l95 8v-48q0 -27 25 -36.5t69 -9.5q129 0 129 147z M205 594l116 192l47 -22q29 -16 29 -36t-25 -43l-128 -124z"/>
<glyph horiz-adv-x="568" unicode="þ" glyph-name="thorn" d="M529 276q1 -138 -57 -214t-161 -77q-60 0 -107 29v-138l81 -4v-79h-258v76l33 3q15 2 22 8t7 25v699q0 23 -25 24l-35 2v83h175v-237q45 42 121 42q93 0 149 -64t55 -178zM406 260q0 169 -112 169q-36 0 -63 -21t-27 -54v-249q38 -25 93 -25t82 50t27 130z"/>
<glyph horiz-adv-x="573" unicode="ÿ" glyph-name="ydieresis" d="M120 600q-19 18 -19 46q-1 28 19 48t50 20t50 -20t19 -48q1 -28 -19 -46t-50 -19q-30 1 -50 19zM320 600q-19 18 -19 46q-1 28 19 48t50 20t50 -20t19 -48q1 -28 -19 -46t-50 -19q-30 1 -50 19zM401 19v76q-55 -78 -162 -78q-155 0 -155 173v201q0 27 -25 28l-32 2v82 h176v-287q0 -53 15 -80t62 -27q48 0 76 29t28 70v181q0 17 -6 23t-19 7l-32 2v82h176v-484q-1 -121 -59 -177t-176 -56t-185 33v139l95 8v-48q0 -26 25 -36t69 -10q129 0 129 147z"/>
<glyph horiz-adv-x="662" unicode="Ā" glyph-name="Amacron" d="M159 734v87h287v-87h-287zM323 553l-93 -285h186l-90 285h-3zM68 112l161 466l-63 6v81h229l204 -577h1l57 -3v-85h-258v81l38 3q17 2 23 8t1 22l-21 62h-234l-30 -88l60 -3v-85h-231v81l33 3q21 2 30 28z"/>
<glyph horiz-adv-x="567" unicode="ā" glyph-name="amacron" d="M366 159v259q-28 13 -77 13q-67 0 -97 -54t-30 -143q0 -162 104 -162q44 0 72 26.5t28 60.5zM482 483v-372q0 -16 5.5 -22t19.5 -7l32 -2v-80h-159v58l-3 1q-50 -72 -137 -72q-102 0 -151 65t-49 178q0 136 66 212t198 76q85 0 178 -35zM149 610v84h287v-84h-287z"/>
<glyph horiz-adv-x="662" unicode="Ă" glyph-name="Abreve" d="M406 874l66 -27q-42 -127 -170 -127t-162 126l67 28q31 -78 100 -78q37 0 59 18t40 60zM323 553l-93 -285h186l-90 285h-3zM68 112l161 466l-63 6v81h229l204 -577h1l57 -3v-85h-258v81l38 3q17 2 23 8t1 22l-21 62h-234l-30 -88l60 -3v-85h-231v81l33 3q21 2 30 28z"/>
<glyph horiz-adv-x="567" unicode="ă" glyph-name="abreve" d="M366 159v259q-28 13 -77 13q-67 0 -97 -54t-30 -143q0 -162 104 -162q44 0 72 26.5t28 60.5zM482 483v-372q0 -16 5.5 -22t19.5 -7l32 -2v-80h-159v58l-3 1q-50 -72 -137 -72q-102 0 -151 65t-49 178q0 136 66 212t198 76q85 0 178 -35zM384 721l65 -15 q-16 -68 -56.5 -106t-108 -38t-107.5 41.5t-49 102.5l68 16q28 -84 94 -84q31 0 53.5 18.5t40.5 64.5z"/>
<glyph horiz-adv-x="662" unicode="Ą" glyph-name="Aogonek" d="M323 553l-93 -285h186l-90 285h-3zM68 112l161 466l-63 6v81h229l204 -577h1l57 -3v-85h-45q-99 -43 -99 -97q0 -38 41 -38q22 0 47 11l22 -66q-51 -24 -105 -24t-80 28t-25 68q0 69 88 118h-102v81l38 3q17 2 23 8t1 22l-21 62h-234l-30 -88l60 -3v-85h-231v81l33 3 q21 2 30 28z"/>
<glyph horiz-adv-x="567" unicode="ą" glyph-name="aogonek" d="M366 159v259q-28 13 -77 13q-67 0 -97 -54t-30 -143q0 -162 104 -162q44 0 72 26t28 61zM482 483v-372q0 -16 6 -22t19 -7l32 -2v-80q-109 -42 -109 -95q0 -40 41 -40q22 0 47 11l22 -66q-50 -24 -104 -24t-80 28t-26 68q0 75 95 111v7h-45v58l-3 1q-50 -72 -137 -72 q-102 0 -151 65t-49 178q0 136 66 212t198 76q85 0 178 -35z"/>
<glyph horiz-adv-x="602" unicode="Ć" glyph-name="Cacute" d="M238 750l162 157l40 -33q18 -17 18 -33q0 -25 -35 -45l-155 -87zM436 559q-11 19 -82 19q-93 0 -141 -63t-48 -182q0 -247 185 -247h26t45 6t25 14q4 7 4 22v80l102 -7v-173q-78 -41 -198 -41q-154 0 -234 86t-80 256q0 94 27 164t73 109q90 75 214 75q100 0 188 -41 v-170l-102 -7v78q0 15 -4 22z"/>
<glyph horiz-adv-x="471" unicode="ć" glyph-name="cacute" d="M186 125q32 -47 92.5 -47t119.5 43l43 -77q-71 -58 -178 -58t-168.5 67.5t-61.5 199.5t70.5 198.5t159 66.5t164.5 -41v-130l-92 -7v48q0 27 -19.5 33.5t-40.5 6.5q-121 0 -121 -171q0 -85 32 -132zM183 594l116 192l47 -22q29 -16 29 -36t-25 -43l-128 -124z"/>
<glyph horiz-adv-x="602" unicode="Ĉ" glyph-name="Ccircumflex" d="M224 708l-41 34l118 128q21 23 42 23l40 -21l120 -129l-41 -35l-120 86zM436 559q-11 19 -82 19q-93 0 -141 -63t-48 -182q0 -247 185 -247h26t45 6t25 14q4 7 4 22v80l102 -7v-173q-78 -41 -198 -41q-154 0 -234 86t-80 256q0 94 27 164t73 109q90 75 214 75 q100 0 188 -41v-170l-102 -7v78q0 15 -4 22z"/>
<glyph horiz-adv-x="471" unicode="ĉ" glyph-name="ccircumflex" d="M186 125q32 -47 92.5 -47t119.5 43l43 -77q-71 -58 -178 -58t-168.5 67.5t-61.5 199.5t70.5 198.5t159 66.5t164.5 -41v-130l-92 -7v48q0 27 -19.5 33.5t-40.5 6.5q-121 0 -121 -171q0 -85 32 -132zM144 563l-41 32l115 151q20 26 43 26q25 0 46 -28l113 -148l-41 -34 l-118 104z"/>
<glyph horiz-adv-x="602" unicode="Ċ" glyph-name="Cdotaccent" d="M295 746q-19 18 -19 46t20 48t49 20t49 -20t20 -48t-20 -46t-50 -19q-30 1 -49 19zM436 559q-11 19 -82 19q-93 0 -141 -63t-48 -182q0 -247 185 -247h26t45 6t25 14q4 7 4 22v80l102 -7v-173q-78 -41 -198 -41q-154 0 -234 86t-80 256q0 94 27 164t73 109q90 75 214 75 q100 0 188 -41v-170l-102 -7v78q0 15 -4 22z"/>
<glyph horiz-adv-x="471" unicode="ċ" glyph-name="cdotaccent" d="M186 125q32 -47 92.5 -47t119.5 43l43 -77q-71 -58 -178 -58t-168.5 67.5t-61.5 199.5t70.5 198.5t159 66.5t164.5 -41v-130l-92 -7v48q0 27 -19.5 33.5t-40.5 6.5q-121 0 -121 -171q0 -85 32 -132zM216 599.5q-19 18.5 -19 47t19.5 48t49.5 19.5t49.5 -19.5t19.5 -48 t-19.5 -47t-50 -18.5t-49.5 18.5z"/>
<glyph horiz-adv-x="602" unicode="Č" glyph-name="Ccaron" d="M458 893l41 -34l-118 -128q-21 -23 -42 -23l-40 21l-120 129l41 35l120 -86zM436 559q-11 19 -82 19q-93 0 -141 -63t-48 -182q0 -247 185 -247h26t45 6t25 14q4 7 4 22v80l102 -7v-173q-78 -41 -198 -41q-154 0 -234 86t-80 256q0 94 27 164t73 109q90 75 214 75 q100 0 188 -41v-170l-102 -7v78q0 15 -4 22z"/>
<glyph horiz-adv-x="471" unicode="č" glyph-name="ccaron" d="M186 125q32 -47 92.5 -47t119.5 43l43 -77q-71 -58 -178 -58t-168.5 67.5t-61.5 199.5t70.5 198.5t159 66.5t164.5 -41v-130l-92 -7v48q0 27 -19.5 33.5t-40.5 6.5q-121 0 -121 -171q0 -85 32 -132zM383 771l41 -32l-115 -146q-20 -26 -43 -26q-25 0 -46 28l-113 143 l41 34l118 -104z"/>
<glyph horiz-adv-x="665" unicode="Ď" glyph-name="Dcaron" d="M418 893l41 -34l-118 -128q-21 -23 -42 -23l-40 21l-120 129l41 35l120 -86zM218 568v-472h102q86 0 134 62t48 180q0 230 -195 230h-89zM34 0v81l33 3q29 3 29 28v465l-57 3v85h274q147 0 229 -78t83 -231q0 -96 -25 -166t-68 -110q-86 -80 -214 -80h-284z"/>
<glyph horiz-adv-x="650" unicode="ď" glyph-name="dcaron" d="M609 718q40 0 40 -40q0 -12 -4 -26l-46 -159l-48 9v211l50 5h8zM366 156v259q-36 16 -76 16q-66 0 -96 -53t-31 -135q0 -168 108 -168q41 -1 68 23t27 58zM284 518q43 0 82 -12v101q0 22 -26 24l-43 3v79h186v-608q1 -23 25 -23l35 -2v-80h-162v59l-3 1q-45 -73 -136 -73 q-114 0 -160 76q-42 69 -42 169q0 130 64 208t180 78z"/>
<glyph horiz-adv-x="679" unicode="Đ" glyph-name="Dcroat" d="M232 568v-188h169v-90h-169v-194h102q86 0 134 62t48 180q0 230 -195 230h-89zM48 0v81l33 3q29 3 29 28v178h-74v90h74v197l-57 3v85h274q147 0 229 -78t83 -231q0 -96 -25 -166t-68 -110q-86 -80 -214 -80h-284z"/>
<glyph horiz-adv-x="568" unicode="đ" glyph-name="dcroat" d="M366 156v236q-36 16 -76 16q-67 0 -97 -46t-30 -119q0 -168 108 -168q41 -1 68 23t27 58zM543 536h-60v-431q1 -23 25 -23l35 -2v-80h-162v59l-3 1q-45 -73 -136 -73q-114 0 -160 76q-42 69 -42 179t64 181q64 72 180 72q43 0 82 -12v53h-170v72h170v16q0 22 -26 24 l-43 3v62h186v-105h60v-72z"/>
<glyph horiz-adv-x="549" unicode="Ē" glyph-name="Emacron" d="M128 734v87h287v-87h-287zM509 0h-475v81l33 3q29 3 29 28v465l-57 3v85h458v-166l-102 -7v40q0 17 -5 24t-24 7h-148v-171h231v-102h-231v-187h161q18 -1 23 7t5 25v50l102 -7v-178z"/>
<glyph horiz-adv-x="484" unicode="ē" glyph-name="emacron" d="M306 318.5q31 22.5 31 53.5q0 61 -60 61q-56 0 -86 -44.5t-33 -106.5q44 1 80.5 7.5t67.5 29zM284 518q75 0 119 -36.5t44 -102.5q0 -44 -19 -77.5t-47 -52.5t-68 -31q-67 -20 -151 -20q3 -53 33 -85.5t92 -32.5t124 44l38 -81q-20 -18 -67.5 -37t-108.5 -19 q-122 0 -179 67.5t-57 185.5t65 198t182 80zM122 610v84h287v-84h-287z"/>
<glyph horiz-adv-x="549" unicode="Ĕ" glyph-name="Ebreve" d="M376 874l66 -27q-42 -127 -170 -127t-162 126l67 28q31 -78 100 -78q37 0 59 18t40 60zM509 0h-475v81l33 3q29 3 29 28v465l-57 3v85h458v-166l-102 -7v40q0 17 -5 24t-24 7h-148v-171h231v-102h-231v-187h161q18 -1 23 7t5 25v50l102 -7v-178z"/>
<glyph horiz-adv-x="484" unicode="ĕ" glyph-name="ebreve" d="M306 318.5q31 22.5 31 53.5q0 61 -60 61q-56 0 -86 -44.5t-33 -106.5q44 1 80.5 7.5t67.5 29zM284 518q75 0 119 -36.5t44 -102.5q0 -44 -19 -77.5t-47 -52.5t-68 -31q-67 -20 -151 -20q3 -53 33 -85.5t92 -32.5t124 44l38 -81q-20 -18 -67.5 -37t-108.5 -19 q-122 0 -179 67.5t-57 185.5t65 198t182 80zM357 721l65 -15q-16 -68 -56.5 -106t-108 -38t-107.5 41.5t-49 102.5l68 16q28 -84 94 -84q31 0 53.5 18.5t40.5 64.5z"/>
<glyph horiz-adv-x="549" unicode="Ė" glyph-name="Edotaccent" d="M227 746q-19 18 -19 46t20 48t49 20t49 -20t20 -48t-20 -46t-50 -19q-30 1 -49 19zM509 0h-475v81l33 3q29 3 29 28v465l-57 3v85h458v-166l-102 -7v40q0 17 -5 24t-24 7h-148v-171h231v-102h-231v-187h161q18 -1 23 7t5 25v50l102 -7v-178z"/>
<glyph horiz-adv-x="484" unicode="ė" glyph-name="edotaccent" d="M306 318.5q31 22.5 31 53.5q0 61 -60 61q-56 0 -86 -44.5t-33 -106.5q44 1 80.5 7.5t67.5 29zM284 518q75 0 119 -36.5t44 -102.5q0 -44 -19 -77.5t-47 -52.5t-68 -31q-67 -20 -151 -20q3 -53 33 -85.5t92 -32.5t124 44l38 -81q-20 -18 -67.5 -37t-108.5 -19 q-122 0 -179 67.5t-57 185.5t65 198t182 80zM217 599.5q-19 18.5 -19 47t19.5 48t49.5 19.5t49.5 -19.5t19.5 -48t-19.5 -47t-50 -18.5t-49.5 18.5z"/>
<glyph horiz-adv-x="549" unicode="Ę" glyph-name="Eogonek" d="M509 0q-113 -39 -113 -97q0 -38 41 -38q22 0 47 11l22 -66q-50 -24 -104 -24t-80 28t-26 68q0 69 88 118h-350v81l33 3q29 3 29 28v465l-57 3v85h458v-166l-102 -7v40q0 17 -5 24t-24 7h-148v-171h231v-102h-231v-187h161q18 -1 23 7t5 25v50l102 -7v-178z"/>
<glyph horiz-adv-x="484" unicode="ę" glyph-name="eogonek" d="M306 318q31 22 31 54q0 61 -60 61q-56 -1 -86 -45t-33 -106q44 2 80 8t68 28zM449 43q-14 -12 -60 -36q-47 -24 -73 -49t-26 -55q0 -38 41 -38q22 0 47 11l22 -66q-50 -24 -104 -24t-80 28t-26 68q0 62 67 105q-114 5 -167 72t-53 183t65 196t182 80q75 0 119 -36 t44 -103q0 -43 -19 -77t-47 -53t-68 -31q-67 -20 -151 -20q3 -54 33 -86t92 -32t124 44z"/>
<glyph horiz-adv-x="549" unicode="Ě" glyph-name="Ecaron" d="M402 893l41 -34l-118 -128q-21 -23 -42 -23l-40 21l-120 129l41 35l120 -86zM509 0h-475v81l33 3q29 3 29 28v465l-57 3v85h458v-166l-102 -7v40q0 17 -5 24t-24 7h-148v-171h231v-102h-231v-187h161q18 -1 23 7t5 25v50l102 -7v-178z"/>
<glyph horiz-adv-x="484" unicode="ě" glyph-name="ecaron" d="M306 318.5q31 22.5 31 53.5q0 61 -60 61q-56 0 -86 -44.5t-33 -106.5q44 1 80.5 7.5t67.5 29zM284 518q75 0 119 -36.5t44 -102.5q0 -44 -19 -77.5t-47 -52.5t-68 -31q-67 -20 -151 -20q3 -53 33 -85.5t92 -32.5t124 44l38 -81q-20 -18 -67.5 -37t-108.5 -19 q-122 0 -179 67.5t-57 185.5t65 198t182 80zM381 771l41 -32l-115 -146q-20 -26 -43 -26q-25 0 -46 28l-113 143l41 34l118 -104z"/>
<glyph horiz-adv-x="641" unicode="Ĝ" glyph-name="Gcircumflex" d="M229 708l-41 34l118 128q21 23 42 23l40 -21l120 -129l-41 -35l-120 86zM564 233v-181q-93 -64 -231 -64q-137 0 -215 86t-78 257q0 75 20 135t50 99q32 39 74 65q80 47 182 47t189 -41v-170l-102 -7v78q0 15 -4 22q-11 19 -91 19q-193 0 -193 -239q0 -252 174 -252 q69 0 106 24v149h-1l-77 3v85h249v-80l-23 -2q-17 -2 -23 -8t-6 -25z"/>
<glyph horiz-adv-x="544" unicode="ĝ" glyph-name="gcircumflex" d="M364 204v215q-35 12 -80 12q-61 0 -93.5 -45t-32.5 -122q0 -158 104 -158q43 0 72.5 26.5t29.5 71.5zM414 -162q-55 -52 -172 -52t-183 33v139l95 8v-48q0 -27 25 -36.5t69 -9.5q64 0 90 38.5t26 108.5v55q-48 -56 -133 -56q-52 0 -91.5 20t-61.5 54q-43 68 -43 160 q0 131 71 198.5t189 67.5q98 0 185 -37v-371q0 -85 -2 -109q-9 -111 -64 -163zM160 562l-41 32l115 151q20 26 43 26q25 0 46 -28l113 -148l-41 -34l-118 104z"/>
<glyph horiz-adv-x="641" unicode="Ğ" glyph-name="Gbreve" d="M440 874l66 -27q-42 -127 -170 -127t-162 126l67 28q31 -78 100 -78q37 0 59 18t40 60zM564 233v-181q-93 -64 -231 -64q-137 0 -215 86t-78 257q0 75 20 135t50 99q32 39 74 65q80 47 182 47t189 -41v-170l-102 -7v78q0 15 -4 22q-11 19 -91 19q-193 0 -193 -239 q0 -252 174 -252q69 0 106 24v149h-1l-77 3v85h249v-80l-23 -2q-17 -2 -23 -8t-6 -25z"/>
<glyph horiz-adv-x="544" unicode="ğ" glyph-name="gbreve" d="M364 204v215q-35 12 -80 12q-61 0 -93.5 -45t-32.5 -122q0 -158 104 -158q43 0 72.5 26.5t29.5 71.5zM414 -162q-55 -52 -172 -52t-183 33v139l95 8v-48q0 -27 25 -36.5t69 -9.5q64 0 90 38.5t26 108.5v55q-48 -56 -133 -56q-52 0 -91.5 20t-61.5 54q-43 68 -43 160 q0 131 71 198.5t189 67.5q98 0 185 -37v-371q0 -85 -2 -109q-9 -111 -64 -163zM376 721l65 -15q-16 -68 -56.5 -106t-108 -38t-107.5 41.5t-49 102.5l68 16q28 -84 94 -84q31 0 53.5 18.5t40.5 64.5z"/>
<glyph horiz-adv-x="641" unicode="Ġ" glyph-name="Gdotaccent" d="M303 746q-19 18 -19 46t20 48t49 20t49 -20t20 -48t-20 -46t-50 -19q-30 1 -49 19zM564 233v-181q-93 -64 -231 -64q-137 0 -215 86t-78 257q0 75 20 135t50 99q32 39 74 65q80 47 182 47t189 -41v-170l-102 -7v78q0 15 -4 22q-11 19 -91 19q-193 0 -193 -239 q0 -252 174 -252q69 0 106 24v149h-1l-77 3v85h249v-80l-23 -2q-17 -2 -23 -8t-6 -25z"/>
<glyph horiz-adv-x="544" unicode="ġ" glyph-name="gdotaccent" d="M364 204v215q-35 12 -80 12q-61 0 -93.5 -45t-32.5 -122q0 -158 104 -158q43 0 72.5 26.5t29.5 71.5zM414 -162q-55 -52 -172 -52t-183 33v139l95 8v-48q0 -27 25 -36.5t69 -9.5q64 0 90 38.5t26 108.5v55q-48 -56 -133 -56q-52 0 -91.5 20t-61.5 54q-43 68 -43 160 q0 131 71 198.5t189 67.5q98 0 185 -37v-371q0 -85 -2 -109q-9 -111 -64 -163zM230 599.5q-19 18.5 -19 47t19.5 48t49.5 19.5t49.5 -19.5t19.5 -48t-19.5 -47t-50 -18.5t-49.5 18.5z"/>
<glyph horiz-adv-x="641" unicode="Ģ" glyph-name="Gcommaaccent" d="M312 -61l49 -10q32 -6 37 -29q1 -4 1 -16t-14 -30l-86 -135l-46 22zM564 233v-181q-93 -64 -231 -64q-137 0 -215 86t-78 257q0 75 20 135t50 99q32 39 74 65q80 47 182 47t189 -41v-170l-102 -7v78q0 15 -4 22q-11 19 -91 19q-193 0 -193 -239q0 -252 174 -252 q69 0 106 24v149h-1l-77 3v85h249v-80l-23 -2q-17 -2 -23 -8t-6 -25z"/>
<glyph horiz-adv-x="544" unicode="ģ" glyph-name="gcommaaccent" d="M372 772l-59 -198l-49 10q-38 7 -38 38q0 18 14 37l86 135zM364 204v215q-35 12 -80 12q-62 0 -94 -45t-32 -122q0 -158 104 -158q42 0 72 26t30 72zM414 -162q-55 -52 -172 -52t-183 33v139l95 8v-48q0 -26 25 -36t69 -10q64 0 90 38t26 109v55q-48 -56 -133 -56 q-51 0 -91 20t-62 54q-43 68 -43 160q0 130 71 198t189 68q98 0 185 -37v-371q0 -85 -2 -109q-9 -111 -64 -163z"/>
<glyph horiz-adv-x="712" unicode="Ĥ" glyph-name="Hcircumflex" d="M236 708l-41 34l118 128q21 23 42 23l40 -21l120 -129l-41 -35l-120 86zM499 117v173h-283v-202l58 -3v-85h-242v81l33 3q29 3 29 28v465l-57 3v85h242v-81l-33 -3q-16 -3 -23 -9t-7 -24v-155h283v184l-57 3v85h242v-81l-33 -3q-29 -3 -29 -32v-461l57 -3v-85h-242v81 l33 3q15 2 22 8t7 25z"/>
<glyph horiz-adv-x="600" unicode="ĥ" glyph-name="hcircumflex" d="M7 736l-41 34l118 128q21 23 42 23l40 -21l120 -129l-41 -35l-120 86zM94 112v487q0 16 -6 22t-19 7l-35 2v83h178v-269q52 74 146 74q76 0 118 -44t41 -130v-261l57 -3v-80h-238v76l33 3q15 3 22 9t7 24v206q0 52 -16 80t-64 28t-76 -30t-29 -71v-242l57 -3v-80h-238v76 l33 3q15 3 22 9t7 24z"/>
<glyph horiz-adv-x="728" unicode="Ħ" glyph-name="Hbar" d="M222 393h283v59h-283v-59zM505 117v173h-283v-202l58 -3v-85h-242v81l33 3q29 3 29 28v340h-62v77h62v48l-57 3v85h242v-81l-33 -3q-16 -3 -23 -9t-7 -24v-19h283v48l-57 3v85h242v-81l-33 -3q-29 -3 -29 -32v-20h67v-77h-67v-364l57 -3v-85h-242v81l33 3q15 2 22 8t7 25 z"/>
<glyph horiz-adv-x="600" unicode="ħ" glyph-name="hbar" d="M376 528h-164v-109q52 74 146 74q76 1 118 -43t41 -131v-236l57 -3v-80h-238v76l33 3q15 3 22 9t7 24v181q0 52 -16 80t-64 28q-48 1 -76 -29t-29 -72v-217l57 -3v-80h-238v76l33 3q15 3 22 9t7 24v416h-65v72h65v4q0 16 -6 22t-19 7l-35 2v78h178v-113h164v-72z"/>
<glyph horiz-adv-x="307" unicode="Ĩ" glyph-name="Itilde" d="M43 728l-48 35q36 79 102 79q24 0 70 -14q45 -14 67 -14t41 32l54 -29q-33 -87 -103 -87q-22 0 -66 14t-62 13q-18 1 -28 -5q-11 -6 -27 -24zM94 117v460l-57 3v85h242v-81l-33 -3q-29 -3 -29 -32v-461l57 -3v-85h-242v81l33 3q15 2 22 8t7 25z"/>
<glyph horiz-adv-x="296" unicode="ĩ" glyph-name="itilde" d="M214 503v-420l57 -3v-80h-238v76l33 3q29 3 29 32v278q0 17 -5.5 23t-19.5 6l-35 2v83h179zM16 596l-48 35q36 79 102 79q24 0 70 -14t67.5 -14t40.5 32l54 -29q-33 -87 -103 -87q-22 0 -66 13.5t-61.5 13.5t-28.5 -5.5t-27 -23.5z"/>
<glyph horiz-adv-x="307" unicode="Ī" glyph-name="Imacron" d="M12 734v87h287v-87h-287zM94 117v460l-57 3v85h242v-81l-33 -3q-29 -3 -29 -32v-461l57 -3v-85h-242v81l33 3q15 2 22 8t7 25z"/>
<glyph horiz-adv-x="296" unicode="ī" glyph-name="imacron" d="M214 503v-420l57 -3v-80h-238v76l33 3q29 3 29 32v278q0 17 -5.5 23t-19.5 6l-35 2v83h179zM-15 610v84h287v-84h-287z"/>
<glyph horiz-adv-x="307" unicode="Ĭ" glyph-name="Ibreve" d="M258 874l66 -27q-42 -127 -170 -127t-162 126l67 28q31 -78 100 -78q37 0 59 18t40 60zM94 117v460l-57 3v85h242v-81l-33 -3q-29 -3 -29 -32v-461l57 -3v-85h-242v81l33 3q15 2 22 8t7 25z"/>
<glyph horiz-adv-x="296" unicode="ĭ" glyph-name="ibreve" d="M214 503v-420l57 -3v-80h-238v76l33 3q29 3 29 32v278q0 17 -5.5 23t-19.5 6l-35 2v83h179zM229 721l65 -15q-16 -68 -56.5 -106t-108 -38t-107.5 41.5t-49 102.5l68 16q28 -84 94 -84q31 0 53.5 18.5t40.5 64.5z"/>
<glyph horiz-adv-x="307" unicode="Į" glyph-name="Iogonek" d="M94 117v460l-57 3v85h242v-81l-33 -3q-29 -3 -29 -32v-461l57 -3v-85q-106 -41 -106 -97q0 -38 41 -38q22 0 47 11l22 -66q-50 -24 -104 -24t-80 28t-26 68t22 64t65 47v7h-123v81l33 3q15 2 22 8t7 25z"/>
<glyph horiz-adv-x="296" unicode="į" glyph-name="iogonek" d="M67 642q0 32 21 54t55 21q33 1 55 -21t22 -54t-22 -52t-55 -21q-34 1 -55 21t-21 52zM214 503v-420l57 -3v-80q-117 -38 -117 -97q0 -38 41 -38q22 0 47 11l22 -66q-50 -24 -104 -24t-80 28t-26 68t24 65t65 44v9h-110v76l33 3q29 3 29 32v278q1 17 -5 23t-20 6l-35 2v83 h179z"/>
<glyph horiz-adv-x="307" unicode="İ" glyph-name="Idotaccent" d="M108 746q-19 18 -19 46q-1 28 19 48t50 20t50 -20t19 -48q1 -28 -19 -46t-50 -19q-30 1 -50 19zM94 117v460l-57 3v85h242v-81l-33 -3q-29 -3 -29 -32v-461l57 -3v-85h-242v81l33 3q15 2 22 8t7 25z"/>
<glyph horiz-adv-x="296" unicode="ı" glyph-name="dotlessi" d="M214 503v-420l57 -3v-80h-238v76l33 3q29 3 29 32v278q0 17 -5.5 23t-19.5 6l-35 2v83h179z"/>
<glyph horiz-adv-x="781" unicode="Ĳ" glyph-name="IJ" d="M700 134q-17 -147 -196 -147q-95 0 -169 42v175l102 7v-79q0 -15 4 -22q4 -8 21 -14q16 -6 52 -6t52 22t16 69v395l-78 4v85h262v-81l-33 -3q-29 -3 -29 -31v-311q0 -71 -4 -105zM94 117v460l-57 3v85h242v-81l-33 -3q-29 -3 -29 -32v-461l57 -3v-85h-242v81l33 3 q15 2 22 8t7 25z"/>
<glyph horiz-adv-x="579" unicode="ĳ" glyph-name="ij" d="M357 642q0 32 21 54t55 21q33 1 55 -21t22 -54t-22 -52t-55 -21q-34 1 -55 21t-21 52zM504 503v-527q0 -80 -26 -130q-33 -60 -134 -60q-72 0 -128 35l36 83q40 -21 72 -21t46 20t15 68v418q1 16 -5 22t-20 7l-35 2v83h179zM67 642q0 32 21 54t55 21q33 1 55 -21t22 -54 t-22 -52t-55 -21q-34 1 -55 21t-21 52zM214 503v-420l57 -3v-80h-238v76l33 3q29 3 29 32v278q1 17 -5 23t-20 6l-35 2v83h179z"/>
<glyph horiz-adv-x="474" unicode="Ĵ" glyph-name="Jcircumflex" d="M208 709l-41 34l118 128q21 23 42 23l40 -21l120 -129l-41 -35l-120 86zM393 134q-17 -147 -197 -147q-94 0 -168 42v175l102 7v-79q0 -15 4 -22q4 -8 21 -14t53 -6t51 22q16 22 16 69v395l-78 4v85h262v-81l-33 -3q-29 -3 -29 -31v-311q0 -71 -4 -105z"/>
<glyph horiz-adv-x="283" unicode="ĵ" glyph-name="jcircumflex" d="M7 562l-41 32l115 151q20 26 43 26q25 0 46 -28l113 -148l-41 -34l-118 104zM208 503v-527q0 -80 -26 -130q-33 -60 -134 -60q-72 0 -128 35l36 83q40 -21 72 -21t46 20t15 68v418q1 16 -5 22t-20 7l-35 2v83h179z"/>
<glyph horiz-adv-x="622" unicode="Ķ" glyph-name="Kcommaaccent" d="M279 -61l49 -10q32 -6 37 -29q1 -4 1 -16t-14 -30l-86 -135l-46 22zM94 117v460l-57 3v85h240v-81l-33 -3q-29 -3 -29 -32v-220l204 248l-56 3v85h234v-81l-33 -3q-19 -2 -40 -28l-142 -174l177 -291l53 -3v-85h-256v81l31 3q20 2 20 16q0 6 -5 16l-99 171l-88 -106v-93 l57 -3v-85h-240v81l33 3q15 2 22 8t7 25z"/>
<glyph horiz-adv-x="556" unicode="ķ" glyph-name="kcommaaccent" d="M249 -61l49 -10q32 -6 37 -29q1 -4 1 -16t-14 -30l-86 -135l-46 22zM95 112v487q1 16 -5 22t-20 7l-35 2v83h178v-433q55 5 96 34t56 76q3 10 3 16q0 17 -19 17l-38 2v78h207v-81l-48 -2q-13 -102 -88 -161l98 -176l61 -3v-80h-146l-114 208q-33 -9 -68 -14v-111h1l57 -3 v-80h-238v76l33 3q15 3 22 9t7 24z"/>
<glyph horiz-adv-x="556" unicode="ĸ" glyph-name="kgreenlandic" d="M95 112v277q1 16 -5 22t-20 7l-35 2v83h178v-223q55 5 96 34t56 76q3 10 3 16q0 17 -19 17l-38 2v78h207v-81l-48 -2q-13 -102 -88 -161l98 -176l61 -3v-80h-146l-114 208q-33 -9 -68 -14v-111h1l57 -3v-80h-238v76l33 3q15 3 22 9t7 24z"/>
<glyph horiz-adv-x="537" unicode="Ĺ" glyph-name="Lacute" d="M58 750l162 157l40 -33q18 -17 18 -33q0 -25 -35 -45l-155 -87zM507 0h-475v81l33 3q29 3 29 28v465l-57 3v85h241v-81l-33 -3q-29 -3 -29 -32v-446h166q14 -1 18 7t5 25v70l102 -7v-198z"/>
<glyph horiz-adv-x="298" unicode="ĺ" glyph-name="lacute" d="M34 781l162 157l40 -33q18 -17 18 -33q0 -25 -35 -45l-155 -87zM212 713v-630l57 -3v-80h-238v76l33 3q29 3 29 32v493q0 22 -25 24l-35 2v83h179z"/>
<glyph horiz-adv-x="537" unicode="Ļ" glyph-name="Lcommaaccent" d="M257 -61l49 -10q32 -6 37 -29q1 -4 1 -16t-14 -30l-86 -135l-46 22zM507 0h-475v81l33 3q29 3 29 28v465l-57 3v85h241v-81l-33 -3q-29 -3 -29 -32v-446h166q14 -1 18 7t5 25v70l102 -7v-198z"/>
<glyph horiz-adv-x="298" unicode="ļ" glyph-name="lcommaaccent" d="M122 -61l49 -10q32 -6 37 -29q1 -4 1 -16t-14 -30l-86 -135l-46 22zM212 713v-630l57 -3v-80h-238v76l33 3q29 3 29 32v493q0 22 -25 24l-35 2v83h179z"/>
<glyph horiz-adv-x="537" unicode="Ľ" glyph-name="Lcaron" d="M420 663q40 0 40 -40q0 -12 -4 -26l-46 -159l-48 9v211l50 5h8zM507 0h-475v81l33 3q29 3 29 28v465l-57 3v85h241v-81l-33 -3q-29 -3 -29 -32v-446h166q14 -1 18 7t5 25v70l102 -7v-198z"/>
<glyph horiz-adv-x="378" unicode="ľ" glyph-name="lcaron" d="M337 718q40 0 40 -40q0 -12 -4 -26l-46 -159l-48 9v211l50 5h8zM212 713v-630l57 -3v-80h-238v76l33 3q29 3 29 32v493q0 22 -25 24l-35 2v83h179z"/>
<glyph horiz-adv-x="537" unicode="Ŀ" glyph-name="Ldot" d="M357 332q-19 18 -19 48q0 28 20 48t49 19q29 1 49 -19t20 -48t-20 -48q-20 -18 -50 -18t-49 18zM507 0h-475v81l33 3q29 3 29 28v465l-57 3v85h241v-81l-33 -3q-29 -3 -29 -32v-446h166q14 -1 18 7t5 25v70l102 -7v-198z"/>
<glyph horiz-adv-x="379" unicode="ŀ" glyph-name="ldot" d="M290 332q-19 18 -19 48q-1 28 19 48t50 19q30 1 50 -19t19 -48q1 -28 -19 -48q-20 -18 -50 -18t-50 18zM212 713v-630l57 -3v-80h-238v76l33 3q29 3 29 32v493q0 22 -25 24l-35 2v83h179z"/>
<glyph horiz-adv-x="537" unicode="Ł" glyph-name="Lslash" d="M507 0h-475v81l33 3q29 3 29 28v132l-66 -36l-23 87l89 48v234l-57 3v85h241v-81l-33 -3q-29 -3 -29 -32v-155l185 97l24 -88l-209 -108v-192h166q14 -1 18 7t5 25v70l102 -7v-198z"/>
<glyph horiz-adv-x="328" unicode="ł" glyph-name="lslash" d="M227 713v-253l72 52l33 -87l-105 -73v-269l57 -3v-80h-238v76l33 3q29 3 29 32v179l-65 -47l-33 87l98 67v207q0 22 -25 24l-35 2v83h179z"/>
<glyph horiz-adv-x="705" unicode="Ń" glyph-name="Nacute" d="M269 750l162 157l40 -33q18 -17 18 -33q0 -25 -35 -45l-155 -87zM32 0v81l36 3q26 2 26 28v465l-57 3v85h180l283 -459h2v371l-66 3v85h244v-81l-36 -3q-24 -2 -24 -31v-550h-117l-289 466h-2v-378l65 -3v-85h-245z"/>
<glyph horiz-adv-x="600" unicode="ń" glyph-name="nacute" d="M27 423v80h169v-65q26 37 69 58.5t93 21.5q76 0 117.5 -43.5t41.5 -130.5v-261l57 -3v-80h-238v76l33 3q15 2 22 8.5t7 24.5v206q0 55 -17 81.5t-64.5 26.5t-75.5 -30t-28 -71v-242l57 -3v-80h-238v76l33 3q15 2 22 8.5t7 24.5v277q0 30 -25 31zM217 594l116 192l47 -22 q29 -16 29 -36t-25 -43l-128 -124z"/>
<glyph horiz-adv-x="705" unicode="Ņ" glyph-name="Ncommaaccent" d="M313 -61l49 -10q32 -6 37 -29q1 -4 1 -16t-14 -30l-86 -135l-46 22zM32 0v81l36 3q26 2 26 28v465l-57 3v85h180l283 -459h2v371l-66 3v85h244v-81l-36 -3q-24 -2 -24 -31v-550h-117l-289 466h-2v-378l65 -3v-85h-245z"/>
<glyph horiz-adv-x="600" unicode="ņ" glyph-name="ncommaaccent" d="M270 -61l49 -10q32 -6 37 -29q1 -4 1 -16t-14 -30l-86 -135l-46 22zM27 423v80h169v-65q26 36 69 58t93 22q76 0 118 -44t41 -130v-261l57 -3v-80h-238v76l33 3q15 3 22 9t7 24v206q0 56 -17 82t-65 26t-75 -30q-28 -30 -28 -71v-242l57 -3v-80h-238v76l33 3q15 3 22 9 t7 24v277q0 30 -25 31z"/>
<glyph horiz-adv-x="705" unicode="Ň" glyph-name="Ncaron" d="M470 893l41 -34l-118 -128q-21 -23 -42 -23l-40 21l-120 129l41 35l120 -86zM32 0v81l36 3q26 2 26 28v465l-57 3v85h180l283 -459h2v371l-66 3v85h244v-81l-36 -3q-24 -2 -24 -31v-550h-117l-289 466h-2v-378l65 -3v-85h-245z"/>
<glyph horiz-adv-x="600" unicode="ň" glyph-name="ncaron" d="M27 423v80h169v-65q26 37 69 58.5t93 21.5q76 0 117.5 -43.5t41.5 -130.5v-261l57 -3v-80h-238v76l33 3q15 2 22 8.5t7 24.5v206q0 55 -17 81.5t-64.5 26.5t-75.5 -30t-28 -71v-242l57 -3v-80h-238v76l33 3q15 2 22 8.5t7 24.5v277q0 30 -25 31zM414 771l41 -32 l-115 -146q-20 -26 -43 -26q-25 0 -46 28l-113 143l41 34l118 -104z"/>
<glyph horiz-adv-x="600" unicode="ŉ" glyph-name="napostrophe" d="M-73 481l34 210l48 -2q30 -1 37 -22q3 -7 3 -19t-9 -27l-69 -155zM27 423v80h169v-65q26 36 69 58t93 22q76 0 118 -44t41 -130v-261l57 -3v-80h-238v76l33 3q15 3 22 9t7 24v206q0 56 -17 82t-65 26t-75 -30q-28 -30 -28 -71v-242l57 -3v-80h-238v76l33 3q15 3 22 9 t7 24v277q0 30 -25 31z"/>
<glyph horiz-adv-x="705" unicode="Ŋ" glyph-name="Eng" d="M32 0v81l36 3q26 2 26 28v465l-57 3v85h180l280 -453h2v365l-66 3v85h247v-81l-36 -3q-24 -2 -24 -31v-572q0 -98 -34 -146t-124 -49q-92 0 -169 45l44 87q52 -32 92 -32q41 -1 55 21t14 73v31l-282 454h-2v-374l65 -3v-85h-247z"/>
<glyph horiz-adv-x="592" unicode="ŋ" glyph-name="eng" d="M27 423v80h169v-65q26 36 69 58t93 22q76 0 118 -44t41 -130v-368q0 -80 -27 -130q-32 -60 -133 -60q-72 0 -128 35l36 83q39 -21 71 -21t48 20q14 20 14 68v347q0 56 -17 82t-65 26t-75 -30q-28 -30 -28 -71v-242l57 -3v-80h-238v76l33 3q15 3 22 9t7 24v277 q0 30 -25 31z"/>
<glyph horiz-adv-x="664" unicode="Ō" glyph-name="Omacron" d="M192 734v87h287v-87h-287zM165 336q0 -248 172 -248q92 0 129 76q34 67 34 164q0 87 -30 160q-18 40 -52 63t-89 23t-95 -36t-54 -87q-15 -51 -15 -115zM544 593q80 -85 80 -257t-80 -260t-214 -89q-136 0 -213 88t-77 256q0 91 27 161t71 108q90 77 208 77t198 -84z"/>
<glyph horiz-adv-x="528" unicode="ō" glyph-name="omacron" d="M33 252q0 74 22 128.5t59 83.5q71 54 157 54q60 0 101.5 -19.5t65 -45t40 -74t16.5 -114.5q0 -138 -67 -209t-171.5 -71t-163.5 67.5t-59 199.5zM263 73q109 0 109 176q0 89 -24.5 135t-82 46t-84.5 -44t-27 -120q0 -141 52 -177q23 -16 57 -16zM118 610v84h287v-84h-287 z"/>
<glyph horiz-adv-x="664" unicode="Ŏ" glyph-name="Obreve" d="M435 874l66 -27q-41 -127 -169 -127t-163 126l67 28q31 -78 100 -78q38 0 60 18t39 60zM165 336q0 -248 172 -248q92 0 129 76q34 67 34 164q0 87 -30 160q-18 40 -52 63t-89 23t-95 -36t-54 -87q-15 -51 -15 -115zM544 593q80 -85 80 -257t-80 -260t-214 -89 q-136 0 -213 88t-77 256q0 91 27 161t71 108q90 77 208 77t198 -84z"/>
<glyph horiz-adv-x="528" unicode="ŏ" glyph-name="obreve" d="M33 252q0 74 22 128.5t59 83.5q71 54 157 54q60 0 101.5 -19.5t65 -45t40 -74t16.5 -114.5q0 -138 -67 -209t-171.5 -71t-163.5 67.5t-59 199.5zM263 73q109 0 109 176q0 89 -24.5 135t-82 46t-84.5 -44t-27 -120q0 -141 52 -177q23 -16 57 -16zM356 721l65 -15 q-16 -68 -56.5 -106t-108 -38t-107.5 41.5t-49 102.5l68 16q28 -84 94 -84q31 0 53.5 18.5t40.5 64.5z"/>
<glyph horiz-adv-x="664" unicode="Ő" glyph-name="Ohungarumlaut" d="M388 744l165 153l40 -34q17 -17 17 -27q0 -30 -36 -51l-157 -83zM180 744l165 153l40 -34q17 -17 17 -27q0 -30 -36 -51l-157 -83zM165 336q0 -248 172 -248q92 0 129 76q34 67 34 164q0 87 -30 160q-18 40 -52 63t-89 23t-95 -36t-54 -87q-15 -51 -15 -115zM544 593 q80 -85 80 -257t-80 -260t-214 -89q-136 0 -213 88t-77 256q0 91 27 161t71 108q90 77 208 77t198 -84z"/>
<glyph horiz-adv-x="528" unicode="ő" glyph-name="ohungarumlaut" d="M33 252q0 74 22 128.5t59 83.5q71 54 157 54q60 0 101.5 -19.5t65 -45t40 -74t16.5 -114.5q0 -138 -67 -209t-171.5 -71t-163.5 67.5t-59 199.5zM263 73q109 0 109 176q0 89 -24.5 135t-82 46t-84.5 -44t-27 -120q0 -141 52 -177q23 -16 57 -16zM295 594l116 192l43 -20 q29 -16 29 -36t-25 -43l-124 -126zM125 597l116 192l43 -20q29 -16 29 -36t-25 -43l-124 -126z"/>
<glyph horiz-adv-x="886" unicode="Œ" glyph-name="OE" d="M165 337q0 -132 54 -195q46 -54 128 -54q51 0 86 15v452q-46 20 -88 20q-91 0 -135 -69t-45 -169zM834 665v-166l-102 -7v40q0 17 -5 24t-24 7h-148v-171h231v-102h-231v-187h161q18 -1 23 7t5 25v50l102 -7v-178h-402q-54 -13 -112 -13q-140 0 -216 88t-76 257 q0 74 18 134t48 98t69 65q74 48 170 48q46 0 99 -12h390z"/>
<glyph horiz-adv-x="807" unicode="œ" glyph-name="oe" d="M625 316q35 23 35 54t-16 47t-44 16q-56 0 -86 -45t-33 -107h22t52 6t70 29zM263 73q55 0 82 47t27 129q0 181 -107 181q-55 0 -83 -44t-28 -121q0 -139 52 -176q23 -16 57 -16zM607 518q75 0 119 -36t44 -98q0 -60 -27 -98t-73 -56q-80 -32 -185 -32q3 -54 33 -86 t92 -33q60 0 124 45l38 -81q-20 -18 -68 -37t-108 -19q-129 0 -178 85q-49 -86 -167 -86q-101 0 -159 66t-59 199q0 74 22 129t58 84q69 54 153 54q120 0 164 -91q57 91 177 91z"/>
<glyph horiz-adv-x="626" unicode="Ŕ" glyph-name="Racute" d="M204 750l162 157l40 -33q18 -17 18 -33q0 -25 -35 -45l-155 -87zM216 357h87q123 0 123 110q0 63 -32 82t-105 19h-73v-211zM32 0v81l33 3q29 3 29 28v465l-57 3v85h273q116 0 178 -43t62 -141q0 -68 -36 -112t-84 -64q36 -13 57 -61l72 -157l57 -2v-85h-247v81l29 3 q23 3 23 18q0 6 -4 14l-47 100q-10 26 -24 36t-39 10h-91v-174l65 -3v-85h-249z"/>
<glyph horiz-adv-x="462" unicode="ŕ" glyph-name="racute" d="M95 112v277q0 16 -5.5 22.5t-19.5 7.5l-42 3v81h169v-75q18 39 56 64.5t87.5 25.5t94.5 -22v-149l-93 -7v46q0 20 -10 25q-11 5 -27 5q-40 0 -65.5 -28.5t-25.5 -72.5v-232l87 -4v-79h-268v76l33 3q15 2 22 8.5t7 24.5zM173 594l116 192l47 -22q29 -16 29 -36t-25 -43 l-128 -124z"/>
<glyph horiz-adv-x="626" unicode="Ŗ" glyph-name="Rcommaaccent" d="M283 -61l49 -10q32 -6 37 -29q1 -4 1 -16t-14 -30l-86 -135l-46 22zM216 357h87q123 0 123 110q0 63 -32 82t-105 19h-73v-211zM32 0v81l33 3q29 3 29 28v465l-57 3v85h273q116 0 178 -43t62 -141q0 -68 -36 -112t-84 -64q36 -13 57 -61l72 -157l57 -2v-85h-247v81l29 3 q23 3 23 18q0 6 -4 14l-47 100q-10 26 -24 36t-39 10h-91v-174l65 -3v-85h-249z"/>
<glyph horiz-adv-x="462" unicode="ŗ" glyph-name="rcommaaccent" d="M138 -61l49 -10q32 -6 37 -29q1 -4 1 -16t-14 -30l-86 -135l-46 22zM95 112v277q1 17 -5 23t-20 7l-42 3v81h169v-75q18 38 56 64q37 26 87 26t95 -22v-149l-93 -7v46q0 20 -10 25q-11 5 -27 5q-39 0 -65 -28t-26 -73v-232l87 -4v-79h-268v76l33 3q15 3 22 9t7 24z"/>
<glyph horiz-adv-x="626" unicode="Ř" glyph-name="Rcaron" d="M398 893l41 -34l-118 -128q-21 -23 -42 -23l-40 21l-120 129l41 35l120 -86zM216 357h87q123 0 123 110q0 63 -32 82t-105 19h-73v-211zM32 0v81l33 3q29 3 29 28v465l-57 3v85h273q116 0 178 -43t62 -141q0 -68 -36 -112t-84 -64q36 -13 57 -61l72 -157l57 -2v-85h-247 v81l29 3q23 3 23 18q0 6 -4 14l-47 100q-10 26 -24 36t-39 10h-91v-174l65 -3v-85h-249z"/>
<glyph horiz-adv-x="462" unicode="ř" glyph-name="rcaron" d="M95 112v277q0 16 -5.5 22.5t-19.5 7.5l-42 3v81h169v-75q18 39 56 64.5t87.5 25.5t94.5 -22v-149l-93 -7v46q0 20 -10 25q-11 5 -27 5q-40 0 -65.5 -28.5t-25.5 -72.5v-232l87 -4v-79h-268v76l33 3q15 2 22 8.5t7 24.5zM344 771l41 -32l-115 -146q-20 -26 -43 -26 q-25 0 -46 28l-113 143l41 34l118 -104z"/>
<glyph horiz-adv-x="522" unicode="Ś" glyph-name="Sacute" d="M184 750l162 157l40 -33q18 -17 18 -33q0 -25 -35 -45l-155 -87zM241 90q120 0 120 96q0 50 -53 74q-28 14 -72 26t-74 24t-60 35q-59 43 -59 135q-1 92 63 144t166 53q102 0 191 -41v-150l-102 -7v58q0 15 -4 22q-11 19 -71 19t-88 -21t-28 -65q0 -32 24 -56 q16 -16 48 -26t66 -22q36 -11 64 -24t57 -36q61 -45 61 -139t-68 -148t-178 -54t-198 41v158l102 7v-61q0 -15 4 -22q4 -8 24 -14t65 -6z"/>
<glyph horiz-adv-x="451" unicode="ś" glyph-name="sacute" d="M295 427q-24 9 -58 9t-54.5 -15.5t-20.5 -38t7.5 -35t23.5 -21.5q25 -13 60 -22.5t52 -15t42.5 -18.5t38.5 -28q35 -37 35 -95q0 -75 -54.5 -117.5t-138.5 -42.5q-122 0 -184 31v139l90 7v-48q0 -44 84 -44t84 61q0 22 -14.5 36t-28.5 19t-33.5 10t-38 10t-40 13.5 t-47.5 24.5q-51 33 -51 110.5t55 119.5t138.5 42t165.5 -40v-120l-90 -7v42q0 25 -23 34zM160 594l116 192l47 -22q29 -16 29 -36t-25 -43l-128 -124z"/>
<glyph horiz-adv-x="522" unicode="Ŝ" glyph-name="Scircumflex" d="M155 708l-41 34l118 128q21 23 42 23l40 -21l120 -129l-41 -35l-120 86zM241 90q120 0 120 96q0 50 -53 74q-28 14 -72 26t-74 24t-60 35q-59 43 -59 135q-1 92 63 144t166 53q102 0 191 -41v-150l-102 -7v58q0 15 -4 22q-11 19 -71 19t-88 -21t-28 -65q0 -32 24 -56 q16 -16 48 -26t66 -22q36 -11 64 -24t57 -36q61 -45 61 -139t-68 -148t-178 -54t-198 41v158l102 7v-61q0 -15 4 -22q4 -8 24 -14t65 -6z"/>
<glyph horiz-adv-x="451" unicode="ŝ" glyph-name="scircumflex" d="M295 427q-24 9 -58 9t-54.5 -15.5t-20.5 -38t7.5 -35t23.5 -21.5q25 -13 60 -22.5t52 -15t42.5 -18.5t38.5 -28q35 -37 35 -95q0 -75 -54.5 -117.5t-138.5 -42.5q-122 0 -184 31v139l90 7v-48q0 -44 84 -44t84 61q0 22 -14.5 36t-28.5 19t-33.5 10t-38 10t-40 13.5 t-47.5 24.5q-51 33 -51 110.5t55 119.5t138.5 42t165.5 -40v-120l-90 -7v42q0 25 -23 34zM119 562l-41 32l115 151q20 26 43 26q25 0 46 -28l113 -148l-41 -34l-118 104z"/>
<glyph horiz-adv-x="522" unicode="Ş" glyph-name="Scedilla" d="M241 90q120 0 120 96q0 50 -53 74q-28 14 -72 26t-74 24t-60 35q-59 43 -59 135q-1 92 63 144t166 53q102 0 191 -41v-150l-102 -7v58q0 15 -4 22q-11 19 -71 19t-88 -21t-28 -65q0 -32 24 -56q16 -16 48 -26t66 -22q36 -11 64 -24t57 -36q61 -45 61 -135q0 -91 -56 -143 t-149 -61l-13 -52q42 -3 68 -24t25 -65t-37 -66q-36 -24 -85 -24t-90 18l16 52q39 -13 67 -13q48 -1 48 37t-88 38l31 97q-102 3 -181 41v158l102 7v-61q0 -15 4 -22q4 -8 24 -14t65 -6z"/>
<glyph horiz-adv-x="451" unicode="ş" glyph-name="scedilla" d="M295 427q-24 9 -58 9q-35 0 -55 -16t-20 -38t8 -34t23 -22q25 -12 60 -22t52 -16t43 -18q26 -13 38 -28q35 -36 35 -100q1 -64 -47 -106t-122 -48l-13 -51q41 -3 67 -24t26 -65t-36 -66q-36 -24 -86 -24q-49 0 -90 18l16 52q39 -13 67 -13q48 -1 48 37t-88 38l31 98 q-102 5 -150 30v139l90 7v-48q0 -44 84 -44t84 61q0 22 -14 36t-29 19q-13 5 -33 10t-38 10q-18 6 -40 14t-48 24q-51 32 -51 110t55 120q54 42 138 42t166 -40v-120l-90 -7v42q0 25 -23 34z"/>
<glyph horiz-adv-x="522" unicode="Š" glyph-name="Scaron" d="M386 893l41 -34l-118 -128q-21 -23 -42 -23l-40 21l-120 129l41 35l120 -86zM241 90q120 0 120 96q0 50 -53 74q-28 14 -72 26t-74 24t-60 35q-59 43 -59 135q-1 92 63 144t166 53q102 0 191 -41v-150l-102 -7v58q0 15 -4 22q-11 19 -71 19t-88 -21t-28 -65q0 -32 24 -56 q16 -16 48 -26t66 -22q36 -11 64 -24t57 -36q61 -45 61 -139t-68 -148t-178 -54t-198 41v158l102 7v-61q0 -15 4 -22q4 -8 24 -14t65 -6z"/>
<glyph horiz-adv-x="451" unicode="š" glyph-name="scaron" d="M295 427q-24 9 -58 9t-54.5 -15.5t-20.5 -38t7.5 -35t23.5 -21.5q25 -13 60 -22.5t52 -15t42.5 -18.5t38.5 -28q35 -37 35 -95q0 -75 -54.5 -117.5t-138.5 -42.5q-122 0 -184 31v139l90 7v-48q0 -44 84 -44t84 61q0 22 -14.5 36t-28.5 19t-33.5 10t-38 10t-40 13.5 t-47.5 24.5q-51 33 -51 110.5t55 119.5t138.5 42t165.5 -40v-120l-90 -7v42q0 25 -23 34zM352 771l41 -32l-115 -146q-20 -26 -43 -26q-25 0 -46 28l-113 143l41 34l118 -104z"/>
<glyph horiz-adv-x="553" unicode="Ţ" glyph-name="uni0162" d="M218 112v447h-78q-23 0 -23 -31v-40l-102 7v170h523v-170l-102 -7v40q0 17 -5 24t-24 7h-68v-471l79 -3v-85h-115l-16 -63q41 -3 67 -24t26 -65t-36 -66q-36 -24 -86 -24q-49 0 -90 18l16 52q39 -13 67 -13q48 -1 48 37t-88 38l35 110h-110v81l53 3q29 3 29 28z"/>
<glyph horiz-adv-x="377" unicode="ţ" glyph-name="uni0163" d="M144 609h65v-106h133l-10 -84h-123v-263q0 -44 16 -62q15 -18 49 -17q34 0 68 21l30 -77q-48 -33 -125 -35l-12 -49q41 -3 67 -24t26 -65t-36 -66q-36 -24 -86 -24q-49 0 -90 18l16 52q39 -13 67 -13q48 -1 48 37t-88 38l32 101q-54 11 -80 47q-10 14 -15 38q-6 29 -6 76 v267h-71l10 73q47 4 71 34t44 83z"/>
<glyph horiz-adv-x="553" unicode="Ť" glyph-name="Tcaron" d="M399 893l41 -34l-118 -128q-21 -23 -42 -23l-40 21l-120 129l41 35l120 -86zM218 112v454h-78q-23 0 -23 -31v-47l-102 7v170h523v-170l-102 -7v47q0 17 -5 24t-24 7h-68v-478l79 -3v-85h-282v81l53 3q29 3 29 28z"/>
<glyph horiz-adv-x="377" unicode="ť" glyph-name="tcaron" d="M330 774q40 0 40 -40q0 -12 -4 -26l-46 -159l-48 9v211l50 5h8zM144 609h65v-106h133l-10 -84h-123v-263q0 -44 16 -62q15 -18 49 -17q34 0 68 21l30 -77q-50 -35 -127 -35q-45 0 -76 12t-46 25q-15 14 -23 41q-8 26 -9 42t-1 46v267h-71l10 73q47 4 71 34t44 83z"/>
<glyph horiz-adv-x="553" unicode="Ŧ" glyph-name="Tbar" d="M218 112v160h-125v90h125v197h-78q-23 0 -23 -31v-40l-102 7v170h523v-170l-102 -7v40q0 17 -5 24t-24 7h-68v-197h124v-90h-124v-184l79 -3v-85h-282v81l53 3q29 3 29 28z"/>
<glyph horiz-adv-x="377" unicode="ŧ" glyph-name="tbar" d="M144 609h65v-106h133l-10 -84h-123v-96h120v-84h-120v-83q0 -44 16 -62q15 -18 49 -17q34 0 68 21l30 -77q-50 -35 -127 -35q-45 0 -76 12t-46 25q-15 14 -23 41q-8 26 -9 42t-1 46v87h-70v84h70v96h-71l10 73q47 4 71 34t44 83z"/>
<glyph horiz-adv-x="659" unicode="Ũ" glyph-name="Utilde" d="M219 728l-48 35q36 79 102 79q24 0 70 -14q45 -14 67 -14t41 32l54 -29q-33 -87 -103 -87q-22 0 -66 14t-62 13q-18 1 -28 -5q-11 -6 -27 -24zM201 548v-332q-1 -70 33 -98t96 -29q62 0 98 31q34 31 34 91v366l-58 3v85h237v-81l-33 -3q-29 -3 -29 -30v-357 q0 -97 -68 -152t-188 -55q-119 -1 -181 53t-62 170v367l-58 3v85h242v-81l-33 -3q-16 -3 -23 -9t-7 -24z"/>
<glyph horiz-adv-x="591" unicode="ũ" glyph-name="utilde" d="M563 79v-79h-162v65q-55 -78 -162 -78q-155 0 -155 173v231q0 27 -25 28l-32 2v82h176v-317q0 -53 15 -80t62 -27t75.5 29t28.5 70v211q0 16 -5.5 22.5t-19.5 7.5l-32 2v82h176v-392q0 -16 5 -21.5t20 -7.5zM157 596l-48 35q36 79 102 79q24 0 70 -14t67.5 -14t40.5 32 l54 -29q-33 -87 -103 -87q-22 0 -66 13.5t-61.5 13.5t-28.5 -5.5t-27 -23.5z"/>
<glyph horiz-adv-x="659" unicode="Ū" glyph-name="Umacron" d="M188 734v87h287v-87h-287zM201 548v-332q-1 -70 33 -98t96 -29q62 0 98 31q34 31 34 91v366l-58 3v85h237v-81l-33 -3q-29 -3 -29 -30v-357q0 -97 -68 -152t-188 -55q-119 -1 -181 53t-62 170v367l-58 3v85h242v-81l-33 -3q-16 -3 -23 -9t-7 -24z"/>
<glyph horiz-adv-x="591" unicode="ū" glyph-name="umacron" d="M563 79v-79h-162v65q-55 -78 -162 -78q-155 0 -155 173v231q0 27 -25 28l-32 2v82h176v-317q0 -53 15 -80t62 -27t75.5 29t28.5 70v211q0 16 -5.5 22.5t-19.5 7.5l-32 2v82h176v-392q0 -16 5 -21.5t20 -7.5zM123 610v84h287v-84h-287z"/>
<glyph horiz-adv-x="659" unicode="Ŭ" glyph-name="Ubreve" d="M434 874l66 -27q-42 -127 -170 -127t-162 126l67 28q31 -78 100 -78q37 0 59 18t40 60zM201 548v-332q-1 -70 33 -98t96 -29q62 0 98 31q34 31 34 91v366l-58 3v85h237v-81l-33 -3q-29 -3 -29 -30v-357q0 -97 -68 -152t-188 -55q-119 -1 -181 53t-62 170v367l-58 3v85 h242v-81l-33 -3q-16 -3 -23 -9t-7 -24z"/>
<glyph horiz-adv-x="591" unicode="ŭ" glyph-name="ubreve" d="M563 79v-79h-162v65q-55 -78 -162 -78q-155 0 -155 173v231q0 27 -25 28l-32 2v82h176v-317q0 -53 15 -80t62 -27t75.5 29t28.5 70v211q0 16 -5.5 22.5t-19.5 7.5l-32 2v82h176v-392q0 -16 5 -21.5t20 -7.5zM369 721l65 -15q-16 -68 -56.5 -106t-108 -38t-107.5 41.5 t-49 102.5l68 16q28 -84 94 -84q31 0 53.5 18.5t40.5 64.5z"/>
<glyph horiz-adv-x="659" unicode="Ů" glyph-name="Uring" d="M335 834q-36 0 -36 -42t36 -41q17 0 27 12t9 30q0 41 -36 41zM264 726q-24 26 -24 68q0 40 26 66t70 26q42 0 67 -26t25 -65t-26 -67t-70 -28t-68 26zM201 548v-332q-1 -70 33 -98t96 -29q62 0 98 31q34 31 34 91v366l-58 3v85h237v-81l-33 -3q-29 -3 -29 -30v-357 q0 -97 -68 -152t-188 -55q-119 -1 -181 53t-62 170v367l-58 3v85h242v-81l-33 -3q-16 -3 -23 -9t-7 -24z"/>
<glyph horiz-adv-x="591" unicode="ů" glyph-name="uring" d="M563 79v-79h-162v65q-55 -78 -162 -78q-155 0 -155 173v231q0 27 -25 28l-32 2v82h176v-317q0 -53 15 -80t62 -27t75.5 29t28.5 70v211q0 16 -5.5 22.5t-19.5 7.5l-32 2v82h176v-392q0 -16 5 -21.5t20 -7.5zM277 698q-36 0 -36 -41.5t36 -41.5q17 0 26.5 12t9.5 30 q0 41 -36 41zM206.5 590.5q-24.5 26.5 -24.5 67t26.5 66.5t69 26t67.5 -25.5t25 -65.5t-26 -67.5t-69.5 -27.5t-68 26.5z"/>
<glyph horiz-adv-x="659" unicode="Ű" glyph-name="Uhungarumlaut" d="M377 744l165 153l40 -34q17 -17 17 -27q0 -30 -36 -51l-157 -83zM169 744l165 153l40 -34q17 -17 17 -27q0 -30 -36 -51l-157 -83zM201 548v-332q-1 -70 33 -98t96 -29q62 0 98 31q34 31 34 91v366l-58 3v85h237v-81l-33 -3q-29 -3 -29 -30v-357q0 -97 -68 -152t-188 -55 q-119 -1 -181 53t-62 170v367l-58 3v85h242v-81l-33 -3q-16 -3 -23 -9t-7 -24z"/>
<glyph horiz-adv-x="591" unicode="ű" glyph-name="uhungarumlaut" d="M563 79v-79h-162v65q-55 -78 -162 -78q-155 0 -155 173v231q0 27 -25 28l-32 2v82h176v-317q0 -53 15 -80t62 -27t75.5 29t28.5 70v211q0 16 -5.5 22.5t-19.5 7.5l-32 2v82h176v-392q0 -16 5 -21.5t20 -7.5zM309 594l116 192l43 -20q29 -16 29 -36t-25 -43l-124 -126z M139 597l116 192l43 -20q29 -16 29 -36t-25 -43l-124 -126z"/>
<glyph horiz-adv-x="659" unicode="Ų" glyph-name="Uogonek" d="M201 548v-332q-1 -70 33 -98t96 -29q62 0 98 31q34 31 34 91v366l-58 3v85h237v-81l-33 -3q-29 -3 -29 -30v-357q0 -119 -97 -172q-108 -59 -108 -119q0 -38 41 -38q22 0 47 11l22 -66q-50 -24 -104 -24t-80 28t-26 68q0 62 67 105h-13q-124 -1 -186 53t-62 170v367 l-58 3v85h242v-81l-33 -3q-16 -3 -23 -9t-7 -24z"/>
<glyph horiz-adv-x="591" unicode="ų" glyph-name="uogonek" d="M563 79v-79q-107 -41 -107 -97q0 -38 41 -38q22 0 47 11l22 -66q-50 -24 -104 -24t-80 28t-26 66q0 75 91 115v8h-46v62q-55 -78 -162 -78q-155 0 -155 173v231q0 27 -25 28l-32 2v82h176v-317q0 -53 15 -80t62 -27q48 0 76 29t28 70v211q0 17 -6 23t-19 7l-32 2v82h176 v-392q0 -15 5 -21t20 -8z"/>
<glyph horiz-adv-x="885" unicode="Ŵ" glyph-name="Wcircumflex" d="M326 708l-41 34l118 128q21 23 42 23l40 -21l120 -129l-41 -35l-120 86zM880 584l-33 -3q-26 -2 -33 -36l-126 -545h-137l-105 445h-3l-102 -445h-141l-138 577l-57 3v85h248v-81l-33 -3q-31 -3 -31 -26q0 -4 1 -9l87 -386h4l104 452h129l108 -454h2l85 418l-54 4v85h225 v-81z"/>
<glyph horiz-adv-x="795" unicode="ŵ" glyph-name="wcircumflex" d="M364 483h97l104 -372h2l68 309l-51 3v80h201v-77l-33 -2q-20 -2 -27 -24l-95 -400h-144l-82 298h-3l-85 -298h-147l-101 399q-5 14 -10.5 19t-18.5 6l-29 2v77h229v-80l-56 -3l69 -307h2zM294 562l-41 32l115 151q20 26 43 26q25 0 46 -28l113 -148l-41 -34l-118 104z "/>
<glyph horiz-adv-x="570" unicode="Ŷ" glyph-name="Ycircumflex" d="M166 708l-41 34l118 128q21 23 42 23l40 -21l120 -129l-41 -35l-120 86zM222 112v142l-170 323l-47 3v85h244v-81l-30 -3q-17 -1 -21 -12t4 -27l85 -174h4l109 208l-50 4v85h215v-81l-30 -3q-19 -2 -34 -30l-157 -297v-166l78 -3v-85h-282v81l53 3q29 2 29 28z"/>
<glyph horiz-adv-x="573" unicode="ŷ" glyph-name="ycircumflex" d="M401 19v76q-55 -78 -162 -78q-155 0 -155 173v201q0 27 -25 28l-32 2v82h176v-287q0 -53 15 -80t62 -27t75.5 29t28.5 70v181q0 17 -5.5 23.5t-19.5 6.5l-32 2v82h176v-484q0 -121 -58.5 -177t-177 -56t-184.5 33v139l95 8v-48q0 -27 25 -36.5t69 -9.5q129 0 129 147z M149 562l-41 32l115 151q20 26 43 26q25 0 46 -28l113 -148l-41 -34l-118 104z"/>
<glyph horiz-adv-x="570" unicode="Ÿ" glyph-name="Ydieresis" d="M147 740q-19 18 -19 46t20 48t49 20t49 -20t20 -48t-20 -46t-50 -19q-30 1 -49 19zM347 740q-19 18 -19 46t20 48t49 20t49 -20t20 -48t-20 -46t-50 -19q-30 1 -49 19zM222 112v142l-170 323l-47 3v85h244v-81l-30 -3q-17 -1 -21 -12t4 -27l85 -174h4l109 208l-50 4v85 h215v-81l-30 -3q-19 -2 -34 -30l-157 -297v-166l78 -3v-85h-282v81l53 3q29 2 29 28z"/>
<glyph horiz-adv-x="533" unicode="Ź" glyph-name="Zacute" d="M178 750l162 157l40 -33q18 -17 18 -33q0 -25 -35 -45l-155 -87zM477 584l-305 -489h194q25 0 25 32v70l102 -7v-190h-460v83l302 487h-166q-27 0 -27 -31v-40l-102 7v159h437v-81z"/>
<glyph horiz-adv-x="483" unicode="ź" glyph-name="zacute" d="M448 0h-408v76l257 338h-126q-21 0 -26.5 -8t-5.5 -26v-35l-94 7v151h398v-68l-260 -345h142q29 0 29 34v42l94 -7v-159zM163 594l116 192l47 -22q29 -16 29 -36t-25 -43l-128 -124z"/>
<glyph horiz-adv-x="533" unicode="Ż" glyph-name="Zdotaccent" d="M208 746q-19 18 -19 46q-1 28 19 48t50 20t50 -20t19 -48q1 -28 -19 -46t-50 -19q-30 1 -50 19zM477 584l-305 -489h194q25 0 25 32v70l102 -7v-190h-460v83l302 487h-166q-27 0 -27 -31v-40l-102 7v159h437v-81z"/>
<glyph horiz-adv-x="483" unicode="ż" glyph-name="zdotaccent" d="M448 0h-408v76l257 338h-126q-21 0 -26.5 -8t-5.5 -26v-35l-94 7v151h398v-68l-260 -345h142q29 0 29 34v42l94 -7v-159zM187 599.5q-19 18.5 -19 47t19.5 48t49.5 19.5t49.5 -19.5t19.5 -48t-19.5 -47t-50 -18.5t-49.5 18.5z"/>
<glyph horiz-adv-x="533" unicode="Ž" glyph-name="Zcaron" d="M384 893l41 -34l-118 -128q-21 -23 -42 -23l-40 21l-120 129l41 35l120 -86zM477 584l-305 -489h194q25 0 25 32v70l102 -7v-190h-460v83l302 487h-166q-27 0 -27 -31v-40l-102 7v159h437v-81z"/>
<glyph horiz-adv-x="483" unicode="ž" glyph-name="zcaron" d="M448 0h-408v76l257 338h-126q-21 0 -26.5 -8t-5.5 -26v-35l-94 7v151h398v-68l-260 -345h142q29 0 29 34v42l94 -7v-159zM357 771l41 -32l-115 -146q-20 -26 -43 -26q-25 0 -46 28l-113 143l41 34l118 -104z"/>
<glyph horiz-adv-x="370" unicode="ſ" glyph-name="longs" d="M96 112v307h-86v84h86v38q0 98 45 141q42 41 123 41t144 -35l-29 -80q-48 25 -90 25q-42 -1 -58 -21t-16 -62v-466l84 -4v-80h-265v76l33 3q15 3 22 9t7 24z"/>
<glyph horiz-adv-x="547" unicode="ƒ" glyph-name="florin" d="M77 294l15 95h109l13 75q8 47 18 77t32 59q40 57 146 57q74 0 141 -35l-40 -80q-49 26 -89 26t-58 -18t-26 -58l-19 -103h148l-17 -95h-147l-53 -306q-8 -47 -19 -79t-33 -61q-43 -58 -149 -58q-74 0 -137 35l40 79q47 -25 93 -25q67 0 80 76l59 339h-107z"/>
<glyph horiz-adv-x="662" unicode="Ǻ" glyph-name="Aringacute" d="M195 920l162 157l40 -33q18 -17 18 -33q0 -25 -35 -45l-155 -87zM305 825q-36 1 -36 -41t36 -42q17 0 27 12t9 30q0 41 -36 41zM234 718q-24 26 -24 66t26 67q26 26 70 26q42 1 67 -25t25 -66t-26 -68t-70 -27t-68 27zM323 553l-93 -285h186l-90 285h-3zM68 112l161 466 l-63 6v81h229l204 -577h1l57 -3v-85h-258v81l38 3q17 2 23 8t1 22l-21 62h-234l-30 -88l60 -3v-85h-231v81l33 3q21 2 30 28z"/>
<glyph horiz-adv-x="567" unicode="ǻ" glyph-name="aringacute" d="M180 787l162 157l40 -33q18 -17 18 -33q0 -25 -35 -45l-155 -87zM291 686q-36 0 -36 -42t36 -41q17 0 27 12t9 30q0 41 -36 41zM220 578q-24 26 -24 68q0 40 26 66t70 26q42 0 67 -26t25 -65t-26 -67t-70 -28t-68 26zM366 159v259q-28 13 -77 13q-67 0 -97 -54t-30 -143 q0 -162 104 -162q44 0 72 26t28 61zM482 483v-372q0 -16 6 -22t19 -7l32 -2v-80h-159v58l-3 1q-50 -72 -137 -72q-102 0 -151 65t-49 178q0 136 66 212t198 76q85 0 178 -35z"/>
<glyph horiz-adv-x="854" unicode="Ǽ" glyph-name="AEacute" d="M318 553l-93 -285h186l-90 285h-3zM63 112l161 466l-63 6v81h641v-166l-102 -7v40q0 17 -5 24t-24 7h-225l59 -171h249v-102h-231l66 -187h95q18 0 23 7.5t5 24.5v50l102 -7v-178h-420v81l38 3q17 2 23 8t1 22l-21 62h-234l-30 -88l60 -3v-85h-231v81l33 3q21 2 30 28z M407 756l116 192l47 -22q29 -16 29 -36t-25 -43l-128 -124z"/>
<glyph horiz-adv-x="765" unicode="ǽ" glyph-name="aeacute" d="M618 375q0 27 -16 42.5t-43 15.5q-56 0 -86.5 -45t-33.5 -107q54 0 96.5 13.5t62.5 33.5t20 47zM287 431q-63 0 -94 -53t-31 -136.5t24.5 -126.5t82.5 -43q43 0 75 32q-26 55 -26 146t51 166q-37 15 -82 15zM442 484q53 34 126 34t116.5 -36.5t43.5 -102.5 q0 -179 -285 -181q3 -55 34 -87t90 -32t125 45l38 -81q-23 -19 -70 -37.5t-110 -18.5q-104 0 -158 54q-66 -54 -148 -54q-108 0 -156 67.5t-48 189.5t67 198t192 76q73 0 143 -34zM333 594l116 192l47 -22q29 -16 29 -36t-25 -43l-128 -124z"/>
<glyph horiz-adv-x="664" unicode="Ǿ" glyph-name="Oslashacute" d="M237 750l162 157l40 -33q18 -17 18 -33q0 -25 -35 -45l-155 -87zM229 -110l-102 38l39 104q-27 18 -49 43q-77 88 -77 256q0 91 27 161t71 108q90 77 208 77q30 0 56 -5l31 83l104 -37l-33 -90q21 -15 40 -35q80 -85 80 -257t-80 -260t-214 -89q-33 0 -63 5zM365 571 q-17 3 -36 3q-55 0 -95 -36t-54 -87q-15 -51 -15 -115q0 -125 44 -187zM459 509l-155 -418q16 -3 33 -3q92 0 129 76q34 67 34 164q0 87 -30 160q-5 11 -11 21z"/>
<glyph horiz-adv-x="528" unicode="ǿ" glyph-name="oslashacute" d="M267 430q-57 0 -84 -44t-27 -118.5t12 -115.5l138 271q-15 7 -39 7zM265 73q109 0 109 176q0 64 -13 104l-139 -272q19 -8 43 -8zM137 -84l-72 36l42 86q-72 69 -72 214q0 74 22 128.5t59 83.5q71 54 157 54q44 0 79 -11l38 76l73 -35l-40 -80q73 -64 73 -202.5 t-67 -209.5t-172 -71q-44 0 -80 12zM235 594l116 192l47 -22q29 -16 29 -36t-25 -43l-128 -124z"/>
<glyph horiz-adv-x="522" unicode="Ș" glyph-name="Scommaaccent" d="M229 -61l49 -10q32 -6 37 -29q1 -4 1 -16t-14 -30l-86 -135l-46 22zM241 90q120 0 120 96q0 50 -53 74q-28 14 -72 26t-74 24t-60 35q-59 43 -59 135q-1 92 63 144t166 53q102 0 191 -41v-150l-102 -7v58q0 15 -4 22q-11 19 -71 19t-88 -21t-28 -65q0 -32 24 -56 q16 -16 48 -26t66 -22q36 -11 64 -24t57 -36q61 -45 61 -139t-68 -148t-178 -54t-198 41v158l102 7v-61q0 -15 4 -22q4 -8 24 -14t65 -6z"/>
<glyph horiz-adv-x="451" unicode="ș" glyph-name="scommaaccent" d="M198 -61l49 -10q32 -6 37 -29q1 -4 1 -16t-14 -30l-86 -135l-46 22zM295 427q-24 9 -58 9q-35 0 -55 -16t-20 -38t8 -34t23 -22q25 -12 60 -22t52 -16t43 -18q26 -13 38 -28q35 -37 35 -95q-1 -75 -55 -117t-138 -43q-122 0 -184 31v139l90 7v-48q0 -44 84 -44t84 61 q0 22 -14 36t-29 19q-13 5 -33 10t-38 10q-18 6 -40 14t-48 24q-51 32 -51 110t55 120q54 42 138 42t166 -40v-120l-90 -7v42q0 25 -23 34z"/>
<glyph horiz-adv-x="553" unicode="Ț" glyph-name="uni021A" d="M254 -61l49 -10q32 -6 37 -29q1 -4 1 -16t-14 -30l-86 -135l-46 22zM218 112v454h-78q-23 0 -23 -31v-47l-102 7v170h523v-170l-102 -7v47q0 17 -5 24t-24 7h-68v-478l79 -3v-85h-282v81l53 3q29 3 29 28z"/>
<glyph horiz-adv-x="377" unicode="ț" glyph-name="uni021B" d="M198 -61l49 -10q32 -6 37 -29q1 -4 1 -16t-14 -30l-86 -135l-46 22zM144 609h65v-106h133l-10 -84h-123v-263q0 -44 16 -62q15 -18 49 -17q34 0 68 21l30 -77q-50 -35 -127 -35q-45 0 -76 12t-46 25q-15 14 -23 41q-8 26 -9 42t-1 46v267h-71l10 73q47 4 71 34t44 83z "/>
<glyph horiz-adv-x="283" unicode="ȷ" glyph-name="dotlessj" d="M208 503v-527q0 -80 -26 -130q-33 -60 -134 -60q-72 0 -128 35l36 83q40 -21 72 -21t46 20t15 68v418q1 16 -5 22t-20 7l-35 2v83h179z"/>
<glyph horiz-adv-x="252" unicode="ʼ" glyph-name="apostrophe" d="M81 503l34 210l48 -2q30 -1 37 -22q3 -7 3 -19t-9 -27l-69 -155z"/>
<glyph unicode="ˆ" glyph-name="circumflex" d="M131 562l-41 32l115 151q20 26 43 26q25 0 46 -28l113 -148l-41 -34l-118 104z"/>
<glyph unicode="ˇ" glyph-name="caron" d="M363 771l41 -32l-115 -146q-20 -26 -43 -26q-25 0 -46 28l-113 143l41 34l118 -104z"/>
<glyph unicode="ˉ" glyph-name="uni02C9" d="M104 609v86h287v-86h-287z"/>
<glyph unicode="˘" glyph-name="breve" d="M347 721l65 -15q-16 -68 -56.5 -106t-108 -38t-107.5 41.5t-49 102.5l68 16q28 -84 94 -84q31 0 53.5 18.5t40.5 64.5z"/>
<glyph unicode="˙" glyph-name="dotaccent" d="M202 599.5q-19 18.5 -19 47t19.5 48t49.5 19.5t49.5 -19.5t19.5 -48t-19.5 -47t-50 -18.5t-49.5 18.5z"/>
<glyph unicode="˚" glyph-name="ring" d="M250 698q-36 0 -36 -41.5t36 -41.5q17 0 26.5 12t9.5 30q0 41 -36 41zM179.5 590.5q-24.5 26.5 -24.5 67t26.5 66.5t69 26t67.5 -25.5t25 -65.5t-26 -67.5t-69.5 -27.5t-68 26.5z"/>
<glyph unicode="˛" glyph-name="ogonek" d="M227 6l105 -4q-104 -46 -104 -99q0 -38 41 -38q22 0 47 11l22 -66q-50 -24 -104 -24t-80 28t-26 69q0 43 27 71t72 52z"/>
<glyph unicode="˜" glyph-name="tilde" d="M133 596l-48 35q36 79 102 79q24 0 70 -14t67.5 -14t40.5 32l54 -29q-33 -87 -103 -87q-22 0 -66 13.5t-61.5 13.5t-28.5 -5.5t-27 -23.5z"/>
<glyph unicode="˝" glyph-name="hungarumlaut" d="M252 594l116 192l43 -20q29 -16 29 -36t-25 -43l-124 -126zM82 597l116 192l43 -20q29 -16 29 -36t-25 -43l-124 -126z"/>
<glyph horiz-adv-x="669" unicode="Δ" glyph-name="uni0394" d="M337 538h-4l-164 -445h331zM653 0h-637l257 665h125z"/>
<glyph horiz-adv-x="781" unicode="Ω" glyph-name="uni03A9" d="M73 345q0 146 91 229t233 83q141 0 227 -76t86 -219q0 -80 -34 -148t-88 -108h145v-106h-277v86q130 94 130 249q0 111 -54 165t-138 54q-85 0 -140 -54t-55 -166q0 -86 40 -150t100 -99v-85h-284v106h136q-55 38 -87 100t-31 139z"/>
<glyph horiz-adv-x="584" unicode="μ" glyph-name="uni03BC" d="M504 503v-400q0 -33 26 -33q14 0 39 12l14 -70q-43 -24 -91 -24q-75 0 -79 81q-16 -37 -51 -60t-78 -23q-70 0 -103 49v-251h-107v719h112v-289q0 -70 22 -107t74 -37t80 44t28 117v272h114z"/>
<glyph horiz-adv-x="630" unicode="π" glyph-name="pi" d="M594 410h-77v-289q-1 -29 5 -39t24 -11q18 0 43 7l16 -71q-40 -20 -96 -20q-105 0 -105 107v316h-168v-410h-113v410h-78v93h549v-93z"/>
<glyph horiz-adv-x="885" unicode="Ẁ" glyph-name="Wgrave" d="M379 907l162 -157l-30 -41l-155 87q-36 20 -36 40t19 38zM880 584l-33 -3q-26 -2 -33 -36l-126 -545h-137l-105 445h-3l-102 -445h-141l-138 577l-57 3v85h248v-81l-33 -3q-31 -3 -31 -26q0 -4 1 -9l87 -386h4l104 452h129l108 -454h2l85 418l-54 4v85h225v-81z"/>
<glyph horiz-adv-x="795" unicode="ẁ" glyph-name="wgrave" d="M364 483h97l104 -372h2l68 309l-51 3v80h201v-77l-33 -2q-20 -2 -27 -24l-95 -400h-144l-82 298h-3l-85 -298h-147l-101 399q-5 14 -10.5 19t-18.5 6l-29 2v77h229v-80l-56 -3l69 -307h2zM373 786l116 -192l-39 -33l-128 124q-25 23 -25 43t29 36z"/>
<glyph horiz-adv-x="885" unicode="Ẃ" glyph-name="Wacute" d="M353 750l162 157l40 -33q18 -17 18 -33q0 -25 -35 -45l-155 -87zM880 584l-33 -3q-26 -2 -33 -36l-126 -545h-137l-105 445h-3l-102 -445h-141l-138 577l-57 3v85h248v-81l-33 -3q-31 -3 -31 -26q0 -4 1 -9l87 -386h4l104 452h129l108 -454h2l85 418l-54 4v85h225v-81z "/>
<glyph horiz-adv-x="795" unicode="ẃ" glyph-name="wacute" d="M364 483h97l104 -372h2l68 309l-51 3v80h201v-77l-33 -2q-20 -2 -27 -24l-95 -400h-144l-82 298h-3l-85 -298h-147l-101 399q-5 14 -10.5 19t-18.5 6l-29 2v77h229v-80l-56 -3l69 -307h2zM325 594l116 192l47 -22q29 -16 29 -36t-25 -43l-128 -124z"/>
<glyph horiz-adv-x="885" unicode="Ẅ" glyph-name="Wdieresis" d="M304 740q-19 18 -19 46q-1 28 19 48t50 20t50 -20t19 -48q1 -28 -19 -46t-50 -19q-30 1 -50 19zM504 740q-19 18 -19 46q-1 28 19 48t50 20t50 -20t19 -48q1 -28 -19 -46t-50 -19q-30 1 -50 19zM880 584l-33 -3q-26 -2 -33 -36l-126 -545h-137l-105 445h-3l-102 -445 h-141l-138 577l-57 3v85h248v-81l-33 -3q-31 -3 -31 -26q0 -4 1 -9l87 -386h4l104 452h129l108 -454h2l85 418l-54 4v85h225v-81z"/>
<glyph horiz-adv-x="795" unicode="ẅ" glyph-name="wdieresis" d="M364 483h97l104 -372h2l68 309l-51 3v80h201v-77l-33 -2q-20 -2 -27 -24l-95 -400h-144l-82 298h-3l-85 -298h-147l-101 399q-5 14 -10.5 19t-18.5 6l-29 2v77h229v-80l-56 -3l69 -307h2zM260 599.5q-19 18.5 -19 47t19.5 48t49.5 19.5t49.5 -19.5t19.5 -48t-19.5 -47 t-50 -18.5t-49.5 18.5zM460 599.5q-19 18.5 -19 47t19.5 48t49.5 19.5t49.5 -19.5t19.5 -48t-19.5 -47t-50 -18.5t-49.5 18.5z"/>
<glyph horiz-adv-x="570" unicode="Ỳ" glyph-name="Ygrave" d="M209 907l162 -157l-30 -41l-155 87q-36 20 -36 40t19 38zM222 112v142l-170 323l-47 3v85h244v-81l-30 -3q-17 -1 -21 -12t4 -27l85 -174h4l109 208l-50 4v85h215v-81l-30 -3q-19 -2 -34 -30l-157 -297v-166l78 -3v-85h-282v81l53 3q29 2 29 28z"/>
<glyph horiz-adv-x="573" unicode="ỳ" glyph-name="ygrave" d="M401 19v76q-55 -78 -162 -78q-155 0 -155 173v201q0 27 -25 28l-32 2v82h176v-287q0 -53 15 -80t62 -27t75.5 29t28.5 70v181q0 17 -5.5 23.5t-19.5 6.5l-32 2v82h176v-484q0 -121 -58.5 -177t-177 -56t-184.5 33v139l95 8v-48q0 -27 25 -36.5t69 -9.5q129 0 129 147z M215 786l116 -192l-39 -33l-128 124q-25 23 -25 43t29 36z"/>
<glyph unicode="–" glyph-name="endash" d="M0 244v83h500v-83h-500z"/>
<glyph horiz-adv-x="1000" unicode="—" glyph-name="emdash" d="M0 244v83h1000v-83h-1000z"/>
<glyph horiz-adv-x="220" unicode="‘" glyph-name="quoteleft" d="M200 711l-58 -236q-61 7 -92 23q-19 10 -19 31t11 40l95 165z"/>
<glyph horiz-adv-x="212" unicode="’" glyph-name="quoteright" d="M31 498l58 236q61 -7 92 -23q19 -10 19 -31t-11 -40l-95 -165z"/>
<glyph horiz-adv-x="227" unicode="‚" glyph-name="quotesinglbase" d="M192 74l-102 -221l-63 19l30 190q8 50 49 50q20 0 32 -6t20 -11q8 -4 10 -6q3 -1 12 -7z"/>
<glyph horiz-adv-x="386" unicode="“" glyph-name="quotedblleft" d="M366 711l-58 -236q-61 7 -92 23q-19 10 -19 31t11 40l95 165zM200 711l-58 -236q-61 7 -92 23q-19 10 -19 31t11 40l95 165z"/>
<glyph horiz-adv-x="378" unicode="”" glyph-name="quotedblright" d="M197 498l58 236q61 -7 92 -23q19 -10 19 -31t-11 -40l-95 -165zM31 498l58 236q61 -7 92 -23q19 -10 19 -31t-11 -40l-95 -165z"/>
<glyph horiz-adv-x="393" unicode="„" glyph-name="quotedblbase" d="M358 74l-102 -221l-63 19l30 190q8 50 49 50q20 0 32 -6t20 -11q8 -4 10 -6q3 -1 12 -7zM192 74l-102 -221l-63 19l30 190q8 50 49 50q20 0 32 -6t20 -11q8 -4 10 -6q3 -1 12 -7z"/>
<glyph horiz-adv-x="401" unicode="†" glyph-name="dagger" d="M48 472l-8 35q-2 9 -2 19t10 20t20 10t16 -1l88 -16l-23 126l33 8q9 2 20 2q11 1 23 -9t12 -20t-1 -15l-16 -94l130 24l8 -32q2 -9 2 -19t-10 -22t-20 -11q-10 0 -16 1l-94 19l20 -211v-5q0 -20 -12 -30t-22 -10q-12 0 -20 2l-43 10l27 244z"/>
<glyph horiz-adv-x="439" unicode="‡" glyph-name="daggerdbl" d="M71 482l-8 35q-2 9 -2 19t10 20q11 10 21 10t15 -1l88 -16l-23 116l33 8q9 2 20 2q11 1 23 -9t12 -20t-1 -15l-16 -84l130 24l8 -32q2 -9 2 -19t-10 -22q-11 -12 -21 -11q-10 0 -15 1l-89 18v-95l120 25l8 -35q2 -9 2 -19t-10 -20t-20 -10t-16 1l-88 16l23 -116l-33 -8 q-9 -2 -20 -2q-11 -1 -23 9t-12 20t1 15l16 84l-130 -24l-8 32q-2 9 -2 19t10 22t20 11q10 0 16 -1l89 -18v94z"/>
<glyph unicode="•" glyph-name="bullet" d="M166 220q-32 34 -32 90t32 89q32 34 84 34t84 -34q32 -33 32 -89t-32 -90t-84 -34t-84 34z"/>
<glyph horiz-adv-x="727" unicode="…" glyph-name="ellipsis" d="M563 4q-19 20 -19 52t20 52t52 20q34 0 54 -20t20 -50q0 -32 -19 -52t-54 -21t-54 19zM313 4q-19 20 -19 52t20 52t52 20q34 0 54 -20t20 -50q0 -32 -19 -52t-54 -21t-54 19zM55 4q-19 20 -19 52t20 52t52 20q34 0 54 -20t20 -50q0 -32 -19 -52t-54 -21t-54 19z"/>
<glyph horiz-adv-x="924" unicode="‰" glyph-name="perthousand" d="M119 109l-55 67l441 368l57 -67zM166 409q60 0 60 92t-58 92t-58 -92t56 -92zM170 657q62 -1 98 -39t36 -114t-38 -118q-38 -40 -102 -40t-98 39t-35 115q1 76 39 116q38 41 100 41zM447 49q59 0 59 92t-57 92q-59 0 -59 -92t57 -92zM350 256q38 40 100 41q62 -1 98 -39 t37 -114t-37 -117t-102 -41t-100 40q-34 40 -34 114q0 76 38 116zM756 49q60 0 60 92t-58 92t-58 -92t56 -92zM659 256q39 40 101 41q62 -1 98 -39t36 -114t-38 -118q-38 -40 -102 -40t-98 40t-35 114q0 76 38 116z"/>
<glyph horiz-adv-x="326" unicode="‹" glyph-name="guilsinglleft" d="M293 406l-120 -143l113 -160l-47 -42l-174 161q-18 18 -18 44t29 49l170 136z"/>
<glyph horiz-adv-x="326" unicode="›" glyph-name="guilsinglright" d="M154 263l-120 145l47 45l170 -136q29 -23 29 -51t-20 -45l-172 -158l-47 42z"/>
<glyph horiz-adv-x="173" unicode="⁄" glyph-name="fraction" d="M-39 -41l-76 35l324 692l78 -33z"/>
<glyph horiz-adv-x="377" unicode="⁴" glyph-name="foursuperior" d="M195 427v27h-152v58l112 232l69 -32l-92 -189h68l29 76h53v-76h61v-71h-61v-41l71 -3v-67h-233v66l59 4q16 1 16 16z"/>
<glyph horiz-adv-x="561" unicode="€" glyph-name="Euro" d="M40 206v82h405v-82h-210q11 -59 43 -88t92 -29t117 47l57 -80q-75 -68 -190 -68q-205 0 -243 218h-71zM359 558q-55 0 -87 -37t-39 -94h212v-82h-405v82h71q11 113 82 171t169 59q98 0 174 -41v-140l-102 -7v47q0 16 -4 22t-22 13t-49 7z"/>
<glyph horiz-adv-x="779" unicode="™" glyph-name="trademark" d="M476 665l76 -200h1l76 200h116v-56l-16 -1q-16 -3 -16 -18l13 -206l32 -2v-53h-133v51l18 2q14 0 14 13l-9 162h-2l-74 -195h-52l-78 196h-1l-10 -174l33 -2v-53h-127v51l18 2q13 0 13 14l10 209l-31 2v58h129zM141 395v206h-34q-12 0 -12 -16v-20l-56 4v96h283v-96 l-56 -4v20q0 9 -2 13t-13 3h-30v-217l40 -3v-52h-161v51l27 1q14 3 14 14z"/>
<glyph horiz-adv-x="781" unicode="Ω" glyph-name="Omega" d="M73 360q-1 146 91 232t234 85t226 -79q86 -78 86 -221q0 -83 -34 -157t-88 -114h145v-106h-277v86q50 36 90 102t40 170t-54 160t-138 56t-140 -56t-55 -169q0 -87 41 -159t99 -105v-85h-284v106h136q-54 37 -86 106t-32 148z"/>
<glyph horiz-adv-x="555" unicode="∂" glyph-name="partialdiff" d="M377 288q-47 45 -101 45t-80 -34q-26 -33 -26 -95t26 -96t76 -34q106 0 106 180q0 22 -1 34zM139 582l24 87q177 -33 253 -133t76 -264q0 -80 -20 -142t-71 -103t-130 -41q-111 0 -164 62t-53 159t55 155t147 58q65 0 121 -35q-11 72 -77 126t-161 71z"/>
<glyph horiz-adv-x="669" unicode="∆" glyph-name="Delta" d="M337 538h-4l-164 -445h331zM653 0h-637l257 665h125z"/>
<glyph horiz-adv-x="687" unicode="∏" glyph-name="product" d="M15 665h661v-81l-33 -3q-15 -2 -22 -9t-7 -26v-590l57 -3v-85h-241v81l36 3q25 1 25 27v579h-296v-602l59 -3v-85h-243v81l36 3q25 2 25 27v597l-57 4v85z"/>
<glyph horiz-adv-x="586" unicode="∑" glyph-name="summation" d="M561 55v-187h-534v95l260 306l-251 300v96h516v-177l-102 -7v46q0 17 -5 24t-24 7h-223l234 -288l-246 -295h245q18 -1 23 7t5 25v55z"/>
<glyph horiz-adv-x="535" unicode="−" glyph-name="minus" d="M470 362v-96h-405v96h405z"/>
<glyph horiz-adv-x="476" unicode="∕" glyph-name="uni2215" d="M138 -117l-103 36l291 825l104 -36z"/>
<glyph horiz-adv-x="315" unicode="∙" glyph-name="uni2219" d="M104 258q-18 18 -19 48q1 30 19 50q18 19 50 19q32 -1 51 -19t19 -48t-18 -50t-52 -19q-32 1 -50 19z"/>
<glyph horiz-adv-x="667" unicode="√" glyph-name="radical" d="M681 731l-262 -745h-113l-141 404l-96 -49l-35 82l200 101l129 -382l200 589h118z"/>
<glyph horiz-adv-x="764" unicode="∞" glyph-name="infinity" d="M317 345q-48 76 -104 76q-37 0 -57 -21t-19 -53q-1 -32 19 -52t55 -20q56 0 106 70zM608 297q18 22 17 54q0 32 -17 51t-48 19q-32 -1 -56 -19t-54 -55q53 -72 109 -72q31 0 49 22zM684 464q39 -44 39 -113q1 -69 -43 -113t-112 -45q-99 0 -184 97q-84 -99 -179 -99 q-77 1 -121 43t-43 110t47 115t110 47t106 -26q40 -26 81 -81q50 56 92 82t105 26q63 1 102 -43z"/>
<glyph horiz-adv-x="390" unicode="∫" glyph-name="integral" d="M239 549l33 -561v-7q0 -59 -32 -98t-96 -39t-115 20l16 75q39 -12 65 -12q26 -1 37 11q10 12 10 44q0 12 -3 58l-25 434q-3 51 -3 73q0 60 32 100t104 40q53 0 105 -18l-12 -75q-39 12 -67 12t-38 -13t-11 -44z"/>
<glyph horiz-adv-x="620" unicode="≈" glyph-name="approxequal" d="M412 346q-48 0 -114 34t-90 34q-42 0 -91 -64l-68 56q68 104 149 104q40 0 106 -35t99 -35q47 0 92 63l69 -58q-61 -99 -152 -99zM415 139q-49 0 -115 34t-89 34q-43 0 -91 -64l-69 56q70 104 149 104q40 0 107 -35t98 -35q47 0 92 63l69 -58q-61 -99 -151 -99z"/>
<glyph horiz-adv-x="535" unicode="≠" glyph-name="notequal" d="M470 259v-97h-200l-28 -105h-100l29 105h-106v97h132l27 95h-159v96h186l29 104h96l-28 -104h122v-96h-148l-26 -95h174z"/>
<glyph horiz-adv-x="535" unicode="≤" glyph-name="lessequal" d="M467 488l-262 -122l264 -125l-42 -90l-353 171v82l353 173zM463 116v-97h-390v97h390z"/>
<glyph horiz-adv-x="535" unicode="≥" glyph-name="greaterequal" d="M337 366l-262 122l40 89l353 -173v-82l-353 -171l-42 90zM79 19v97h390v-97h-390z"/>
<glyph horiz-adv-x="581" unicode="◊" glyph-name="lozenge" d="M417 331l-126 220l-123 -221l126 -227zM532 331l-189 -331h-102l-190 329l191 328h100z"/>
<glyph horiz-adv-x="656" unicode="ﬀ" glyph-name="ff" d="M382 112v307h-167v-335l64 -4v-80h-245v76l33 3q15 3 22 9t7 24v307h-86v84h86v38q0 71 27 120q34 62 141 62q55 0 101 -17l-24 -83q-33 10 -63 10q-63 0 -63 -83v-47h167v38q0 98 45 141q42 41 123 41t144 -35l-29 -80q-48 25 -90 25q-42 -1 -58 -21t-16 -62v-47h148 v-84h-148v-335l84 -4v-80h-265v76l33 3q15 3 22 9t7 24z"/>
<glyph horiz-adv-x="587" unicode="ﬁ" glyph-name="fi" d="M96 112v307h-86v84h86v38q0 182 189 182q47 1 96 -13t79 -31l-31 -81q-68 35 -129 35q-85 0 -85 -83v-47h286v-420l57 -3v-80h-238v76l33 3q29 3 29 32v278q0 30 -26 30h-141v-335l64 -4v-80h-245v76l33 3q15 3 22 9t7 24z"/>
<glyph horiz-adv-x="586" unicode="ﬂ" glyph-name="fl" d="M215 555v-52h166v106q-41 24 -88 24q-78 0 -78 -78zM500 713v-630l57 -3v-80h-238v76l33 3q29 3 29 32v308h-166v-335l64 -4v-80h-245v76l33 3q15 3 22 9t7 24v307h-86v84h86v38q0 70 32 121q18 28 56 44t99 17q62 0 122 -31l59 21h36z"/>
<glyph horiz-adv-x="869" unicode="ﬃ" glyph-name="ffi" d="M382 112v307h-167v-335l64 -4v-80h-245v76l33 3q15 3 22 9t7 24v307h-86v84h86v38q0 71 27 120q34 62 141 62q55 0 101 -17l-24 -83q-33 10 -63 10q-63 0 -63 -83v-47h167v38q0 182 189 182q47 1 96 -13t79 -31l-31 -81q-68 35 -129 35q-85 0 -85 -83v-47h286v-420l57 -3 v-80h-238v76l33 3q29 3 29 32v278q0 30 -26 30h-141v-335l64 -4v-80h-245v76l33 3q15 3 22 9t7 24z"/>
<glyph horiz-adv-x="872" unicode="ﬄ" glyph-name="ffl" d="M501 555v-52h166v106q-41 24 -88 24q-78 0 -78 -78zM786 713v-630l57 -3v-80h-238v76l33 3q29 3 29 32v308h-166v-335l64 -4v-80h-245v76l33 3q15 3 22 9t7 24v307h-167v-335l64 -4v-80h-245v76l33 3q15 3 22 9t7 24v307h-86v84h86v38q0 71 27 120q34 62 141 62 q55 0 101 -17l-24 -83q-33 10 -63 10q-63 0 -63 -83v-47h167v38q0 70 32 121q18 28 56 44t99 17q62 0 122 -31l59 21h36z"/>
<glyph horiz-adv-x="322" glyph-name="hyphen.case" d="M30 280v92h262v-92h-262z"/>
<glyph horiz-adv-x="296" glyph-name="idotaccent" d="M67 642q0 32 21 54t55 21q33 1 55 -21t22 -54t-22 -52t-55 -21q-34 1 -55 21t-21 52zM214 503v-420l57 -3v-80h-238v76l33 3q29 3 29 32v278q1 17 -5 23t-20 6l-35 2v83h179z"/>
<glyph horiz-adv-x="676" glyph-name="t_t" d="M443 609h65v-106h133l-10 -84h-123v-263q0 -44 16 -62t50 -17q34 0 67 21l30 -77q-50 -35 -127 -35q-45 0 -76 12t-46 25q-15 14 -23 41q-8 26 -9 42t-1 46v267h-180v-263q0 -44 16 -62q17 -18 49 -17q32 0 62 19l29 -77q-47 -33 -120 -33q-45 0 -76 12t-46 25 q-15 14 -23 41q-8 26 -9 42t-1 46v267h-71l10 73q47 4 71 34t44 83h65v-106h160q19 9 34 27t22 34t18 45z"/>
<glyph glyph-name="commaaccent" d="M143 -259l59 198l49 -10q38 -7 38 -38q0 -18 -14 -37l-86 -135z"/>
<glyph glyph-name="revcommaaccent" d="M326 763l-59 -198l-49 10q-38 7 -38 38q0 18 14 37l86 135z"/>
<glyph glyph-name="tilde.cap" d="M133 728l-48 35q36 79 102 79q24 0 70 -14q45 -14 67 -14t41 32l54 -29q-33 -87 -103 -87q-22 0 -66 14t-62 13q-18 1 -28 -5q-11 -6 -27 -24z"/>
<glyph glyph-name="ring.cap" d="M250 806q-36 0 -36 -42t36 -41q16 0 26 12t10 30q0 41 -36 41zM180 698q-24 26 -25 68q1 40 27 66t68 26t68 -26q25 -26 25 -65t-26 -67q-25 -28 -69 -28t-68 26z"/>
<glyph glyph-name="circumflex.cap" d="M130 708l-41 34l118 128q21 23 42 23l40 -21l120 -129l-41 -35l-120 86z"/>
<glyph glyph-name="acute.cap" d="M149 750l162 157l40 -33q18 -17 18 -33q0 -25 -35 -45l-155 -87z"/>
<glyph glyph-name="grave.cap" d="M207 907l162 -157l-30 -41l-155 87q-36 20 -36 40t19 38z"/>
<glyph glyph-name="dieresis.cap" d="M102 740q-19 18 -19 46q-1 28 19 48t50 20t50 -20t19 -48q1 -28 -19 -46t-50 -19q-30 1 -50 19zM302 740q-19 18 -19 46q-1 28 19 48t50 20t50 -20t19 -48q1 -28 -19 -46t-50 -19q-30 1 -50 19z"/>
<glyph glyph-name="caron.cap" d="M367 893l41 -34l-118 -128q-21 -23 -42 -23l-40 21l-120 129l41 35l120 -86z"/>
<glyph glyph-name="macron.cap" d="M104 734v87h287v-87h-287z"/>
<glyph glyph-name="dotaccent.cap" d="M202 746q-19 18 -19 46q-1 28 19 48t50 20t50 -20t19 -48q1 -28 -19 -46t-50 -19q-30 1 -50 19z"/>
<glyph glyph-name="cedilla.cap" d="M212 3h57l-17 -66q42 -3 68 -24t25 -65t-37 -66q-36 -24 -85 -24t-90 18l16 52q39 -13 67 -13q48 -1 48 37t-88 38z"/>
<glyph glyph-name="hungarumlaut.cap" d="M264 744l165 153l40 -34q17 -17 17 -27q0 -30 -36 -51l-157 -83zM56 744l165 153l40 -34q17 -17 17 -27q0 -30 -36 -51l-157 -83z"/>
<glyph glyph-name="commaaccent.cap" d="M143 -259l59 198l49 -10q38 -7 38 -38q0 -18 -14 -37l-86 -135z"/>
<glyph glyph-name="breve.cap" d="M352 874l66 -27q-42 -127 -170 -127t-162 126l67 28q31 -78 100 -78q37 0 59 18t40 60z"/>
<glyph horiz-adv-x="252" glyph-name="caron.alt" d="M143 694q40 0 40 -40q0 -12 -4 -26l-46 -159l-48 9v211l50 5h8z"/>
<glyph glyph-name="ogonek.cap" d="M227 6l105 -4q-104 -46 -104 -99q0 -38 41 -38q22 0 47 11l22 -66q-50 -24 -104 -24t-80 28t-26 69q0 43 27 71t72 52z"/>
</font>
</defs>
</svg>
