<?xml version="1.0" encoding="UTF-8" standalone="no"?>
<!DOCTYPE svg  PUBLIC '-//W3C//DTD SVG 1.1//EN'  'http://www.w3.org/Graphics/SVG/1.1/DTD/svg11.dtd'>
<svg version="1.1" xmlns="http://www.w3.org/2000/svg">
<defs>
<font id="PassionOne-Bold" horiz-adv-x="500">
<font-face underline-thickness="50" underline-position="-150" x-height="479" ascent="800" descent="-200" bbox="-42 -181.01 1285.03 832" font-family="PassionOne" units-per-em="1000" panose-1="2 0 5 6 5 0 0 2 0 4" unicode-range="U+0020-FB04" font-weight="700" cap-height="621"/>
<missing-glyph horiz-adv-x="190"/>
<glyph glyph-name=".notdef" horiz-adv-x="190"/>
<glyph glyph-name=".null" horiz-adv-x="0"/>
<glyph glyph-name="nonmarkingreturn" horiz-adv-x="333"/>
<glyph unicode=" " glyph-name="space" horiz-adv-x="190"/>
<glyph unicode="!" glyph-name="exclam" horiz-adv-x="330" d="M107 10q-22 20 -22 60q-1 40 21 60t77 20t76 -20t21 -60t-22 -60t-75 -20q-54 0 -76 20zM94 176l-12 445h200l-15 -445h-173z"/>
<glyph unicode='&quot;' glyph-name="quotedbl" horiz-adv-x="488" d="M286 636q24 20 78 19t77 -23t23 -75t-32 -91t-91 -74l-87 13l69 93q-33 7 -47 23q-14 15 -15 55q0 40 25 60zM68 636q24 20 78 19t77 -23t23 -75t-32 -91t-91 -74l-87 13l69 93q-33 7 -47 23q-14 15 -15 55q0 40 25 60z"/>
<glyph unicode="#" glyph-name="numbersign" horiz-adv-x="554" d="M293 317h-28l-7 -37h28zM534 312h-82l-5 -27h64v-136h-84l-23 -149h-159l21 149h-25l-23 -149h-167l25 149h-56v136h78l5 27h-59v134h78l25 146h162l-22 -146h23l22 146h162l-22 -146h62v-134z"/>
<glyph unicode="$" glyph-name="dollar" horiz-adv-x="527" d="M32 421q0 157 149 198v91h167v-83q90 -9 130 -16l-23 -176q-125 25 -164 25t-39 -24q0 -8 6 -12l9 -6t11 -5t14 -5t36 -16q30 -12 46 -20t43 -24q78 -51 78 -154q0 -70 -39 -122t-108 -70v-84h-167v77q-68 6 -131 22l14 169q134 -34 181 -34q31 0 31 22q0 10 -8 16 t-22 13t-42 19t-47 20t-45 26q-80 55 -80 153z"/>
<glyph unicode="%" glyph-name="percent" horiz-adv-x="929" d="M874 385q36 -53 35 -171q1 -118 -35 -171t-138 -53t-140 54q-36 54 -36 170t36 170t139 55q103 0 139 -54zM769 207v43q1 34 -3 43t-8 19t-20 10t-23 -6q-14 -10 -14 -96v-13q0 -61 4 -81q3 -20 11 -26t21 -6q22 0 27 24t5 89zM334 577q36 -53 35 -171q1 -118 -35 -171 t-138 -53t-140 54q-36 54 -36 170t36 170t139 55q103 0 139 -54zM229 399v43q1 34 -3 43t-8 19t-20 10t-23 -6q-14 -10 -14 -96v-13q0 -61 4 -81q3 -20 11 -26t21 -6q22 0 27 24t5 89zM638 621l-199 -621h-147l198 621h148z"/>
<glyph unicode="&amp;" glyph-name="ampersand" horiz-adv-x="694" d="M344 445q0 30 -30 30t-31 -28q-1 -13 3 -18t5 -7t5 -6l4 -4l6 -6t7 -5q19 14 25 22t6 22zM228 182q0 -49 51 -49h53v4l-86 87q-18 -11 -18 -42zM260 -10q-120 0 -176 44t-55 150q1 68 29 106t84 59q-50 56 -50 133q0 159 215 159t215 -163q0 -65 -24 -98t-94 -75l73 -79 h5v94h158v-73q0 -74 -53 -114v-4h85l-18 -139h-94q-71 0 -117 30h-7q-34 -18 -70 -24t-106 -6z"/>
<glyph unicode="&apos;" glyph-name="quotesingle" horiz-adv-x="252" d="M70 636q24 20 78 19t77 -23t23 -75t-32 -91t-91 -74l-87 13l69 93q-33 7 -47 23q-14 15 -15 55q0 40 25 60z"/>
<glyph unicode="(" glyph-name="parenleft" horiz-adv-x="388" d="M216 645l156 -48q-118 -157 -118 -337t118 -368l-162 -39q-90 89 -138 181t-48 218q0 127 47 220t145 173z"/>
<glyph unicode=")" glyph-name="parenright" horiz-adv-x="388" d="M316 470q48 -94 48 -218t-48 -218t-139 -181l-161 39q119 174 119 360t-119 344l157 49q95 -81 143 -175z"/>
<glyph unicode="*" glyph-name="asterisk" horiz-adv-x="467" d="M443 464l-92 -30l67 -91l-111 -64l-70 75l-67 -74l-111 64l56 89l-91 31l32 118l100 -22l10 97h139l8 -97l93 21z"/>
<glyph unicode="+" glyph-name="plus" horiz-adv-x="476" d="M157 84v125h-125v162h125v125h162v-125h125v-162h-125v-125h-162z"/>
<glyph unicode="," glyph-name="comma" horiz-adv-x="306" d="M80 132q24 20 78 19t77 -23t23 -75t-32 -91t-91 -74l-87 13l69 93q-33 7 -47 23q-14 15 -15 55q0 40 25 60z"/>
<glyph unicode="-" glyph-name="hyphen" horiz-adv-x="403" d="M371 179h-339v162h339v-162z"/>
<glyph unicode="." glyph-name="period" horiz-adv-x="291" d="M70 10q-22 20 -22 60t22 60t76 20q55 0 76 -20t21 -60q1 -40 -21 -60t-76 -20t-76 20z"/>
<glyph unicode="/" glyph-name="slash" horiz-adv-x="417" d="M432 616l-243 -758h-204l242 758h205z"/>
<glyph unicode="0" glyph-name="zero" horiz-adv-x="539" d="M509 447q10 -55 10 -137t-10 -138q-10 -55 -37 -98q-50 -84 -202 -84t-202 84q-28 43 -38 98t-10 137q0 81 10 137t37 100q52 85 203 85t202 -85q27 -44 37 -99zM319 300v19q0 121 -21 137q-11 8 -26 8t-23 -4t-13 -14t-8 -19q-6 -18 -6 -64v-63q0 -84 6 -114t16 -38 t29 -9q32 0 39 33t7 128z"/>
<glyph unicode="1" glyph-name="one" horiz-adv-x="325" d="M281 0h-207v452h-70v113l111 56h166v-621z"/>
<glyph unicode="2" glyph-name="two" horiz-adv-x="469" d="M4 586q118 45 228 45t166 -50q55 -50 55 -137q1 -87 -33 -146t-112 -140v-4h147v-154h-427l-10 108q10 10 45 44t47 46t38 40t38 43l30 45t20 66q0 48 -47 48q-44 0 -152 -29z"/>
<glyph unicode="3" glyph-name="three" horiz-adv-x="469" d="M4 580q106 51 218 51t168 -46q58 -46 58 -129q0 -46 -17 -76t-56 -52v-4q82 -36 82 -142q0 -92 -60 -142t-175 -50q-56 0 -98 9t-106 33l44 154q108 -33 137 -33q39 -1 39 43t-46 44h-88v140h87q34 0 34 40t-40 40q-28 0 -136 -37z"/>
<glyph unicode="4" glyph-name="four" horiz-adv-x="548" d="M271 259v130h-4l-70 -130h74zM540 117h-67v-117h-207v117h-242l-16 123l218 376h247v-353h75z"/>
<glyph unicode="5" glyph-name="five" horiz-adv-x="472" d="M456 212q0 -222 -227 -222q-107 0 -199 31l16 171q134 -35 162 -35t37 11t9 34q0 43 -29 43q-15 0 -23 -16l-171 20v367h395v-159h-200v-65q27 8 61 8q169 0 169 -188z"/>
<glyph unicode="6" glyph-name="six" horiz-adv-x="512" d="M311 393q93 1 145 -45t52 -146t-56 -156t-182 -56t-190 70t-64 206q0 189 102 277t337 88l-13 -164q-173 0 -209 -81q32 7 78 7zM266 250q-25 0 -42 -4q-2 -16 -2 -22q0 -89 51 -89q41 0 41 58q0 29 -12 43t-36 14z"/>
<glyph unicode="7" glyph-name="seven" horiz-adv-x="465" d="M461 519l-192 -519h-231l184 447h-220v169h459v-97z"/>
<glyph unicode="8" glyph-name="eight" horiz-adv-x="519" d="M263 479q-41 0 -41 -38q0 -20 11 -32t37 -29q37 29 37 54q0 45 -44 45zM261 131q41 0 41 41q0 20 -12 34t-41 31q-33 -26 -33 -53q0 -53 45 -53zM84 585q64 46 176 46t174 -44q63 -44 63 -123q0 -56 -17 -88t-59 -60v-4q84 -40 84 -132t-63 -141t-180 -49q-116 0 -182 47 t-66 136q0 52 20 83t64 51v4q-42 28 -60 62t-18 87q0 79 64 125z"/>
<glyph unicode="9" glyph-name="nine" horiz-adv-x="509" d="M197 219q-93 1 -143 47t-50 148t58 160t184 57q126 0 186 -65t61 -203q-1 -93 -23 -161t-72 -116q-100 -96 -347 -96l8 151q99 -1 147 19t67 65q-36 -6 -76 -6zM208 368q10 -14 36 -15q26 0 45 6v18q0 49 -9 71t-41 22q-42 0 -42 -56q1 -32 11 -46z"/>
<glyph unicode=":" glyph-name="colon" horiz-adv-x="291" d="M70 302q-22 20 -22 60t22 60t76 20q55 0 76 -20t21 -60q1 -40 -21 -60t-76 -20t-76 20zM70 10q-22 20 -22 60t22 60t76 20q55 0 76 -20t21 -60q1 -40 -21 -60t-76 -20t-76 20z"/>
<glyph unicode=";" glyph-name="semicolon" horiz-adv-x="306" d="M80 132q24 20 78 19t77 -23t23 -75t-32 -91t-91 -74l-87 13l69 93q-33 7 -47 23q-14 15 -15 55q0 40 25 60zM77 302q-22 20 -22 60q-1 40 21 60t77 20t76 -20t21 -60t-22 -60t-75 -20q-54 0 -76 20z"/>
<glyph unicode="&lt;" glyph-name="less" horiz-adv-x="499" d="M467 30l-435 177v154l435 172v-160l-238 -88l238 -96v-159z"/>
<glyph unicode="=" glyph-name="equal" horiz-adv-x="454" d="M418 93h-382v147h382v-147zM418 280h-382v147h382v-147z"/>
<glyph unicode="&gt;" glyph-name="greater" horiz-adv-x="499" d="M467 207l-435 -177v159l238 96l-238 88v160l435 -172v-154z"/>
<glyph unicode="?" glyph-name="question" horiz-adv-x="395" d="M83 10q-22 20 -22 60q-1 40 21 60t77 20t76 -20t21 -60t-22 -60t-75 -20q-54 0 -76 20zM383 444q0 -83 -41 -128q-21 -23 -43 -38t-57 -34v-68h-167v111q-1 32 13 52q14 19 45 33t43 24t11 27q0 29 -34 29q-20 0 -129 -21v174q95 21 168 21q191 0 191 -182z"/>
<glyph unicode="@" glyph-name="at" horiz-adv-x="957" d="M469 119q29 0 29 30v38q-52 -7 -52 -40q0 -28 23 -28zM458 -180q-434 0 -434 412q0 204 126 320t344 116t328 -104q111 -104 111 -285q0 -289 -266 -289q-51 0 -81 8t-55 31h-7q-48 -39 -120 -39t-110 38t-38 107q0 84 56 117t180 42v18q0 18 -19 18q-51 0 -175 -31 l-22 154q160 38 250 38t130 -34t39 -107l-6 -200q0 -22 24 -22q58 0 58 150q0 122 -64 186q-63 64 -219 64t-229 -73t-73 -222t72 -213t220 -64q90 0 210 15v-129q-110 -22 -230 -22z"/>
<glyph unicode="A" glyph-name="A" horiz-adv-x="563" d="M318 225l-38 208h-4l-39 -208h81zM563 0h-210l-20 96h-111l-21 -96h-201l129 621h305z"/>
<glyph unicode="B" glyph-name="B" horiz-adv-x="563" d="M310 374q8 12 8 42t-8 42q-8 13 -28 13h-29v-109h30q19 0 27 12zM318 136q9 12 9 48q1 36 -9 52t-36 16h-29v-128h29q27 0 36 12zM549 182q0 -182 -226 -182h-283v621h279q111 0 165 -40t54 -123t-70 -128v-4q81 -37 81 -144z"/>
<glyph unicode="C" glyph-name="C" horiz-adv-x="465" d="M253 192q17 -34 57 -34t133 22l32 -159q-98 -31 -189 -31q-138 0 -202 80t-64 236q0 158 66 242t215 83q87 0 174 -34l-33 -178q-100 29 -136 29t-53 -34t-17 -111t17 -111z"/>
<glyph unicode="D" glyph-name="D" horiz-adv-x="599" d="M344 191q15 35 15 117q-1 82 -17 116t-68 34h-21v-302h25q51 0 66 35zM577 324q0 -324 -296 -324h-241v621h246q159 -1 225 -77t66 -220z"/>
<glyph unicode="E" glyph-name="E" horiz-adv-x="461" d="M436 0h-396v621h410l-14 -165h-182v-75h159v-144h-159v-85h196z"/>
<glyph unicode="F" glyph-name="F" horiz-adv-x="440" d="M436 456h-182v-85h138v-144h-138v-227h-214v621h410z"/>
<glyph unicode="G" glyph-name="G" horiz-adv-x="592" d="M314 153q18 0 48 6v60h-50v138h236v-357h-151l-15 32h-4q-52 -42 -123 -42q-234 0 -234 316q-1 158 63 242t215 83q112 0 212 -31l-33 -188q-112 31 -160 31t-64 -32t-16 -109t14 -113t62 -36z"/>
<glyph unicode="H" glyph-name="H" horiz-adv-x="613" d="M573 0h-211v219h-108v-219h-214v621h214v-232h108v232h211v-621z"/>
<glyph unicode="I" glyph-name="I" horiz-adv-x="303" d="M257 0h-211v621h211v-621z"/>
<glyph unicode="J" glyph-name="J" horiz-adv-x="326" d="M282 621v-491q0 -80 -41 -110t-153 -30h-73l-11 148h50q10 0 14 4t4 13v466h210z"/>
<glyph unicode="K" glyph-name="K" horiz-adv-x="552" d="M552 0h-235l-63 206h-11v-206h-203v621h203v-246h11l79 246h229l-129 -323z"/>
<glyph unicode="L" glyph-name="L" horiz-adv-x="413" d="M413 0h-373v621h214v-460h173z"/>
<glyph unicode="M" glyph-name="M" horiz-adv-x="754" d="M716 0h-189v296h-5l-59 -296h-175l-58 296h-5v-296h-187l24 621h266l47 -281h9l46 281h263z"/>
<glyph unicode="N" glyph-name="N" horiz-adv-x="607" d="M567 0h-204l-126 245h-7v-245h-190v621h211l118 -253h6v253h192v-621z"/>
<glyph unicode="O" glyph-name="O" horiz-adv-x="609" d="M305 459q-43 0 -55 -25t-12 -107v-44q0 -84 13 -109t57 -25t55 24t11 107v46q0 82 -13 108t-56 25zM86 556q66 75 220 75q152 0 218 -74q66 -75 65 -241q1 -166 -67 -246t-218 -80t-218 79q-66 79 -66 245t66 242z"/>
<glyph unicode="P" glyph-name="P" horiz-adv-x="525" d="M312 393q0 38 -10 54t-35 16h-21v-140h26q24 0 32 16t8 54zM293 194h-43v-194h-210v621h242q123 0 179 -50t56 -165q0 -116 -54 -164t-170 -48z"/>
<glyph unicode="Q" glyph-name="Q" horiz-adv-x="613" d="M303 459q-43 0 -55 -25t-12 -107v-44q0 -84 13 -109t57 -25t55 24t11 107v46q0 82 -13 108t-56 25zM304 631q152 0 218 -74t65 -237q-1 -110 -29 -174t-94 -104v-4h142l-13 -141h-42q-97 0 -162 39l-89 54q-154 0 -218 82t-64 245q0 164 67 239t219 75z"/>
<glyph unicode="R" glyph-name="R" horiz-adv-x="563" d="M298 350q10 14 10 47q0 34 -10 47t-31 13h-26v-121h25q22 0 32 14zM531 421q1 -59 -19 -95t-61 -63l93 -263h-221l-62 214h-16v-214h-205v621h265q116 -1 171 -49t55 -151z"/>
<glyph unicode="S" glyph-name="S" horiz-adv-x="483" d="M70 576q60 55 166 55t220 -20l-23 -176q-125 25 -164 25t-39 -24q0 -8 6 -12l9 -6t11 -5t14 -5t36 -16q30 -12 46 -20t43 -24q78 -51 78 -150q0 -100 -59 -154q-60 -54 -170 -54t-216 27l14 169q134 -34 181 -34q31 0 31 22q0 10 -8 16t-22 13t-42 19t-47 20t-45 26 q-80 55 -80 154t60 154z"/>
<glyph unicode="T" glyph-name="T" horiz-adv-x="476" d="M474 452h-132v-452h-213v452h-139l9 169h487z"/>
<glyph unicode="U" glyph-name="U" horiz-adv-x="613" d="M260 220q0 -54 48 -54t49 55v400h214v-413q0 -110 -69 -164t-198 -54q-262 0 -262 216v415h218v-401z"/>
<glyph unicode="V" glyph-name="V" horiz-adv-x="574" d="M564 621l-120 -621h-307l-127 621h231l48 -381h12l43 381h220z"/>
<glyph unicode="W" glyph-name="W" horiz-adv-x="754" d="M734 621l-66 -621h-238l-47 252h-8l-40 -252h-238l-77 621h196l25 -285h9l38 285h189l42 -285h7l19 285h189z"/>
<glyph unicode="X" glyph-name="X" horiz-adv-x="573" d="M573 0h-229l-56 169h-9l-60 -169h-219l120 316l-108 305h233l46 -174h8l51 174h208l-100 -306z"/>
<glyph unicode="Y" glyph-name="Y" horiz-adv-x="536" d="M536 621l-164 -424v-197h-213v198l-159 423h225l44 -228h6l42 228h219z"/>
<glyph unicode="Z" glyph-name="Z" horiz-adv-x="527" d="M515 0h-470l-7 107l192 343h-207l-11 171h487l7 -105l-180 -357h189v-159z"/>
<glyph unicode="[" glyph-name="bracketleft" horiz-adv-x="379" d="M335 -137h-283v768h283v-141h-72v-487h72v-140z"/>
<glyph unicode="\" glyph-name="backslash" horiz-adv-x="417" d="M228 -142l-243 758h205l242 -758h-204z"/>
<glyph unicode="]" glyph-name="bracketright" horiz-adv-x="380" d="M328 -137h-284v140h74v487h-74v141h284v-768z"/>
<glyph unicode="^" glyph-name="asciicircum" d="M339 642l78 -131h-131l-35 52l-36 -52h-132l78 131h178z"/>
<glyph unicode="_" glyph-name="underscore" horiz-adv-x="400" d="M400 -137h-400v115h400v-115z"/>
<glyph unicode="`" glyph-name="grave" d="M237 517l-127 130h201l68 -130h-142z"/>
<glyph unicode="a" glyph-name="a" horiz-adv-x="499" d="M227 119q29 0 29 30v38q-52 -7 -52 -40q0 -28 23 -28zM453 350l-6 -200q1 -14 11 -18t37 -5l-19 -133q-60 -4 -81 -4q-73 0 -106 39h-7q-48 -39 -120 -39t-110 38t-38 107q0 84 56 117t180 42v18q0 18 -19 18q-51 0 -175 -31l-31 158q143 34 246 34t143 -34t39 -107z"/>
<glyph unicode="b" glyph-name="b" horiz-adv-x="522" d="M294 154q5 22 5 80q0 56 -6 80t-26 23q-13 0 -31 -8v-193q18 -4 32 -4q21 0 26 22zM507 251q1 -67 -7 -111t-28 -80q-39 -70 -155 -70q-72 0 -115 31l-8 -21h-164v641h201v-170q42 20 92 20q111 1 147 -55t37 -185z"/>
<glyph unicode="c" glyph-name="c" horiz-adv-x="397" d="M232 310q-8 -24 -8 -74t8 -72t38 -23q30 0 95 13l22 -139q-88 -25 -148 -25q-111 0 -167 64t-57 179q0 115 58 187t169 71q81 0 153 -27l-21 -158q-78 28 -106 28t-36 -24z"/>
<glyph unicode="d" glyph-name="d" horiz-adv-x="543" d="M230 316q-6 -23 -6 -80q0 -58 5 -80t25 -22t33 4v194q-17 7 -32 7q-19 0 -25 -23zM427 -10q-78 0 -107 39h-4q-46 -39 -109 -39q-104 0 -148 66t-44 187q1 121 49 185t139 63q52 0 84 -16v166h201v-491q0 -13 10 -18t33 -5l-18 -133q-52 -4 -86 -4z"/>
<glyph unicode="e" glyph-name="e" horiz-adv-x="501" d="M78 426q62 66 184 65q122 0 172 -50t50 -143q0 -37 -8 -112h-251q4 -54 66 -54q29 0 152 21l17 -135q-106 -28 -198 -28q-120 0 -184 66t-63 185t63 185zM258 330q-21 0 -29 -13t-8 -40h72v16q0 37 -35 37z"/>
<glyph unicode="f" glyph-name="f" horiz-adv-x="332" d="M210 648q67 0 149 -5l-16 -157q-67 6 -77 6t-10 -10v-17h85l-11 -135h-72v-330h-209v330h-48v135h48v48q0 135 161 135z"/>
<glyph unicode="g" glyph-name="g" horiz-adv-x="513" d="M197 -29h114q9 0 9 7v6q0 7 -9 7h-114q-7 0 -7 -7v-6q0 -7 7 -7zM250 338q-26 0 -26 -50t28 -50q26 0 26 49q0 27 -6 39t-22 12zM241 491h272v-122h-74v-4q31 -24 31 -71q0 -157 -202 -157h-63q-8 0 -8 -9t8 -9h159q128 0 128 -104q0 -162 -253 -162q-102 0 -158 23 t-56 83q0 33 35 49v4q-46 24 -46 80t76 87q-70 51 -70 139t58 130t163 43z"/>
<glyph unicode="h" glyph-name="h" horiz-adv-x="539" d="M366 491q136 0 136 -126v-365h-211v310q-1 16 -17 16t-36 -10v-316h-208v641h201v-192q61 42 135 42z"/>
<glyph unicode="i" glyph-name="i" horiz-adv-x="280" d="M33 570q0 85 107 85t107 -85q-1 -44 -27 -63t-80 -19t-80 18t-27 64zM245 0h-208v469h208v-469z"/>
<glyph unicode="j" glyph-name="j" horiz-adv-x="285" d="M37 570q0 85 107 85t107 -85q-1 -44 -27 -63t-80 -19t-80 18t-27 64zM250 469v-473q0 -78 -40 -108t-152 -30h-66l-17 149h50q12 0 15 3t3 12v447h207z"/>
<glyph unicode="k" glyph-name="k" horiz-adv-x="514" d="M522 0h-225l-58 157h-4v-157h-205v641h205v-330h4l70 168h217l-112 -249q20 -40 56 -118t52 -112z"/>
<glyph unicode="l" glyph-name="l" horiz-adv-x="286" d="M32 124v517h205v-471q0 -27 37 -27l-15 -153h-82q-145 0 -145 134z"/>
<glyph unicode="m" glyph-name="m" horiz-adv-x="795" d="M627 491q138 0 138 -136v-355h-211v310q0 16 -12 16q-16 0 -40 -10v-316h-211v310q0 16 -13 16q-18 0 -40 -10v-316h-208v479h189l6 -31q67 43 145 43t112 -48q68 48 145 48z"/>
<glyph unicode="n" glyph-name="n" horiz-adv-x="532" d="M362 491q140 0 140 -136v-355h-211v310q-1 16 -17 16t-36 -10v-316h-208v479h189l6 -31q63 43 137 43z"/>
<glyph unicode="o" glyph-name="o" horiz-adv-x="510" d="M256 344q-20 0 -26 -18t-6 -74v-24q0 -64 6 -82t26 -19q20 1 26 19t6 77v28q0 57 -6 75t-26 18zM74 432q58 59 182 59t182 -58q57 -59 57 -191q1 -132 -55 -192t-182 -60t-185 60q-58 60 -58 192q1 132 59 190z"/>
<glyph unicode="p" glyph-name="p" horiz-adv-x="522" d="M294 154q5 22 5 80q0 56 -6 80t-26 23q-13 0 -31 -8v-193q18 -4 32 -4q21 0 26 22zM312 -10q-37 0 -74 14v-141h-208v616h172l8 -22q47 34 113 34q108 1 146 -55t38 -190t-41 -194q-41 -62 -154 -62z"/>
<glyph unicode="q" glyph-name="q" horiz-adv-x="526" d="M230 316q-6 -23 -6 -80q0 -58 5 -80t23 -22t35 4v193q-20 8 -32 8q-19 0 -25 -23zM58 54q-44 64 -43 186t49 186t139 65q69 0 109 -34l9 22h172v-616h-208v145q-40 -18 -78 -18q-105 0 -149 64z"/>
<glyph unicode="r" glyph-name="r" horiz-adv-x="378" d="M238 268v-268h-206v479h178l6 -32h4q24 23 55 31t91 8l-6 -166h-68q-30 0 -42 -11t-12 -41z"/>
<glyph unicode="s" glyph-name="s" horiz-adv-x="403" d="M397 149q0 -159 -185 -159q-96 0 -186 21l13 147q125 -30 166 -30q14 0 14 9t-16 15q-103 35 -150 74t-47 112t52 113t138 40q88 0 193 -20l-21 -151q-132 26 -160 26q-13 0 -13 -10q0 -8 17 -14q83 -28 120 -54t51 -54t14 -65z"/>
<glyph unicode="t" glyph-name="t" horiz-adv-x="366" d="M205 -10q-79 0 -115 30t-36 101v217h-53v135h63l13 89h185v-89h91v-135h-92v-185q0 -13 12 -13q1 0 79 4l-6 -144q-100 -10 -141 -10z"/>
<glyph unicode="u" glyph-name="u" horiz-adv-x="539" d="M172 -10q-142 0 -142 136v353h210v-314q0 -16 14 -16t39 10v320h209v-477h-200v25h-6q-58 -37 -124 -37z"/>
<glyph unicode="v" glyph-name="v" horiz-adv-x="496" d="M500 479l-115 -479h-281l-116 479h217l40 -256h7l44 256h204z"/>
<glyph unicode="w" glyph-name="w" horiz-adv-x="668" d="M655 479l-70 -479h-223l-34 164h-5l-32 -164h-219l-70 479h194l18 -213h6l28 213h167l26 -213h7l20 213h187z"/>
<glyph unicode="x" glyph-name="x" horiz-adv-x="496" d="M255 356l24 123h214l-98 -243l101 -236h-221l-28 119h-6l-26 -119h-215l100 231q-4 12 -42 107t-57 141h227l21 -123h6z"/>
<glyph unicode="y" glyph-name="y" horiz-adv-x="503" d="M258 220q46 253 47 259h206l-139 -487q-20 -74 -64 -102t-143 -27h-120l-23 143h80q26 0 26 17q0 11 -5 28l-131 428h220l42 -259h4z"/>
<glyph unicode="z" glyph-name="z" horiz-adv-x="446" d="M434 0h-419l-5 113l157 209h-162v157h419l6 -105l-153 -225h157v-149z"/>
<glyph unicode="{" glyph-name="braceleft" horiz-adv-x="394" d="M350 -137h-133q-77 1 -111 31t-34 102v158q0 21 -10 25t-50 4v139q40 0 50 4t10 24v140q0 78 32 110t113 31h133v-144h-76v-158q0 -34 -9 -48t-33 -27v-6q22 -11 32 -27t10 -47v-172h76v-139z"/>
<glyph unicode="|" glyph-name="bar" horiz-adv-x="377" d="M287 -142h-197v758h197v-758z"/>
<glyph unicode="}" glyph-name="braceright" horiz-adv-x="394" d="M177 -137h-133v139h76v172q0 31 10 47t32 27v6q-24 13 -33 27t-9 48v158h-76v144h133q81 1 113 -31t32 -110v-140q0 -20 10 -24t50 -4v-139q-40 0 -50 -4t-10 -25v-158q0 -72 -34 -102t-111 -31z"/>
<glyph unicode="~" glyph-name="asciitilde" d="M433 657v-12q1 -66 -21 -101t-86 -35q-37 0 -111 26v-32h-133v13q0 68 22 102t80 34q30 0 116 -26v31h133z"/>
<glyph unicode=" " glyph-name="nbspace" horiz-adv-x="190"/>
<glyph unicode="¡" glyph-name="exclamdown" horiz-adv-x="330" d="M223 474q22 -20 22 -60q1 -40 -21 -60t-77 -20t-76 20t-21 60t22 60t75 20q54 0 76 -20zM236 308l12 -445h-200l15 445h173z"/>
<glyph unicode="¢" glyph-name="cent" horiz-adv-x="416" d="M238 310q-8 -24 -9 -74q0 -50 8 -72t38 -23q30 0 95 13l22 -139q-41 -12 -85 -20v-77h-167v91q-120 52 -120 222q0 83 30 145t90 92v104h167v-85q43 -5 93 -23l-21 -158q-77 28 -105 28t-36 -24z"/>
<glyph unicode="£" glyph-name="sterling" horiz-adv-x="601" d="M192 94q-19 22 -36 22t-17 -18t20 -19q20 0 33 15zM322 631q79 0 199 -30l-28 -172q-109 27 -117 27t-8 -8t18 -64h105l-12 -112h-78v-52q0 -59 -18 -96q34 -13 37 -14v75h179q-1 -113 -37 -167t-129 -54q-49 0 -81 8t-76 30h-4q-56 -24 -120 -24t-107 32t-43 96t34 96 t95 31q27 0 61 -8v47h-98v112h65q-24 50 -24 98q0 149 187 149z"/>
<glyph unicode="¤" glyph-name="currency" horiz-adv-x="779" d="M391 122q174 0 174 184q1 88 -43 136t-131 48q-172 0 -172 -185q0 -91 45 -137t127 -46zM84 76l-30 50l124 72q-17 54 -17 103t12 94l-125 73l31 53l120 -69q69 90 195 90t193 -88l114 67l30 -53l-117 -68q13 -45 13 -95t-20 -108l120 -71l-32 -51l-120 71 q-69 -74 -185 -74t-184 76q-43 -24 -122 -72z"/>
<glyph unicode="¥" glyph-name="yen" horiz-adv-x="536" d="M536 621l-115 -297h58v-109h-101l-6 -19h107v-107h-107v-89h-213v89h-109v107h109l-6 19h-103v109h61l-111 297h225l44 -228h6l42 228h219z"/>
<glyph unicode="¦" glyph-name="brokenbar" horiz-adv-x="377" d="M287 616v-291h-197v291h197zM287 -142h-197v319h197v-319z"/>
<glyph unicode="§" glyph-name="section" horiz-adv-x="495" d="M467 248q0 -83 -50 -149q11 -26 11 -67q0 -85 -52 -132t-150 -47q-74 0 -181 19l14 168q116 -27 167 -27q17 1 17 21q-1 20 -55 45t-104 67q-24 20 -40 53t-16 73q0 78 52 135q-14 28 -14 59q0 84 58 130t149 45q69 0 166 -16l-28 -163q-95 19 -139 19q-13 0 -13 -12 q-1 -16 53 -37t101 -60q23 -20 39 -52t15 -72zM187 313q0 -35 23 -55t99 -58q-1 32 -25 54t-97 59z"/>
<glyph unicode="¨" glyph-name="dieresis" d="M268 576q0 32 20 48t55 17q80 0 80 -65q1 -34 -19 -50t-61 -16q-75 0 -75 66zM82 576q0 32 20 48t55 17q80 0 80 -65q1 -34 -19 -50t-61 -16q-75 0 -75 66z"/>
<glyph unicode="©" glyph-name="copyright" horiz-adv-x="979" d="M160 546q112 106 339 106q226 0 339 -108t113 -314q1 -204 -111 -308t-344 -103q-232 -1 -340 103t-108 311t112 313zM708 442q-58 60 -202 60t-206 -62t-61 -208t59 -208t204 -62t205 62t59 210t-58 208zM487 141q13 -25 47 -25t96 15l19 -117q-77 -24 -146 -24 q-196 0 -196 233q0 117 49 179t159 62q68 0 134 -26l-20 -131q-68 19 -99 19q-32 0 -44 -24t-12 -80t13 -81z"/>
<glyph unicode="ª" glyph-name="ordfeminine" horiz-adv-x="416" d="M193 378q20 0 20 21v27q-36 -6 -36 -27t16 -21zM351 540l-4 -140q0 -16 33 -16l-13 -93q-31 -3 -57 -3q-50 0 -74 27h-5q-34 -27 -84 -27q-51 0 -77 27t-26 80t40 76t125 30v12q0 13 -13 13q-35 0 -123 -22l-22 111q101 24 173 24t100 -24t27 -75z"/>
<glyph unicode="«" glyph-name="guillemotleft" horiz-adv-x="585" d="M250 205v66l204 211l108 -69l-116 -171l119 -171l-117 -72zM4 205v66l204 211l108 -69l-116 -171l119 -171l-117 -72z"/>
<glyph unicode="¬" glyph-name="logicalnot" horiz-adv-x="488" d="M265 104v105h-233v162h412v-267h-179z"/>
<glyph unicode="®" glyph-name="registered" horiz-adv-x="999" d="M532 296q0 43 -31 43h-24v-90h24q15 0 23 10t8 37zM696 312q0 -46 -12 -72t-40 -45l58 -176q68 61 68 211t-62 211t-208 61q-145 0 -211 -64t-66 -206t64 -206q63 -64 195 -64t197 40h-142l-42 158h-15v-158h-152v458h201q85 0 126 -36t41 -112zM160 546q112 106 339 106 q226 0 339 -108t113 -314q1 -204 -111 -308t-344 -103q-232 -1 -340 103t-108 311t112 313z"/>
<glyph unicode="¯" glyph-name="macron" d="M413 521h-315v121h315v-121z"/>
<glyph unicode="°" glyph-name="degree" horiz-adv-x="344" d="M188 497q0 16 -4 22t-16 6q-20 -1 -20 -29t20 -28t20 29zM276 595q32 -31 32 -97t-32 -98q-32 -30 -106 -30t-106 30t-33 96q0 66 33 98t106 32q74 0 106 -31z"/>
<glyph unicode="±" glyph-name="plusminus" horiz-adv-x="476" d="M444 0h-412v152h412v-152zM157 181v95h-125v162h125v117h162v-117h125v-162h-125v-95h-162z"/>
<glyph unicode="²" glyph-name="twosuperior" horiz-adv-x="396" d="M37 599q81 32 159 32t116 -35t39 -96q1 -60 -23 -102t-78 -98v-3h102v-108h-298l-7 76q26 26 42 41t31 30q15 16 22 24t18 21q39 46 39 81t-33 35q-28 0 -106 -20z"/>
<glyph unicode="³" glyph-name="threesuperior" horiz-adv-x="405" d="M47 595q75 36 153 36q78 -1 118 -33t40 -90q0 -32 -12 -52t-40 -37v-3q58 -26 58 -95q0 -139 -165 -139q-66 0 -142 29l30 108q78 -23 96 -23q28 0 28 30t-33 31h-61v98h61q23 0 23 28t-28 28q-17 0 -95 -26z"/>
<glyph unicode="´" glyph-name="acute" d="M451 647l-139 -130h-139l64 130h214z"/>
<glyph unicode="µ" glyph-name="mu" horiz-adv-x="559" d="M32 -137v616h210v-306q0 -24 26 -24t27 24v306h209v-329q0 -13 10 -18t33 -5l-18 -133q-52 -4 -86 -4q-80 0 -121 41h-4q-29 -41 -83 -41v-127h-203z"/>
<glyph unicode="μ" glyph-name="mu" horiz-adv-x="559" d="M32 -137v616h210v-306q0 -24 26 -24t27 24v306h209v-329q0 -13 10 -18t33 -5l-18 -133q-52 -4 -86 -4q-80 0 -121 41h-4q-29 -41 -83 -41v-127h-203z"/>
<glyph unicode="¶" glyph-name="paragraph" horiz-adv-x="657" d="M584 -137h-168v615h-24v-615h-169v324q-97 3 -152 59t-55 160t68 164t188 59h312v-766z"/>
<glyph unicode="·" glyph-name="periodcentered" horiz-adv-x="394" d="M84 305q0 91 117 91q60 0 88 -22t28 -70q1 -50 -27 -70t-88 -20t-90 21q-28 21 -28 70z"/>
<glyph unicode="¸" glyph-name="cedilla" d="M378 -94q0 -74 -109 -74q-65 0 -109 30l37 71q46 -31 70 -31q7 0 7 6q0 4 -13 11l-26 12q-23 13 -23 33t22 36h89q-15 -15 -15 -21q0 -3 18 -10t34 -23q18 -16 18 -40z"/>
<glyph unicode="¹" glyph-name="onesuperior" horiz-adv-x="306" d="M238 186h-145v316h-49v79l77 40h117v-435z"/>
<glyph unicode="º" glyph-name="ordmasculine" horiz-adv-x="424" d="M231 524q-5 12 -19 12t-18 -12t-4 -53v-16q0 -45 4 -58t18 -13t19 13q4 13 4 54v20q0 41 -4 53zM84 598q40 42 128 41t128 -41t39 -132q0 -92 -39 -136q-39 -42 -127 -42t-129 42t-41 134t41 134z"/>
<glyph unicode="»" glyph-name="guillemotright" horiz-adv-x="585" d="M335 276v-66l-204 -211l-108 69l116 171l-119 171l117 72zM581 276v-66l-204 -211l-108 69l116 171l-119 171l117 72z"/>
<glyph unicode="¼" glyph-name="onequarter" horiz-adv-x="919" d="M683 181v91h-3l-49 -91h52zM871 82h-47v-82h-145v82h-169l-11 86l152 263h173v-247h53zM238 186h-145v316h-49v79l77 40h117v-435zM574 621l-199 -621h-147l198 621h148z"/>
<glyph unicode="½" glyph-name="onehalf" horiz-adv-x="896" d="M537 410q81 32 159 32t116 -35t39 -96t-23 -103t-78 -97v-3h102v-108h-298l-7 76q26 26 42 41t31 30t22 23t18 22q39 46 39 81t-33 35q-28 0 -106 -20zM238 186h-145v316h-49v79l77 40h117v-435zM574 621l-199 -621h-147l198 621h148z"/>
<glyph unicode="¾" glyph-name="threequarters" horiz-adv-x="981" d="M745 181v91h-3l-49 -91h52zM933 82h-47v-82h-145v82h-169l-11 86l152 263h173v-247h53zM47 595q75 36 153 36q78 -1 118 -33t40 -90q0 -32 -12 -52t-40 -37v-3q58 -26 58 -95q0 -139 -165 -139q-66 0 -142 29l30 108q78 -23 96 -23q28 0 28 30t-33 31h-61v98h61 q23 0 23 28t-28 28q-17 0 -95 -26zM649 621l-199 -621h-147l198 621h148z"/>
<glyph unicode="¿" glyph-name="questiondown" horiz-adv-x="395" d="M312 470q22 -20 22 -61t-22 -61t-76 -19q-55 -1 -76 19t-21 61q-1 41 21 61t76 19q54 1 76 -19zM12 35q0 83 40 127q22 24 44 39t57 34v68h167v-111q0 -32 -14 -52t-44 -34t-42 -23q-12 -10 -12 -27q0 -29 34 -29q20 0 129 21v-174q-94 -21 -168 -21q-191 0 -191 182z "/>
<glyph unicode="À" glyph-name="Agrave" horiz-adv-x="563" d="M240 651l-121 124h191l65 -124h-135zM318 225l-38 208h-4l-39 -208h81zM563 0h-210l-20 96h-111l-21 -96h-201l129 621h305z"/>
<glyph unicode="Á" glyph-name="Aacute" horiz-adv-x="563" d="M449 785l-132 -124h-132l61 124h203zM318 225l-38 208h-4l-39 -208h81zM563 0h-210l-20 96h-111l-21 -96h-201l129 621h305z"/>
<glyph unicode="Â" glyph-name="Acircumflex" horiz-adv-x="563" d="M363 780l74 -125h-124l-34 50l-34 -50h-125l74 125h169zM318 225l-38 208h-4l-39 -208h81zM563 0h-210l-20 96h-111l-21 -96h-201l129 621h305z"/>
<glyph unicode="Ã" glyph-name="Atilde" horiz-adv-x="563" d="M443 784v-11q0 -63 -20 -96t-81 -33q-34 0 -106 24v-30h-126v12q0 64 22 96t75 33q28 0 110 -24v29h126zM318 225l-38 208h-4l-39 -208h81zM563 0h-210l-20 96h-111l-21 -96h-201l129 621h305z"/>
<glyph unicode="Ä" glyph-name="Adieresis" horiz-adv-x="563" d="M294 706q0 62 74 63q74 -1 73 -63q1 -62 -73 -62t-74 62zM117 706q-1 62 73 63q74 -1 74 -63t-74 -62t-73 62zM318 225l-38 208h-4l-39 -208h81zM563 0h-210l-20 96h-111l-21 -96h-201l129 621h305z"/>
<glyph unicode="Å" glyph-name="Aring" horiz-adv-x="563" d="M277 672q-19 0 -19 -25t15 -26h7q16 1 16 26t-19 25zM315 225l-34 184h-4l-35 -184h73zM180 644q0 80 98 80t97 -75q0 -17 -4 -28h63l129 -621h-210l-20 96h-111l-21 -96h-201l129 621h54q-3 11 -3 23z"/>
<glyph unicode="Æ" glyph-name="AE" horiz-adv-x="764" d="M343 225v208h-4l-67 -208h71zM739 0h-396v96h-107l-33 -96h-208l220 621h538l-14 -165h-182v-75h159v-144h-159v-85h196z"/>
<glyph unicode="Ç" glyph-name="Ccedilla" horiz-adv-x="470" d="M443 419q-99 29 -135 29t-54 -34q-17 -34 -17 -111t17 -111t57 -34t133 22l32 -159q-84 -26 -160 -30q-6 -6 -6 -12q0 -3 18 -10t34 -23q18 -16 18 -40q0 -74 -109 -74q-65 0 -109 30l37 71q46 -31 70 -31q7 0 7 6q0 4 -13 11l-26 12q-23 13 -23 32t14 31 q-108 16 -158 94t-49 228q0 148 66 232t215 83q87 0 174 -34z"/>
<glyph unicode="È" glyph-name="Egrave" horiz-adv-x="461" d="M206 651l-121 124h191l65 -124h-135zM436 0h-396v621h410l-14 -165h-182v-75h159v-144h-159v-85h196z"/>
<glyph unicode="É" glyph-name="Eacute" horiz-adv-x="461" d="M425 775l-132 -124h-132l61 124h203zM436 0h-396v621h410l-14 -165h-182v-75h159v-144h-159v-85h196z"/>
<glyph unicode="Ê" glyph-name="Ecircumflex" horiz-adv-x="461" d="M332 770l74 -125h-124l-34 50l-34 -50h-125l74 125h169zM436 0h-396v621h410l-14 -165h-182v-75h159v-144h-159v-85h196z"/>
<glyph unicode="Ë" glyph-name="Edieresis" horiz-adv-x="461" d="M261 706q-1 62 73 63q74 -1 74 -63t-74 -62t-73 62zM84 706q0 62 74 63q74 -1 73 -63q1 -62 -73 -62t-74 62zM436 0h-396v621h410l-14 -165h-182v-75h159v-144h-159v-85h196z"/>
<glyph unicode="Ì" glyph-name="Igrave" horiz-adv-x="303" d="M113 661l-121 124h191l65 -124h-135zM257 0h-211v621h211v-621z"/>
<glyph unicode="Í" glyph-name="Iacute" horiz-adv-x="303" d="M326 785l-132 -124h-132l61 124h203zM258 0h-211v621h211v-621z"/>
<glyph unicode="Î" glyph-name="Icircumflex" horiz-adv-x="303" d="M241 780l74 -125h-124l-34 50l-34 -50h-125l74 125h169zM259 0h-211v621h211v-621z"/>
<glyph unicode="Ï" glyph-name="Idieresis" horiz-adv-x="303" d="M170 716q0 62 74 63q74 -1 73 -63q1 -62 -73 -62t-74 62zM-7 716q-1 62 73 63q74 -1 74 -63t-74 -62t-73 62zM261 0h-211v621h211v-621z"/>
<glyph unicode="Ð" glyph-name="Eth" horiz-adv-x="599" d="M298 235h-45v-79h25q51 0 66 35t15 117q-1 82 -17 116t-68 34h-21v-85h45v-138zM577 324q0 -324 -296 -324h-241v235h-49v138h49v248h246q159 -1 225 -77t66 -220z"/>
<glyph unicode="Ñ" glyph-name="Ntilde" horiz-adv-x="607" d="M469 784v-11q0 -63 -20 -96t-81 -33q-34 0 -106 24v-30h-126v12q0 64 22 96t75 33q28 0 110 -24v29h126zM567 0h-204l-126 245h-7v-245h-190v621h211l118 -253h6v253h192v-621z"/>
<glyph unicode="Ò" glyph-name="Ograve" horiz-adv-x="609" d="M245 661l-121 124h191l65 -124h-135zM305 459q-43 0 -55 -25t-12 -107v-44q0 -84 13 -109t57 -25t55 24t11 107v46q0 82 -13 108t-56 25zM86 556q66 75 220 75q152 0 218 -74q66 -75 65 -241q1 -166 -67 -246t-218 -80t-218 79q-66 79 -66 245t66 242z"/>
<glyph unicode="Ó" glyph-name="Oacute" horiz-adv-x="609" d="M489 785l-132 -124h-132l61 124h203zM305 459q-43 0 -55 -25t-12 -107v-44q0 -84 13 -109t57 -25t55 24t11 107v46q0 82 -13 108t-56 25zM86 556q66 75 220 75q152 0 218 -74q66 -75 65 -241q1 -166 -67 -246t-218 -80t-218 79q-66 79 -66 245t66 242z"/>
<glyph unicode="Ô" glyph-name="Ocircumflex" horiz-adv-x="609" d="M389 780l74 -125h-124l-34 50l-34 -50h-125l74 125h169zM305 459q-43 0 -55 -25t-12 -107v-44q0 -84 13 -109t57 -25t55 24t11 107v46q0 82 -13 108t-56 25zM86 556q66 75 220 75q152 0 218 -74q66 -75 65 -241q1 -166 -67 -246t-218 -80t-218 79q-66 79 -66 245t66 242z "/>
<glyph unicode="Õ" glyph-name="Otilde" horiz-adv-x="609" d="M462 794v-11q0 -63 -20 -96t-81 -33q-34 0 -106 24v-30h-126v12q-1 64 21 96t76 33q28 0 110 -24v29h126zM305 459q-43 0 -55 -25t-12 -107v-44q0 -84 13 -109t57 -25t55 24t11 107v46q0 82 -13 108t-56 25zM86 556q66 75 220 75q152 0 218 -74q66 -75 65 -241 q1 -166 -67 -246t-218 -80t-218 79q-66 79 -66 245t66 242z"/>
<glyph unicode="Ö" glyph-name="Odieresis" horiz-adv-x="609" d="M318 706q0 62 74 63q74 -1 73 -63q1 -62 -73 -62t-74 62zM141 706q-1 62 73 63q74 -1 74 -63t-74 -62t-73 62zM305 459q-43 0 -55 -25t-12 -107v-44q0 -84 13 -109t57 -25t55 24t11 107v46q0 82 -13 108t-56 25zM86 556q66 75 220 75q152 0 218 -74q66 -75 65 -241 q1 -166 -67 -246t-218 -80t-218 79q-66 79 -66 245t66 242z"/>
<glyph unicode="×" glyph-name="multiply" horiz-adv-x="470" d="M32 202l88 88l-88 88l115 115l88 -88l88 88l115 -115l-88 -88l88 -88l-115 -115l-88 88l-88 -88z"/>
<glyph unicode="Ø" glyph-name="Oslash" horiz-adv-x="609" d="M305 459q-43 0 -55 -25t-12 -107v-44q0 -84 13 -109t57 -25t55 24t11 107v46q0 82 -13 108t-56 25zM302 -10l-30 1l-27 -60h-212l59 131q-72 76 -72 248t66 246q66 75 220 75q15 0 43 -2l24 52h209l-57 -126q64 -73 64 -239q1 -166 -67 -246t-220 -80z"/>
<glyph unicode="Ù" glyph-name="Ugrave" horiz-adv-x="601" d="M245 651l-121 124h191l65 -124h-135zM254 220q0 -54 48 -54t49 55v400h214v-413q0 -110 -69 -164t-198 -54q-262 0 -262 216v415h218v-401z"/>
<glyph unicode="Ú" glyph-name="Uacute" horiz-adv-x="601" d="M500 775l-132 -124h-132l61 124h203zM254 220q0 -54 48 -54t49 55v400h214v-413q0 -110 -69 -164t-198 -54q-262 0 -262 216v415h218v-401z"/>
<glyph unicode="Û" glyph-name="Ucircumflex" horiz-adv-x="601" d="M385 770l74 -125h-124l-34 50l-34 -50h-125l74 125h169zM254 220q0 -54 48 -54t49 55v400h214v-413q0 -110 -69 -164t-198 -54q-262 0 -262 216v415h218v-401z"/>
<glyph unicode="Ü" glyph-name="Udieresis" horiz-adv-x="601" d="M316 706q0 62 74 63q74 -1 73 -63q1 -62 -73 -62t-74 62zM139 706q-1 62 73 63q74 -1 74 -63t-74 -62t-73 62zM254 220q0 -54 48 -54t49 55v400h214v-413q0 -110 -69 -164t-198 -54q-262 0 -262 216v415h218v-401z"/>
<glyph unicode="Ý" glyph-name="Yacute" horiz-adv-x="536" d="M465 775l-132 -124h-132l61 124h203zM536 621l-164 -424v-197h-213v198l-159 423h225l44 -228h6l42 228h219z"/>
<glyph unicode="Þ" glyph-name="Thorn" horiz-adv-x="516" d="M299 316q1 38 -9 54t-36 16h-8v-140h13q23 0 31 16t9 54zM280 114h-30v-114h-210v621h210v-80h19q123 0 179 -50t56 -165q0 -116 -54 -164t-170 -48z"/>
<glyph unicode="ß" glyph-name="germandbls" horiz-adv-x="567" d="M259 459v-459h-210v330h-48v135h48v8q0 176 242 176q123 0 185 -48t62 -138q0 -47 -14 -74t-47 -50v-5q84 -38 84 -148q0 -192 -196 -192q-39 0 -88 6v145q15 -1 28 -1q46 0 46 47q-1 31 -19 43t-55 12v137q53 1 53 53t-42 52q-29 0 -29 -29z"/>
<glyph unicode="à" glyph-name="agrave" horiz-adv-x="501" d="M219 517l-127 130h201l68 -130h-142zM227 119q29 0 29 30v38q-52 -7 -52 -40q0 -28 23 -28zM453 350l-6 -200q1 -14 11 -18t37 -5l-19 -133q-60 -4 -81 -4q-73 0 -106 39h-7q-48 -39 -120 -39t-110 38t-38 107q0 84 56 117t180 42v18q0 18 -19 18q-51 0 -175 -31l-31 158 q143 34 246 34t143 -34t39 -107z"/>
<glyph unicode="á" glyph-name="aacute" horiz-adv-x="501" d="M455 647l-139 -130h-139l64 130h214zM227 119q29 0 29 30v38q-52 -7 -52 -40q0 -28 23 -28zM453 350l-6 -200q1 -14 11 -18t37 -5l-19 -133q-60 -4 -81 -4q-73 0 -106 39h-7q-48 -39 -120 -39t-110 38t-38 107q0 84 56 117t180 42v18q0 18 -19 18q-51 0 -175 -31l-31 158 q143 34 246 34t143 -34t39 -107z"/>
<glyph unicode="â" glyph-name="acircumflex" horiz-adv-x="501" d="M335 642l78 -131h-131l-35 52l-36 -52h-132l78 131h178zM227 119q29 0 29 30v38q-52 -7 -52 -40q0 -28 23 -28zM453 350l-6 -200q1 -14 11 -18t37 -5l-19 -133q-60 -4 -81 -4q-73 0 -106 39h-7q-48 -39 -120 -39t-110 38t-38 107q0 84 56 117t180 42v18q0 18 -19 18 q-51 0 -175 -31l-31 158q143 34 246 34t143 -34t39 -107z"/>
<glyph unicode="ã" glyph-name="atilde" horiz-adv-x="501" d="M417 657v-12q1 -66 -21 -101t-86 -35q-37 0 -111 26v-32h-133v13q0 68 22 102t80 34q30 0 116 -26v31h133zM227 119q29 0 29 30v38q-52 -7 -52 -40q0 -28 23 -28zM453 350l-6 -200q1 -14 11 -18t37 -5l-19 -133q-60 -4 -81 -4q-73 0 -106 39h-7q-48 -39 -120 -39t-110 38 t-38 107q0 84 56 117t180 42v18q0 18 -19 18q-51 0 -175 -31l-31 158q143 34 246 34t143 -34t39 -107z"/>
<glyph unicode="ä" glyph-name="adieresis" horiz-adv-x="501" d="M259 576q0 32 20 48t55 17q80 0 80 -65q0 -34 -20 -50t-60 -16q-75 0 -75 66zM73 576q0 32 20 48t55 17q80 0 80 -65q0 -34 -20 -50t-60 -16q-75 0 -75 66zM227 119q29 0 29 30v38q-52 -7 -52 -40q0 -28 23 -28zM453 350l-6 -200q1 -14 11 -18t37 -5l-19 -133 q-60 -4 -81 -4q-73 0 -106 39h-7q-48 -39 -120 -39t-110 38t-38 107q0 84 56 117t180 42v18q0 18 -19 18q-51 0 -175 -31l-31 158q143 34 246 34t143 -34t39 -107z"/>
<glyph unicode="å" glyph-name="aring" horiz-adv-x="501" d="M143 584q1 84 103 84t102 -79q0 -84 -103 -84q-50 0 -76 21t-26 58zM245 614q-20 0 -20 -27t20 -27t20 27t-20 27zM227 119q29 0 29 30v38q-52 -7 -52 -40q0 -28 23 -28zM453 350l-6 -200q1 -14 11 -18t37 -5l-19 -133q-60 -4 -81 -4q-73 0 -106 39h-7q-48 -39 -120 -39 t-110 38t-38 107q0 84 56 117t180 42v18q0 18 -19 18q-51 0 -175 -31l-31 158q143 34 246 34t143 -34t39 -107z"/>
<glyph unicode="æ" glyph-name="ae" horiz-adv-x="731" d="M488 330q-37 0 -37 -53h72v15q0 38 -35 38zM227 119q29 0 29 30v38q-52 -7 -52 -40q0 -28 23 -28zM491 491q119 0 171 -50t52 -143q0 -31 -8 -112h-251q4 -55 65 -55q48 0 153 22l17 -135q-106 -28 -202 -28t-155 49q-75 -49 -173 -49q-70 0 -108 38t-38 107q0 84 56 117 t180 42v18q0 18 -19 18q-51 0 -175 -31l-31 158q143 34 255 34q62 0 101 -25q43 25 110 25z"/>
<glyph unicode="ç" glyph-name="ccedilla" horiz-adv-x="394" d="M239 491q81 0 153 -27l-21 -158q-77 28 -105 28t-36 -24t-9 -74q0 -50 8 -72t38 -23q30 0 95 13l22 -139q-76 -23 -131 -25q-5 -6 -5 -10t18 -11t34 -23q18 -16 18 -40q0 -74 -109 -74q-65 0 -109 30l37 71q46 -31 70 -31q7 0 7 6q0 4 -13 11l-26 12q-23 13 -23 32t18 34 q-78 18 -118 79t-40 155q0 117 58 189t169 71z"/>
<glyph unicode="è" glyph-name="egrave" horiz-adv-x="498" d="M223 517l-127 130h201l68 -130h-142zM74 426q62 66 184 65q122 0 172 -50t51 -143q0 -37 -8 -112h-251q4 -54 66 -54q29 0 152 21l17 -135q-106 -28 -198 -28q-119 0 -183 66t-64 185t62 185zM255 330q-21 0 -29 -13t-8 -40h72v16q0 37 -35 37z"/>
<glyph unicode="é" glyph-name="eacute" horiz-adv-x="498" d="M455 647l-139 -130h-139l64 130h214zM74 426q62 66 184 65q122 0 172 -50t51 -143q0 -37 -8 -112h-251q4 -54 66 -54q29 0 152 21l17 -135q-106 -28 -198 -28q-119 0 -183 66t-64 185t62 185zM255 330q-21 0 -29 -13t-8 -40h72v16q0 37 -35 37z"/>
<glyph unicode="ê" glyph-name="ecircumflex" horiz-adv-x="498" d="M345 642l78 -131h-131l-35 52l-36 -52h-132l78 131h178zM74 426q62 66 184 65q122 0 172 -50t51 -143q0 -37 -8 -112h-251q4 -54 66 -54q29 0 152 21l17 -135q-106 -28 -198 -28q-119 0 -183 66t-64 185t62 185zM255 330q-21 0 -29 -13t-8 -40h72v16q0 37 -35 37z"/>
<glyph unicode="ë" glyph-name="edieresis" horiz-adv-x="498" d="M272 576q0 32 20 48t55 17q80 0 80 -65q1 -34 -19 -50t-61 -16q-75 0 -75 66zM86 576q0 32 20 48t55 17q80 0 80 -65q1 -34 -19 -50t-61 -16q-75 0 -75 66zM74 426q62 66 184 65q122 0 172 -50t51 -143q0 -37 -8 -112h-251q4 -54 66 -54q29 0 152 21l17 -135 q-106 -28 -198 -28q-119 0 -183 66t-64 185t62 185zM255 330q-21 0 -29 -13t-8 -40h72v16q0 37 -35 37z"/>
<glyph unicode="ì" glyph-name="igrave" horiz-adv-x="280" d="M97 517l-127 130h201l68 -130h-142zM245 0h-208v469h208v-469z"/>
<glyph unicode="í" glyph-name="iacute" horiz-adv-x="280" d="M319 647l-139 -130h-139l64 130h214zM246 0h-208v469h208v-469z"/>
<glyph unicode="î" glyph-name="icircumflex" horiz-adv-x="280" d="M230 642l78 -131h-131l-35 52l-36 -52h-132l78 131h178zM246 0h-208v469h208v-469z"/>
<glyph unicode="ï" glyph-name="idieresis" horiz-adv-x="280" d="M158 576q0 32 20 48t55 17q80 0 80 -65q1 -34 -19 -50t-61 -16q-75 0 -75 66zM-28 576q0 32 20 48t55 17q80 0 80 -65q1 -34 -19 -50t-61 -16q-75 0 -75 66zM245 0h-208v469h208v-469z"/>
<glyph unicode="ð" glyph-name="eth" horiz-adv-x="521" d="M289 266q-6 17 -27 17t-28 -22q-7 -23 -7 -65q1 -42 7 -59t27 -17t27 22t7 64q0 43 -6 60zM215 400q38 0 61 -4l4 4q-13 30 -40 47l-116 -53v97l15 9v4q-22 4 -74 4v147q137 0 237 -34l111 50v-117l-18 -11q111 -97 111 -278q0 -131 -62 -203t-186 -72q-122 0 -182 52 t-61 166q-1 94 51 143t149 49z"/>
<glyph unicode="ñ" glyph-name="ntilde" horiz-adv-x="539" d="M437 657v-12q1 -66 -21 -101t-86 -35q-37 0 -111 26v-32h-133v13q0 68 22 102t80 34q30 0 116 -26v31h133zM362 491q140 0 140 -136v-355h-211v310q-1 16 -17 16t-36 -10v-316h-208v479h189l6 -31q63 43 137 43z"/>
<glyph unicode="ò" glyph-name="ograve" horiz-adv-x="504" d="M218 517l-127 130h201l68 -130h-142zM253 344q-21 0 -27 -18t-5 -74v-24q-1 -64 5 -82t27 -19q21 1 27 19t5 77v28q1 57 -5 75t-27 18zM70 432q58 59 184 59q124 0 181 -58q57 -59 57 -191t-56 -192t-182 -60t-184 60t-58 192t58 190z"/>
<glyph unicode="ó" glyph-name="oacute" horiz-adv-x="504" d="M445 647l-139 -130h-139l64 130h214zM253 344q-21 0 -27 -18t-5 -74v-24q-1 -64 5 -82t27 -19q21 1 27 19t5 77v28q1 57 -5 75t-27 18zM70 432q58 59 184 59q124 0 181 -58q57 -59 57 -191t-56 -192t-182 -60t-184 60t-58 192t58 190z"/>
<glyph unicode="ô" glyph-name="ocircumflex" horiz-adv-x="504" d="M342 642l78 -131h-131l-35 52l-36 -52h-132l78 131h178zM253 344q-21 0 -27 -18t-5 -74v-24q-1 -64 5 -82t27 -19q21 1 27 19t5 77v28q1 57 -5 75t-27 18zM70 432q58 59 184 59q124 0 181 -58q57 -59 57 -191t-56 -192t-182 -60t-184 60t-58 192t58 190z"/>
<glyph unicode="õ" glyph-name="otilde" horiz-adv-x="504" d="M423 657v-12q1 -66 -21 -101t-86 -35q-37 0 -111 26v-32h-133v13q0 68 22 102t80 34q30 0 116 -26v31h133zM253 344q-21 0 -27 -18t-5 -74v-24q-1 -64 5 -82t27 -19q21 1 27 19t5 77v28q1 57 -5 75t-27 18zM70 432q58 59 184 59q124 0 181 -58q57 -59 57 -191t-56 -192 t-182 -60t-184 60t-58 192t58 190z"/>
<glyph unicode="ö" glyph-name="odieresis" horiz-adv-x="504" d="M268 576q0 32 20 48t55 17q80 0 80 -65q1 -34 -19 -50t-61 -16q-75 0 -75 66zM82 576q0 32 20 48t55 17q80 0 80 -65q1 -34 -19 -50t-61 -16q-75 0 -75 66zM253 344q-21 0 -27 -18t-5 -74v-24q-1 -64 5 -82t27 -19q21 1 27 19t5 77v28q1 57 -5 75t-27 18zM70 432 q58 59 184 59q124 0 181 -58q57 -59 57 -191t-56 -192t-182 -60t-184 60t-58 192t58 190z"/>
<glyph unicode="÷" glyph-name="divide" horiz-adv-x="476" d="M444 209h-412v162h412v-162zM166 428q-22 20 -22 61t22 61t76 19q55 1 76 -19t21 -61q1 -41 -21 -61t-76 -19q-54 -1 -76 19zM166 30q-22 20 -22 61t22 61t76 19q55 1 76 -19t21 -61q1 -41 -21 -61t-76 -19q-54 -1 -76 19z"/>
<glyph unicode="ø" glyph-name="oslash" horiz-adv-x="510" d="M256 344q-20 0 -26 -18t-6 -74v-24q0 -64 6 -82t26 -19q20 1 26 19t6 77v28q0 57 -6 75t-26 18zM258 491q19 0 29 -1l26 58h169l-49 -110q62 -60 62 -194q1 -134 -55 -194t-182 -60q-17 0 -25 1l-27 -60h-172l49 109q-68 58 -68 196q1 138 59 196q58 59 184 59z"/>
<glyph unicode="ù" glyph-name="ugrave" horiz-adv-x="539" d="M217 517l-127 130h201l68 -130h-142zM172 -10q-142 0 -142 136v353h210v-314q0 -16 14 -16t39 10v320h209v-477h-200v25h-6q-58 -37 -124 -37z"/>
<glyph unicode="ú" glyph-name="uacute" horiz-adv-x="539" d="M475 647l-139 -130h-139l64 130h214zM172 -10q-142 0 -142 136v353h210v-314q0 -16 14 -16t39 10v320h209v-477h-200v25h-6q-58 -37 -124 -37z"/>
<glyph unicode="û" glyph-name="ucircumflex" horiz-adv-x="539" d="M354 642l78 -131h-131l-35 52l-36 -52h-132l78 131h178zM172 -10q-142 0 -142 136v353h210v-314q0 -16 14 -16t39 10v320h209v-477h-200v25h-6q-58 -37 -124 -37z"/>
<glyph unicode="ü" glyph-name="udieresis" horiz-adv-x="539" d="M280 576q0 32 20 48t55 17q80 0 80 -65q1 -34 -19 -50t-61 -16q-75 0 -75 66zM94 576q0 32 20 48t55 17q80 0 80 -65q1 -34 -19 -50t-61 -16q-75 0 -75 66zM172 -10q-142 0 -142 136v353h210v-314q0 -16 14 -16t39 10v320h209v-477h-200v25h-6q-58 -37 -124 -37z"/>
<glyph unicode="ý" glyph-name="yacute" horiz-adv-x="519" d="M469 647l-139 -130h-139l64 130h214zM266 220q46 253 47 259h206l-139 -487q-20 -74 -64 -102t-143 -27h-120l-23 143h80q26 0 26 17q0 11 -5 28l-131 428h220l42 -259h4z"/>
<glyph unicode="þ" glyph-name="thorn" horiz-adv-x="519" d="M294 154q5 22 5 80q0 56 -6 80t-26 23q-13 0 -31 -8v-193q18 -4 32 -4q21 0 26 22zM312 -10q-37 0 -74 14v-141h-208v778h201v-171q40 21 92 21q108 1 146 -55t38 -190t-41 -194q-41 -62 -154 -62z"/>
<glyph unicode="ÿ" glyph-name="ydieresis" horiz-adv-x="519" d="M273 576q0 32 20 48t55 17q80 0 80 -65q0 -34 -20 -50t-60 -16q-75 0 -75 66zM87 576q0 32 20 48t55 17q80 0 80 -65q0 -34 -20 -50t-60 -16q-75 0 -75 66zM266 220q46 253 47 259h206l-139 -487q-20 -74 -64 -102t-143 -27h-120l-23 143h80q26 0 26 17q0 11 -5 28 l-131 428h220l42 -259h4z"/>
<glyph unicode="ħ" glyph-name="hbar" horiz-adv-x="539" d="M366 491q136 0 136 -126v-365h-211v310q-1 16 -17 16t-36 -10v-316h-208v506h-30v101h30v34h201v-34h74v-101h-74v-57q61 42 135 42z"/>
<glyph unicode="Ĩ" glyph-name="Itilde" horiz-adv-x="303" d="M327 799v-12q1 -66 -21 -101t-86 -35q-37 0 -111 26v-32h-133v13q0 68 22 102t80 34q30 0 116 -26v31h133zM257 0h-211v621h211v-621z"/>
<glyph unicode="ĩ" glyph-name="itilde" horiz-adv-x="280" d="M316 657v-12q0 -66 -22 -101t-85 -35q-37 0 -111 26v-32h-133v13q1 68 23 102t79 34q30 0 116 -26v31h133zM244 0h-208v469h208v-469z"/>
<glyph unicode="ı" glyph-name="dotlessi" horiz-adv-x="280" d="M244 0h-208v469h208v-469z"/>
<glyph unicode="Ĳ" glyph-name="IJ" horiz-adv-x="624" d="M580 621v-491q0 -80 -41 -110t-153 -30h-73l-11 148h50q10 0 14 4t4 13v466h210zM257 0h-211v621h211v-621z"/>
<glyph unicode="ĳ" glyph-name="ij" horiz-adv-x="565" d="M307 570q0 85 107 85t107 -85q-1 -44 -27 -63t-80 -19t-80 18t-27 64zM33 570q0 85 107 85t107 -85q-1 -44 -27 -63t-80 -19t-80 18t-27 64zM519 469v-473q-1 -78 -41 -108t-151 -30h-66l-16 142h-208v469h208v-462h49q12 0 15 3t3 12v447h207z"/>
<glyph unicode="Ĵ" glyph-name="Jcircumflex" horiz-adv-x="326" d="M262 784l78 -131h-131l-35 52l-36 -52h-132l78 131h178zM282 621v-491q0 -80 -41 -110t-153 -30h-73l-11 148h50q10 0 14 4t4 13v466h210z"/>
<glyph unicode="ĵ" glyph-name="jcircumflex" horiz-adv-x="285" d="M232 642l78 -131h-131l-35 52l-36 -52h-132l78 131h178zM250 469v-473q0 -78 -40 -108t-152 -30h-66l-17 149h50q12 0 15 3t3 12v447h207z"/>
<glyph unicode="ķ" glyph-name="kcommaaccent" horiz-adv-x="514" d="M261 -10q38 0 60 -17t22 -47q0 -56 -81 -90l-75 9l42 42q-50 9 -50 48q0 55 82 55zM522 0h-225l-58 157h-4v-157h-205v641h205v-330h4l70 168h217l-112 -249q20 -40 56 -118t52 -112z"/>
<glyph unicode="ĸ" glyph-name="kgreenlandic" horiz-adv-x="519" d="M523 0h-217l-62 170h-4v-170h-210v479h210v-191h4q46 111 60 128t30 34q42 41 136 41h30l-7 -191q-23 0 -37 -12t-32 -44z"/>
<glyph unicode="Ŀ" glyph-name="Ldotaccent" horiz-adv-x="486" d="M282 333q0 85 107 85t107 -85q0 -44 -26 -63t-81 -19q-55 1 -81 19t-26 63zM413 0h-373v621h214v-460h173z"/>
<glyph unicode="ŀ" glyph-name="ldot" horiz-adv-x="515" d="M270 305q0 91 117 91q60 0 88 -22t28 -70q1 -50 -27 -70t-88 -20t-90 21q-28 21 -28 70zM32 124v517h205v-471q0 -27 37 -27l-15 -153h-82q-145 0 -145 134z"/>
<glyph unicode="Ł" glyph-name="Lslash" horiz-adv-x="421" d="M421 0h-373v155l-40 -24v157l40 24v309h214v-180l48 29v-156l-48 -29v-124h173z"/>
<glyph unicode="ł" glyph-name="lslash" horiz-adv-x="286" d="M32 124v46l-32 -19v157l32 19v314h205v-190l36 22v-156l-36 -22v-125q0 -27 37 -27l-15 -153h-82q-145 0 -145 134z"/>
<glyph unicode="Ń" glyph-name="Nacute" horiz-adv-x="607" d="M492 789l-139 -130h-139l64 130h214zM567 0h-204l-126 245h-7v-245h-190v621h211l118 -253h6v253h192v-621z"/>
<glyph unicode="ń" glyph-name="nacute" horiz-adv-x="532" d="M455 647l-139 -130h-139l64 130h214zM362 491q140 0 140 -136v-355h-211v310q-1 16 -17 16t-36 -10v-316h-208v479h189l6 -31q63 43 137 43z"/>
<glyph unicode="Œ" glyph-name="OE" horiz-adv-x="794" d="M356 442q-14 17 -54 17t-52 -25t-12 -107v-44q0 -84 13 -109t53 -25t53 15t16 61v150q-3 50 -17 67zM769 0h-370q-48 -10 -97 -10q-150 0 -216 79t-66 245t66 242q66 75 220 75q52 0 100 -10h377l-14 -165h-182v-75h159v-144h-159v-85h196z"/>
<glyph unicode="œ" glyph-name="oe" horiz-adv-x="775" d="M532 330q-37 0 -37 -53h72v15q0 38 -35 38zM256 344q-20 0 -26 -18t-6 -74v-24q0 -64 6 -82t26 -19q20 1 26 19t6 77v28q0 57 -6 75t-26 18zM258 491q86 0 139 -28q56 28 138 28q119 0 171 -50t52 -143q0 -31 -8 -112h-251q4 -55 65 -55q48 0 153 22l17 -135 q-106 -28 -190 -28t-142 30q-54 -30 -144 -30q-127 0 -185 60t-58 192q1 132 59 190q58 59 184 59z"/>
<glyph unicode="Ŕ" glyph-name="Racute" horiz-adv-x="563" d="M441 789l-139 -130h-139l64 130h214zM298 350q10 14 10 47q0 34 -10 47t-31 13h-26v-121h25q22 0 32 14zM531 421q1 -59 -19 -95t-61 -63l93 -263h-221l-62 214h-16v-214h-205v621h265q116 -1 171 -49t55 -151z"/>
<glyph unicode="Ŗ" glyph-name="Rcommaaccent" horiz-adv-x="563" d="M291 -10q38 0 60 -17t22 -47q0 -56 -81 -90l-75 9l42 42q-50 9 -50 48q0 55 82 55zM298 350q10 14 10 47q0 34 -10 47t-31 13h-26v-121h25q22 0 32 14zM531 421q1 -59 -19 -95t-61 -63l93 -263h-221l-62 214h-16v-214h-205v621h265q116 -1 171 -49t55 -151z"/>
<glyph unicode="ŗ" glyph-name="rcommaaccent" horiz-adv-x="378" d="M169 -10q38 0 60 -17t22 -47q0 -56 -81 -90l-75 9l42 42q-50 9 -50 48q0 55 82 55zM238 268v-268h-206v479h178l6 -32h4q24 23 55 31t91 8l-6 -166h-68q-30 0 -42 -11t-12 -41z"/>
<glyph unicode="Ř" glyph-name="Rcaron" horiz-adv-x="563" d="M160 657l-78 131h131l35 -52l36 52h132l-78 -131h-178zM298 350q10 14 10 47q0 34 -10 47t-31 13h-26v-121h25q22 0 32 14zM531 421q1 -59 -19 -95t-61 -63l93 -263h-221l-62 214h-16v-214h-205v621h265q116 -1 171 -49t55 -151z"/>
<glyph unicode="ř" glyph-name="rcaron" horiz-adv-x="378" d="M100 515l-78 131h131l35 -52l36 52h132l-78 -131h-178zM238 268v-268h-206v479h178l6 -32h4q24 23 55 31t91 8l-6 -166h-68q-30 0 -42 -11t-12 -41z"/>
<glyph unicode="Š" glyph-name="Scaron" horiz-adv-x="487" d="M150 649l-74 125h124l34 -50l34 50h125l-74 -125h-169zM69 576q61 55 167 55t219 -20l-23 -176q-125 25 -164 25t-39 -24q0 -8 6 -12l9 -6q4 -2 12 -5t14 -5t36 -16q30 -12 46 -20t42 -24q78 -51 78 -150q0 -100 -59 -154t-169 -54t-217 27l14 169q134 -34 181 -34 q31 0 31 22q1 10 -7 16t-22 13t-43 19q-28 12 -47 20t-44 26q-81 55 -81 154t60 154z"/>
<glyph unicode="š" glyph-name="scaron" horiz-adv-x="403" d="M110 515l-78 131h131l35 -52l36 52h132l-78 -131h-178zM397 149q0 -159 -185 -159q-96 0 -186 21l13 147q125 -30 166 -30q14 0 14 9t-16 15q-103 35 -150 74t-47 112t52 113t138 40q88 0 193 -20l-21 -151q-132 26 -160 26q-13 0 -13 -10q0 -8 17 -14q83 -28 120 -54 t51 -54t14 -65z"/>
<glyph unicode="Ÿ" glyph-name="Ydieresis" horiz-adv-x="536" d="M285 716q-1 62 73 63q74 -1 74 -63t-74 -62t-73 62zM108 716q0 62 74 63q74 -1 73 -63q1 -62 -73 -62t-74 62zM536 621l-164 -424v-197h-213v198l-159 423h225l44 -228h6l42 228h219z"/>
<glyph unicode="Ž" glyph-name="Zcaron" horiz-adv-x="533" d="M188 649l-74 125h124l34 -50l34 50h125l-74 -125h-169zM518 0h-470l-7 107l192 343h-207l-11 171h487l7 -105l-180 -357h189v-159z"/>
<glyph unicode="ž" glyph-name="zcaron" horiz-adv-x="446" d="M128 515l-78 131h131l35 -52l36 52h132l-78 -131h-178zM434 0h-419l-5 113l157 209h-162v157h419l6 -105l-153 -225h157v-149z"/>
<glyph unicode="ƒ" glyph-name="florin" horiz-adv-x="422" d="M-1 18q42 -7 53 -7t12 8l27 295h-63l12 111h60l6 57q10 80 50 120t126 39q47 0 122 -11l-22 -169l-59 9q-7 0 -9 -11l-3 -34h69l-12 -111h-67l-28 -305q-8 -80 -50 -118t-127 -38q-42 0 -106 11z"/>
<glyph unicode="ˆ" glyph-name="circumflex" d="M339 642l78 -131h-131l-35 52l-36 -52h-132l78 131h178z"/>
<glyph unicode="ˇ" glyph-name="caron" d="M161 515l-78 131h131l35 -52l36 52h132l-78 -131h-178z"/>
<glyph unicode="˘" glyph-name="breve" d="M252 614q23 0 23 46h135q-4 -162 -162 -162t-158 162h137q0 -46 25 -46z"/>
<glyph unicode="˙" glyph-name="dotaccent" d="M154 570q0 85 107 85t107 -85q0 -44 -26 -63t-81 -19t-81 18t-26 64z"/>
<glyph unicode="˚" glyph-name="ring" d="M151 584q1 84 103 84t102 -79q0 -84 -103 -84q-50 0 -76 21t-26 58zM253 614q-20 0 -20 -27t20 -27t20 27t-20 27z"/>
<glyph unicode="˛" glyph-name="ogonek" horiz-adv-x="570" d="M175 -96q0 49 66 96h109q-54 -56 -54 -77q0 -5 10 -5t41 19l30 -70q-50 -35 -111 -35q-91 0 -91 72z"/>
<glyph unicode="˜" glyph-name="tilde" d="M433 657v-12q1 -66 -21 -101t-86 -35q-37 0 -111 26v-32h-133v13q0 68 22 102t80 34q30 0 116 -26v31h133z"/>
<glyph unicode="˝" glyph-name="hungarumlaut" d="M501 656l-146 -136h-112l87 136h171zM303 656l-130 -136h-111l80 136h161z"/>
<glyph unicode="̇" glyph-name="dotaccentcmb" d="M142 570q0 85 107 85t107 -85q0 -44 -26 -63t-81 -19t-81 18t-26 64z"/>
<glyph unicode="Δ" glyph-name="Delta" horiz-adv-x="563" d="M234 180h91l-45 247h-5zM0 0l129 621h305l129 -621h-563z"/>
<glyph unicode="∆" glyph-name="Delta" horiz-adv-x="563" d="M234 180h91l-45 247h-5zM0 0l129 621h305l129 -621h-563z"/>
<glyph unicode="Ω" glyph-name="Omega" horiz-adv-x="631" d="M315 631q281 0 281 -283q0 -68 -18 -114t-60 -85v-4h81v-145h-274v135q56 55 56 186q0 80 -13 109t-56 29q-43 -1 -55 -29t-12 -108q0 -130 59 -187v-135h-270v145h75v7q-77 71 -77 214q0 265 283 265z"/>
<glyph unicode="Ω" glyph-name="Omega" horiz-adv-x="631" d="M315 631q281 0 281 -283q0 -68 -18 -114t-60 -85v-4h81v-145h-274v135q56 55 56 186q0 80 -13 109t-56 29q-43 -1 -55 -29t-12 -108q0 -130 59 -187v-135h-270v145h75v7q-77 71 -77 214q0 265 283 265z"/>
<glyph unicode="π" glyph-name="pi" horiz-adv-x="557" d="M515 0h-211v327h-53v-327h-208v327h-43v152h557v-152h-42v-327z"/>
<glyph unicode="–" glyph-name="endash" horiz-adv-x="407" d="M32 167v162h343v-162h-343z"/>
<glyph unicode="—" glyph-name="emdash" horiz-adv-x="600" d="M32 167v162h536v-162h-536z"/>
<glyph unicode="‘" glyph-name="quoteleft" horiz-adv-x="270" d="M202 412q-24 -20 -78 -20t-77 23t-23 75t32 92q32 38 91 73l87 -13l-69 -93q33 -7 47 -23t15 -56q0 -38 -25 -58z"/>
<glyph unicode="’" glyph-name="quoteright" horiz-adv-x="270" d="M68 636q24 20 78 19t77 -23t23 -75t-32 -91t-91 -74l-87 13l69 93q-33 7 -47 23q-14 15 -15 55q0 40 25 60z"/>
<glyph unicode="‚" glyph-name="quotesinglbase" horiz-adv-x="270" d="M56 128q24 20 78 20t77 -23t23 -75t-32 -92q-32 -38 -91 -73l-87 13l69 93q-33 7 -47 23t-15 56q0 38 25 58z"/>
<glyph unicode="“" glyph-name="quotedblleft" horiz-adv-x="488" d="M202 412q-24 -20 -78 -20t-77 23t-23 75t32 92q32 38 91 73l87 -13l-69 -93q33 -7 47 -23t15 -56q0 -38 -25 -58zM420 412q-24 -20 -78 -20t-77 23t-23 75t32 92q32 38 91 73l87 -13l-69 -93q33 -7 47 -23t15 -56q0 -38 -25 -58z"/>
<glyph unicode="”" glyph-name="quotedblright" horiz-adv-x="488" d="M286 636q24 20 78 19t77 -23t23 -75t-32 -91t-91 -74l-87 13l69 93q-33 7 -47 23q-14 15 -15 55q0 40 25 60zM68 636q24 20 78 19t77 -23t23 -75t-32 -91t-91 -74l-87 13l69 93q-33 7 -47 23q-14 15 -15 55q0 40 25 60z"/>
<glyph unicode="„" glyph-name="quotedblbase" horiz-adv-x="488" d="M274 128q24 20 78 20t77 -23t23 -75t-32 -92q-32 -38 -91 -73l-87 13l69 93q-33 7 -47 23t-15 56q0 38 25 58zM56 128q24 20 78 20t77 -23t23 -75t-32 -92q-32 -38 -91 -73l-87 13l69 93q-33 7 -47 23t-15 56q0 38 25 58z"/>
<glyph unicode="†" glyph-name="dagger" horiz-adv-x="449" d="M22 323v156h109v128h182v-128h114v-156h-114v-460h-182v460h-109z"/>
<glyph unicode="‡" glyph-name="daggerdbl" horiz-adv-x="449" d="M22 0v156h109v167h-109v156h109v128h182v-128h114v-156h-114v-167h114v-156h-114v-137h-182v137h-109z"/>
<glyph unicode="•" glyph-name="bullet" horiz-adv-x="413" d="M114 209q-32 31 -32 95t30 95t96 31q64 0 94 -30t29 -94q0 -127 -122 -127q-63 0 -95 30z"/>
<glyph unicode="…" glyph-name="ellipsis" horiz-adv-x="775" d="M563 10q-22 20 -22 60q-1 40 21 60t77 20t76 -20t21 -60t-22 -60t-75 -20q-54 0 -76 20zM318 10q-22 20 -22 60t22 60t76 20q55 0 76 -20t21 -60q1 -40 -21 -60t-76 -20t-76 20zM70 10q-22 20 -22 60t22 60t76 20q55 0 76 -20t21 -60q1 -40 -21 -60t-76 -20t-76 20z"/>
<glyph unicode="‰" glyph-name="perthousand" horiz-adv-x="1305" d="M1250 385q36 -53 35 -171q1 -118 -35 -171t-138 -53t-140 54q-36 54 -36 170t36 170t139 55q103 0 139 -54zM1145 207v43q1 34 -3 43t-8 19t-20 10t-23 -6q-14 -10 -14 -96v-13q0 -61 4 -81q3 -20 11 -26t21 -6q22 0 27 24t5 89zM874 385q36 -53 35 -171q1 -118 -35 -171 t-138 -53t-140 54q-36 54 -36 170t36 170t139 55q103 0 139 -54zM769 207v43q1 34 -3 43t-8 19t-20 10t-23 -6q-14 -10 -14 -96v-13q0 -61 4 -81q3 -20 11 -26t21 -6q22 0 27 24t5 89zM334 577q36 -53 35 -171q1 -118 -35 -171t-138 -53t-140 54q-36 54 -36 170t36 170 t139 55q103 0 139 -54zM229 399v43q1 34 -3 43t-8 19t-20 10t-23 -6q-14 -10 -14 -96v-13q0 -61 4 -81q3 -20 11 -26t21 -6q22 0 27 24t5 89zM638 621l-199 -621h-147l198 621h148z"/>
<glyph unicode="‹" glyph-name="guilsinglleft" horiz-adv-x="339" d="M4 205v66l204 211l108 -69l-116 -171l119 -171l-117 -72z"/>
<glyph unicode="›" glyph-name="guilsinglright" horiz-adv-x="339" d="M335 276v-66l-204 -211l-108 69l116 171l-119 171l117 72z"/>
<glyph unicode="⁄" glyph-name="fraction" horiz-adv-x="417" d="M432 616l-243 -758h-204l242 758h205z"/>
<glyph unicode="€" glyph-name="Euro" horiz-adv-x="531" d="M16 408h55q43 223 276 223q83 0 166 -30l-26 -168q-103 15 -130 15q-44 0 -57 -40h184l-13 -99h-191v-19h190l-12 -98h-165q15 -35 69 -35q16 0 110 10l26 -154q-87 -23 -166 -23q-105 0 -171 53t-87 149h-58v98h50v19h-50v99z"/>
<glyph unicode="™" glyph-name="trademark" horiz-adv-x="656" d="M269 526h-62v-250h-118v250h-69l6 95h249zM636 276h-109v155h-6l-14 -155h-106l-14 155h-6v-155h-106l12 345h150l17 -149h4l15 149h149z"/>
<glyph unicode="∂" glyph-name="partialdiff" horiz-adv-x="531" d="M294 266q-6 17 -27 17t-28 -22q-7 -23 -7 -65t6 -59t28 -17t28 22t6 64q0 43 -6 60zM220 400q38 0 61 -4l4 4q-60 64 -215 64v167q230 1 336 -85t105 -281q-1 -131 -63 -203t-184 -72t-184 52q-60 52 -60 166q0 94 52 143t148 49z"/>
<glyph unicode="∏" glyph-name="product" horiz-adv-x="611" d="M280 0h-211v452h-69v169h611v-169h-65v-452h-211v452h-55v-452z"/>
<glyph unicode="∑" glyph-name="summation" horiz-adv-x="520" d="M496 450h-154l81 -106v-67l-98 -118h183v-159h-478l-7 124l152 180l-163 182l5 135h479v-171z"/>
<glyph unicode="−" glyph-name="minus" horiz-adv-x="476" d="M444 209h-412v162h412v-162z"/>
<glyph unicode="√" glyph-name="radical" horiz-adv-x="598" d="M283 163l135 669h376l-24 -162h-185l-210 -812h-213l-162 621h217l59 -316h7z"/>
<glyph unicode="∞" glyph-name="infinity" horiz-adv-x="726" d="M222 325q-28 0 -28 -58t28 -58q34 0 68 58q-35 58 -68 58zM502 325q-33 0 -67 -61q34 -55 67 -55q30 0 30 58t-30 58zM211 463q81 0 144 -75h5q32 36 66 56t86 19q92 1 137 -51t45 -143q0 -197 -182 -197q-86 0 -147 76h-9q-32 -36 -64 -56t-81 -20q-91 0 -135 50 t-44 143q0 92 49 145t130 53z"/>
<glyph unicode="∫" glyph-name="integral" horiz-adv-x="441" d="M117 162l19 429q6 121 63 181t189 60h95l-10 -162q-79 0 -103 -24t-26 -94l-21 -449q-7 -139 -65 -192t-209 -53h-91l16 174q48 0 76 6t42 22q14 18 19 39q4 21 6 63z"/>
<glyph unicode="≈" glyph-name="approxequal" horiz-adv-x="492" d="M444 454v-13q0 -71 -24 -109t-99 -38q-44 0 -128 28v-34h-153v14q0 72 26 110t92 37q33 0 133 -28v33h153zM452 263v-13q0 -71 -24 -109t-99 -38q-44 0 -128 28v-34h-153v14q0 72 26 109t92 37q35 0 133 -28v34h153z"/>
<glyph unicode="≠" glyph-name="notequal" horiz-adv-x="454" d="M418 93h-168l-16 -48h-164l16 48h-50v147h101l13 40h-114v147h164l27 77h165l-27 -77h53v-147h-103l-14 -40h117v-147z"/>
<glyph unicode="≤" glyph-name="lessequal" horiz-adv-x="499" d="M467 0h-435v145h435v-145zM467 152l-435 147v154l435 152v-160l-238 -68l238 -66v-159z"/>
<glyph unicode="≥" glyph-name="greaterequal" horiz-adv-x="499" d="M467 0h-435v145h435v-145zM467 299l-435 -147v159l238 66l-238 68v160l435 -152v-154z"/>
<glyph unicode="◊" glyph-name="lozenge" horiz-adv-x="577" d="M369 296l-81 165l-80 -165l80 -166zM537 296l-188 -351h-124l-185 351l187 351h122z"/>
<glyph unicode="ﬀ" glyph-name="ff" horiz-adv-x="628" d="M506 648q67 0 149 -5l-16 -157q-67 6 -77 6t-10 -10v-17h85l-11 -135h-72v-330h-209v330h-87v-330h-209v330h-48v135h48v48q0 135 161 135q39 0 129 -4l-14 -155q-39 3 -59 3q-10 0 -10 -10v-17h89v48q0 135 161 135z"/>
<glyph unicode="ﬁ" glyph-name="fi" horiz-adv-x="589" d="M341 570q0 85 107 85t107 -85q-1 -44 -27 -63t-80 -19t-80 18t-27 64zM553 0h-208v330h-87v-330h-209v330h-48v135h48v48q0 135 161 135q62 0 121 -3l-12 -156q-39 3 -51 3t-12 -10v-17h297v-465z"/>
<glyph unicode="ﬂ" glyph-name="fl" horiz-adv-x="599" d="M345 124v206h-87v-330h-209v330h-48v135h48v48q0 135 161 135q37 0 121 -7l-12 -152q-35 3 -49 3t-14 -10v-17h89v176h205v-471q0 -27 37 -27l-15 -153h-82q-145 0 -145 134z"/>
<glyph unicode="ﬃ" glyph-name="ffi" horiz-adv-x="885" d="M637 570q0 85 107 85t107 -85q-1 -44 -27 -63t-80 -19t-80 18t-27 64zM850 0h-208v330h-87v-330h-209v330h-88v-330h-209v330h-48v135h48v48q0 135 161 135q39 0 129 -4l-14 -155q-39 3 -59 3q-10 0 -10 -10v-17h90v48q0 135 161 135q63 0 121 -3l-12 -156q-39 3 -51 3 t-12 -10v-17h297v-465z"/>
<glyph unicode="ﬄ" glyph-name="ffl" horiz-adv-x="895" d="M506 648q37 0 121 -7l-12 -152q-35 3 -49 3t-14 -10v-17h89v176h205v-471q0 -27 37 -27l-15 -153h-82q-145 0 -145 134v206h-87v-330h-209v330h-87v-330h-209v330h-48v135h48v48q0 135 161 135q39 0 129 -4l-14 -155q-39 3 -59 3q-10 0 -10 -10v-17h89v48q0 135 161 135z "/>
<glyph glyph-name="fj" horiz-adv-x="587" d="M339 570q0 85 107 85t107 -85q-1 -44 -27 -63t-80 -19t-80 18t-27 64zM553 465v-469q-1 -78 -41 -108t-151 -30h-66l-17 149h50q12 0 15 3t3 12v308h-88v-330h-209v330h-48v135h48v48q0 135 161 135q64 0 121 -3l-12 -156q-39 3 -51 3t-12 -10v-17h297z"/>
<glyph glyph-name="commaaccent" d="M252 -10q38 0 60 -17t22 -47q0 -56 -81 -90l-75 9l42 42q-50 9 -50 48q0 55 82 55z"/>
<glyph glyph-name="foundryicon" horiz-adv-x="1241" d="M668 73q27 5 66 31q40 26 78 66t66 96t27 118q0 60 -30 98t-85 39q-83 0 -114 -84h-16q-31 84 -114 84q-54 0 -84 -39t-30 -106q0 -24 5 -51h198v-52h-180q33 -77 99 -135t114 -65zM186 157l-146 143l146 141l40 -32l-88 -84h248q-6 30 -6 62q0 82 42 132t113 50 q49 -1 79 -17t54 -51q46 68 136 68q71 0 112 -50t41 -132q0 -27 -7 -62h201v116h50v-284h-50v116h-216q-40 -102 -131 -176q-90 -74 -138 -74q-48 -1 -137 73t-128 177h-262l87 -85z"/>
<glyph glyph-name="CR" horiz-adv-x="0"/>
</font>
</defs>
</svg>
