<?xml version="1.0" encoding="UTF-8" standalone="no"?>
<!DOCTYPE svg  PUBLIC '-//W3C//DTD SVG 1.1//EN'  'http://www.w3.org/Graphics/SVG/1.1/DTD/svg11.dtd'>
<svg version="1.1" xmlns="http://www.w3.org/2000/svg">
<defs>
<font id="PassionOne-Regular" horiz-adv-x="500">
<font-face ascent="800" panose-1="2 0 5 6 8 0 0 2 0 4" font-weight="400" font-family="PassionOne" units-per-em="1000" x-height="479" bbox="-35 -198 1201 835" underline-position="-150" unicode-range="U+0020-FB04" descent="-200" cap-height="621" underline-thickness="50"/>
<missing-glyph horiz-adv-x="210"/>
<glyph horiz-adv-x="210" glyph-name=".notdef"/>
<glyph horiz-adv-x="0" glyph-name=".null"/>
<glyph horiz-adv-x="333" glyph-name="nonmarkingreturn"/>
<glyph unicode=" " horiz-adv-x="210" glyph-name="space"/>
<glyph unicode="!" horiz-adv-x="298" glyph-name="exclam" d="M78 68q0 40 21 60t67 19q46 1 67 -19t21 -62q0 -77 -88 -77t-88 79zM91 190l-11 431h170l-14 -431h-145z"/>
<glyph unicode='&quot;' horiz-adv-x="437" glyph-name="quotedbl" d="M334 641q89 -1 89 -91t-126 -169l-59 22l62 81l-2 5q-53 11 -53 73q0 79 89 79zM134 641q89 -1 89 -91t-126 -169l-59 22l62 81l-2 5q-53 11 -53 73q0 79 89 79z"/>
<glyph unicode="#" horiz-adv-x="496" glyph-name="numbersign" d="M271 328h-39l-9 -55h39zM472 322h-78l-8 -43h65v-125h-81l-20 -154h-126l18 154h-29l-23 -154h-132l23 154h-57v125h74l8 43h-60v123h75l22 151h130l-20 -151h27l20 151h130l-20 -151h62v-123z"/>
<glyph unicode="$" horiz-adv-x="459" glyph-name="dollar" d="M54 339q-22 40 -22 104q0 65 36 115t100 66v94h132v-90q50 -4 112 -15l-20 -160q-99 23 -136 23q-47 0 -47 -38q1 -15 23 -29q22 -13 54 -29t64 -38t54 -61t23 -103q-1 -64 -33 -114t-94 -65v-78h-132v72q-64 7 -119 26l11 149q107 -31 149 -31t42 37q-1 19 -23 35 t-54 32t-64 37q-34 21 -56 61z"/>
<glyph unicode="%" horiz-adv-x="811" glyph-name="percent" d="M779 215q0 -117 -31 -171q-32 -54 -120 -54t-120 54t-31 171q0 117 31 171t120 53q89 0 120 -53t31 -171zM667 211v11q0 60 -4 80q-5 20 -13 27t-22 7t-22 -7t-12 -25q-4 -23 -4 -82v-11q0 -67 4 -89t13 -28t23 -7q14 1 22 7t10 26q5 25 5 91zM334 407q0 -117 -31 -171 t-119 -54t-120 54t-32 171t31 171t120 53q89 0 120 -53t31 -171zM222 403v11q0 60 -4 80t-12 27t-23 7q-14 0 -22 -7t-11 -25q-5 -23 -5 -82v-11q1 -67 5 -89t12 -28t22 -7q14 1 22 7t12 26q4 25 4 91zM554 631l-180 -641h-117l179 641h118z"/>
<glyph unicode="&amp;" horiz-adv-x="609" glyph-name="ampersand" d="M313 459q-1 37 -35 37t-34 -35q0 -26 33 -59q16 14 21 20q15 14 15 37zM249 123h61v4l-94 114q-25 -21 -25 -53q0 -65 58 -65zM389 25q-65 -35 -159 -35t-146 49t-52 143q0 66 27 104t79 65q-49 61 -49 137q1 156 185 156t184 -156q0 -66 -25 -104t-88 -74l76 -95h4 q12 25 12 69v43h132v-34q0 -111 -59 -171v-7h82l-10 -125h-51q-54 0 -82 7t-60 28z"/>
<glyph unicode="&apos;" horiz-adv-x="237" glyph-name="quotesingle" d="M134 641q89 -1 89 -91t-126 -169l-59 22l62 81l-2 5q-53 11 -53 73q0 79 89 79z"/>
<glyph unicode="(" horiz-adv-x="330" glyph-name="parenleft" d="M190 649l124 -53q-103 -156 -103 -336t103 -352l-128 -43q-80 88 -121 176t-41 214q0 236 166 394z"/>
<glyph unicode=")" horiz-adv-x="330" glyph-name="parenright" d="M16 596l124 53q166 -158 166 -394q0 -126 -41 -214t-121 -176l-128 43q103 172 103 352t-103 336z"/>
<glyph unicode="*" horiz-adv-x="424" glyph-name="asterisk" d="M404 446l-97 -36l72 -93l-90 -60l-73 84l-69 -83l-91 60l59 93l-95 36l27 98l102 -22l10 99h110l9 -100l97 20z"/>
<glyph unicode="+" horiz-adv-x="482" glyph-name="plus" d="M430 231h-126v-135h-130v135h-122v126h122v136h130v-136h126v-126z"/>
<glyph unicode="," horiz-adv-x="304" glyph-name="comma" d="M166 148q93 0 93 -92q0 -36 -20 -68t-42 -52t-63 -49l-59 22l63 83l-2 5q-54 15 -54 71q0 80 84 80z"/>
<glyph unicode="-" horiz-adv-x="403" glyph-name="hyphen" d="M355 193h-307v134h307v-134z"/>
<glyph unicode="." horiz-adv-x="296" glyph-name="period" d="M75 68q0 40 21 60t67 19q46 1 67 -19t21 -62q0 -77 -88 -77t-88 79z"/>
<glyph unicode="/" horiz-adv-x="361" glyph-name="slash" d="M371 621l-216 -768h-165l215 768h166z"/>
<glyph unicode="0" horiz-adv-x="473" glyph-name="zero" d="M454 311q0 -83 -8 -138t-32 -99q-45 -84 -176 -84q-129 0 -174 84q-23 44 -32 100t-9 137q1 168 45 244t170 76q132 0 176 -83q24 -44 32 -99t8 -138zM294 306v15q0 99 -6 115t-11 28q-11 20 -39 20t-38 -20q-12 -26 -13 -53q-2 -50 -2 -90v-15q-1 -108 5 -126t12 -30 q10 -22 43 -22t41 38t8 140z"/>
<glyph unicode="1" horiz-adv-x="320" glyph-name="one" d="M257 0h-167v462h-72v105l102 54h137v-621z"/>
<glyph unicode="2" horiz-adv-x="413" glyph-name="two" d="M8 579q98 52 194 52t146 -49q50 -48 50 -138t-32 -147t-115 -154h149v-143h-367l-8 102q95 101 135 153t54 86q14 33 14 63t-14 46t-38 16q-23 0 -44 -6q-29 -7 -92 -36z"/>
<glyph unicode="3" horiz-adv-x="428" glyph-name="three" d="M217 631q188 0 188 -163q0 -49 -18 -81t-59 -58v-4q46 -21 66 -55t20 -90q0 -90 -52 -140t-151 -50q-49 0 -83 8t-89 32l35 140q83 -30 115 -30q47 0 47 52q0 56 -63 56h-62v131h63q28 1 40 13t11 37q0 48 -47 48q-33 0 -117 -34l-39 135q55 30 98 42t97 11z"/>
<glyph unicode="4" horiz-adv-x="492" glyph-name="four" d="M259 256v153h-6l-82 -153h88zM491 121h-70v-121h-167v121h-227l-17 119l205 381h206v-365h77z"/>
<glyph unicode="5" horiz-adv-x="413" glyph-name="five" d="M396 211q0 -221 -196 -221q-91 0 -169 31l12 155q103 -31 139 -31q51 -1 51 55t-39 56q-19 0 -29 -20l-133 20v365h336v-149h-181v-89q26 14 66 14q143 0 143 -186z"/>
<glyph unicode="6" horiz-adv-x="459" glyph-name="six" d="M280 395q80 1 124 -45t44 -139q0 -221 -204 -221q-221 0 -221 277q1 188 91 276t285 88l-10 -143q-85 0 -131 -22t-62 -78l2 -5q36 12 82 12zM280 248q-12 16 -38 16t-51 -7q-2 -16 -2 -26q0 -102 57 -102q25 0 36 16q11 15 11 51q-1 36 -13 52z"/>
<glyph unicode="7" horiz-adv-x="420" glyph-name="seven" d="M404 528l-171 -528h-188l167 462h-202v159h394v-93z"/>
<glyph unicode="8" horiz-adv-x="464" glyph-name="eight" d="M234 495q-47 0 -47 -47q0 -32 24 -52q9 -7 30 -22q23 19 33 33t11 34q0 54 -51 54zM235 119q48 0 48 51q0 24 -13 39t-46 39q-26 -24 -33 -40t-7 -31q0 -58 51 -58zM80 587q54 44 152 44q98 1 150 -43t53 -122q0 -55 -16 -83t-59 -62v-4q42 -25 62 -57t20 -84 q0 -186 -211 -186q-97 0 -153 46t-56 138t80 136v4q-41 36 -58 66t-17 87q-1 76 53 120z"/>
<glyph unicode="9" horiz-adv-x="459" glyph-name="nine" d="M218 352q28 0 51 9q1 9 1 43t-12 60t-46 25q-46 0 -46 -66q0 -37 12 -54t40 -17zM183 232q-171 0 -171 193q0 206 203 206q115 0 167 -63t52 -198q0 -192 -86 -286t-292 -94l10 142q92 0 136 24t58 81l-2 5q-38 -10 -75 -10z"/>
<glyph unicode=":" horiz-adv-x="296" glyph-name="colon" d="M75 361q0 39 21 59t67 20t67 -20t21 -61q0 -77 -88 -77t-88 79zM75 68q0 40 21 60t67 19q46 1 67 -19t21 -62q0 -77 -88 -77t-88 79z"/>
<glyph unicode=";" horiz-adv-x="304" glyph-name="semicolon" d="M75 361q0 39 21 59t67 20t67 -20t21 -61q0 -77 -88 -77t-88 79zM164 147q89 -1 89 -91t-126 -169l-59 22l62 81l-2 5q-53 11 -53 73q0 79 89 79z"/>
<glyph unicode="&lt;" horiz-adv-x="394" glyph-name="less" d="M278 3l-245 229v69l249 231l82 -113l-166 -152l166 -149z"/>
<glyph unicode="=" horiz-adv-x="454" glyph-name="equal" d="M400 91h-346v136h346v-136zM400 293h-346v136h346v-136z"/>
<glyph unicode="&gt;" horiz-adv-x="394" glyph-name="greater" d="M361 232l-245 -229l-86 115l166 149l-166 152l82 113l249 -231v-69z"/>
<glyph unicode="?" horiz-adv-x="387" glyph-name="question" d="M82 64q0 79 86 79t86 -79q0 -38 -20 -56t-63 -19q-89 0 -89 75zM320 601q39 -43 39 -128t-30 -127t-88 -78l-10 -6v-61h-131v95q0 32 10 50t36 32q25 12 36 18q12 6 22 20t10 34q0 22 -11 34t-36 11q-25 0 -113 -23v151q84 21 142 21q85 0 124 -43z"/>
<glyph unicode="@" horiz-adv-x="886" glyph-name="at" d="M434 107q37 0 37 39v49q-37 -5 -53 -15t-15 -36q0 -37 31 -37zM627 354l-5 -203q0 -36 25 -36q33 -1 55 45t21 119q-1 117 -69 189t-191 72q-147 0 -223 -84t-77 -228q1 -144 75 -218t204 -73q71 0 180 20v-117q-91 -22 -183 -22q-93 0 -165 24t-129 72t-89 130 q-32 81 -32 186q0 186 121 310t315 124t298 -105t104 -283q0 -124 -65 -205t-183 -81h-9q-84 0 -114 51h-5q-37 -51 -114 -51q-58 0 -90 38t-32 104q0 83 52 115t162 42v24q0 28 -28 28q-44 0 -146 -29l-24 143q140 36 216 36t111 -33q34 -33 34 -104z"/>
<glyph unicode="A" horiz-adv-x="498" glyph-name="A" d="M285 215l-35 222h-7l-35 -222h77zM490 0h-167l-19 98h-118l-19 -98h-159l114 621h254z"/>
<glyph unicode="B" horiz-adv-x="495" glyph-name="B" d="M282 369q9 13 9 49q1 36 -9 50t-33 15h-32v-128h33q23 0 32 14zM290 124q10 14 10 56t-11 60t-40 18h-32v-147h32q31 -1 41 13zM481 179q0 -179 -192 -179h-245v621h240q95 -1 141 -39t46 -122t-69 -128v-6q79 -31 79 -147z"/>
<glyph unicode="C" horiz-adv-x="410" glyph-name="C" d="M216 178q18 -38 57 -37q40 0 113 19l26 -141q-79 -29 -159 -29q-121 0 -175 80t-54 236q0 158 57 242t186 83q76 0 145 -32l-27 -155q-78 26 -109 26q-44 0 -61 -38t-17 -128q0 -88 18 -126z"/>
<glyph unicode="D" horiz-adv-x="526" glyph-name="D" d="M316 182q16 38 15 126t-17 125t-70 37h-30v-326h33q53 0 69 38zM506 324q0 -324 -256 -324h-206v621h210q136 -1 194 -77t58 -220z"/>
<glyph unicode="E" horiz-adv-x="404" glyph-name="E" d="M380 0h-336v621h346l-10 -153h-165v-93h143v-132h-143v-103h175z"/>
<glyph unicode="F" horiz-adv-x="385" glyph-name="F" d="M380 468h-165v-93h133v-132h-133v-243h-171v621h346z"/>
<glyph unicode="G" horiz-adv-x="519" glyph-name="G" d="M418 436q-96 29 -140 29t-62 -39q-16 -40 -16 -124t16 -122t63 -39q14 0 54 8v76h-45v118h191v-343h-118l-16 32h-4q-17 -14 -27 -21q-28 -21 -79 -21q-209 0 -209 316q0 158 55 242t185 83q104 0 179 -32z"/>
<glyph unicode="H" horiz-adv-x="543" glyph-name="H" d="M503 0h-170v235h-117v-235h-172v621h172v-244h117v244h170v-621z"/>
<glyph unicode="I" horiz-adv-x="278" glyph-name="I" d="M224 0h-170v621h170v-621z"/>
<glyph unicode="J" horiz-adv-x="288" glyph-name="J" d="M244 621v-496q0 -77 -35 -106t-129 -29h-51l-13 136h34q18 0 22 4t4 20v471h168z"/>
<glyph unicode="K" horiz-adv-x="485" glyph-name="K" d="M484 0h-189l-75 234h-10v-234h-166v621h166v-260h10l90 260h184l-121 -321z"/>
<glyph unicode="L" horiz-adv-x="362" glyph-name="L" d="M360 0h-316v621h171v-482h155z"/>
<glyph unicode="M" horiz-adv-x="683" glyph-name="M" d="M645 0h-157v324h-9l-59 -324h-161l-56 324h-10v-324h-155l21 621h225l56 -336h8l54 336h222z"/>
<glyph unicode="N" horiz-adv-x="541" glyph-name="N" d="M497 0h-164l-129 289h-8v-289h-152v621h169l123 -298h8v298h153v-621z"/>
<glyph unicode="O" horiz-adv-x="538" glyph-name="O" d="M328 440q-14 32 -60 33q-44 -1 -57 -33t-13 -123v-24q0 -97 14 -127t60 -31q44 0 57 29t13 120v32q0 92 -14 124zM270 631q132 0 188 -74q56 -75 56 -241t-58 -246t-188 -80t-187 79t-57 245t58 242q58 75 188 75z"/>
<glyph unicode="P" horiz-adv-x="464" glyph-name="P" d="M286 399q0 44 -10 62t-40 18h-24v-158h28q28 0 37 17t9 61zM258 203h-46v-203h-168v621h203q107 0 159 -49t52 -161t-49 -160t-151 -48z"/>
<glyph unicode="Q" horiz-adv-x="538" glyph-name="Q" d="M328 440q-14 32 -60 33q-44 -1 -57 -33t-13 -123v-24q0 -97 14 -127t60 -31q44 0 57 29t13 120v32q0 92 -14 124zM270 631q132 0 188 -74t56 -237q0 -106 -26 -172t-83 -110v-4l126 -11l-11 -129h-19q-73 0 -131 34l-107 62q-125 0 -182 82t-57 246q0 163 58 238t188 75z "/>
<glyph unicode="R" horiz-adv-x="494" glyph-name="R" d="M275 344q11 14 11 54t-11 56t-36 15h-27v-140h26q26 0 37 15zM469 424q0 -56 -17 -93t-53 -67l83 -264h-185l-62 224h-23v-224h-168v621h232q100 0 146 -47t47 -150z"/>
<glyph unicode="S" horiz-adv-x="427" glyph-name="S" d="M68 577q52 54 142 54t186 -18l-20 -160q-99 23 -136 23q-47 0 -47 -38q1 -15 23 -29q22 -13 54 -29t64 -38t54 -61q22 -40 23 -92q0 -95 -51 -147q-50 -52 -144 -52t-183 29l11 149q107 -31 149 -31t42 37q-1 19 -23 35t-54 32t-64 37t-56 61q-22 40 -22 95q0 89 52 143z "/>
<glyph unicode="T" horiz-adv-x="410" glyph-name="T" d="M405 470h-116v-470h-171v470h-123l10 151h410z"/>
<glyph unicode="U" horiz-adv-x="543" glyph-name="U" d="M232 158q12 -15 42 -15q30 1 42 15t11 47v416h172v-426q-1 -107 -59 -156t-172 -49t-168 48q-56 48 -56 155v428h175v-417q0 -31 13 -46z"/>
<glyph unicode="V" horiz-adv-x="505" glyph-name="V" d="M493 621l-105 -621h-264l-112 621h189l54 -407h17l41 407h180z"/>
<glyph unicode="W" horiz-adv-x="681" glyph-name="W" d="M661 621l-56 -621h-206l-54 275h-8l-45 -275h-207l-65 621h164l26 -329h10l42 329h167l46 -329h10l18 329h158z"/>
<glyph unicode="X" horiz-adv-x="488" glyph-name="X" d="M482 0h-195l-42 198h-8l-47 -198h-184l97 322l-89 299h202l34 -184h8l37 184h176l-81 -299z"/>
<glyph unicode="Y" horiz-adv-x="464" glyph-name="Y" d="M464 621l-148 -429v-192h-170v192l-146 429h188l45 -202h8l43 202h180z"/>
<glyph unicode="Z" horiz-adv-x="452" glyph-name="Z" d="M442 0h-408l-4 92l183 374h-193l-10 155h422l5 -98l-174 -380h179v-143z"/>
<glyph unicode="[" horiz-adv-x="316" glyph-name="bracketleft" d="M284 -137h-236v778h236v-129h-66v-521h66v-128z"/>
<glyph unicode="\" horiz-adv-x="361" glyph-name="backslash" d="M206 -147l-216 768h166l215 -768h-165z"/>
<glyph unicode="]" horiz-adv-x="316" glyph-name="bracketright" d="M268 -137h-236v128h66v521h-66v129h236v-778z"/>
<glyph unicode="^" d="M326 655l65 -135h-105l-35 56l-35 -56h-107l66 135h151z" glyph-name="asciicircum"/>
<glyph unicode="_" horiz-adv-x="402" glyph-name="underscore" d="M402 -137h-402v104h402v-104z"/>
<glyph unicode="`" d="M223 520l-108 140h158l65 -140h-115z" glyph-name="grave"/>
<glyph unicode="a" horiz-adv-x="436" glyph-name="a" d="M198 107q37 0 37 39v49q-37 -5 -53 -15t-15 -36q0 -37 31 -37zM391 354l-5 -207q0 -19 10 -25t32 -7l-15 -121q-58 -4 -64 -4q-74 0 -94 51h-5q-37 -51 -114 -51q-58 0 -90 38t-32 104q0 83 52 115t162 42v24q0 28 -28 28q-48 0 -150 -29l-25 146q128 33 213 33t119 -33 t34 -104z"/>
<glyph unicode="b" horiz-adv-x="466" glyph-name="b" d="M273 185q1 17 1 65t-7 72q-7 26 -29 26t-42 -12v-207q18 -9 36 -9t26 6t10 24q4 18 5 35zM411 436q31 -54 31 -188q0 -132 -33 -195t-129 -63q-75 0 -105 39h-4l-10 -29h-131v641h167v-173h4q33 22 85 22q94 0 125 -54z"/>
<glyph unicode="c" horiz-adv-x="345" glyph-name="c" d="M200 318q-10 -26 -10 -82t10 -81t40 -25t79 11l18 -128q-69 -23 -123 -23q-96 0 -144 64t-48 179t50 187t145 71q71 0 128 -24l-18 -147q-57 25 -87 25q-30 -1 -40 -27z"/>
<glyph unicode="d" horiz-adv-x="477" glyph-name="d" d="M199 324q-7 -26 -7 -72q0 -48 1 -65t5 -35t10 -24q8 -6 26 -6t36 9v207q-20 12 -42 12t-29 -26zM454 -6l-67 -4q-77 0 -94 51h-5q-33 -51 -101 -51q-91 0 -127 63t-36 187t41 188q41 63 118 63q53 0 82 -25v175h167v-494q0 -19 8 -25t29 -7z"/>
<glyph unicode="e" horiz-adv-x="442" glyph-name="e" d="M234 491q104 1 148 -49t44 -142q0 -12 -7 -108h-228q0 -75 69 -75q33 0 129 23l14 -124q-84 -26 -168 -26q-103 0 -158 68t-55 183q0 250 212 250zM230 348q-26 0 -34 -18t-8 -53h87v24q0 47 -45 47z"/>
<glyph unicode="f" horiz-adv-x="293" glyph-name="f" d="M188 648q62 0 130 -6l-14 -146q-46 5 -66 5t-20 -18v-18h82l-8 -124h-72v-341h-167v341h-44v124h44v50q0 133 135 133z"/>
<glyph unicode="g" horiz-adv-x="450" glyph-name="g" d="M252 346q-8 14 -28 14t-28 -14t-7 -45q0 -61 36 -61q34 0 34 59q1 33 -7 47zM215 491h236v-112h-72v-5q32 -28 32 -73q0 -160 -181 -160h-48q-18 -1 -18 -17t17 -16h136q115 0 115 -100q0 -82 -55 -118t-152 -37q-97 1 -147 21t-49 76q0 31 39 52v4q-49 27 -49 78 q0 60 77 91q-36 27 -54 61t-17 91q-1 79 51 121t139 43zM175 -44h103q18 0 18 16v4q0 15 -18 15h-103q-16 0 -16 -16v-4q0 -15 16 -15z"/>
<glyph unicode="h" horiz-adv-x="467" glyph-name="h" d="M201 444q55 47 119 47q64 -1 90 -31t27 -91v-369h-170v312q0 25 -22 25q-28 0 -47 -14v-323h-168v641h167v-197h4z"/>
<glyph unicode="i" horiz-adv-x="232" glyph-name="i" d="M26 570q0 40 21 59t69 19t69 -19t21 -59t-21 -58t-69 -18t-69 18t-21 58zM199 0h-165v474h165v-474z"/>
<glyph unicode="j" horiz-adv-x="248" glyph-name="j" d="M33 570q0 40 21 59t69 19t69 -19t21 -59t-21 -58t-69 -18t-69 18t-21 58zM209 474v-486q-1 -78 -35 -106t-128 -29h-50l-14 138h34q18 1 22 5t4 19v459h167z"/>
<glyph unicode="k" horiz-adv-x="442" glyph-name="k" d="M443 0h-185l-61 184h-4v-184h-163v641h165v-353h4l73 191h175l-101 -239z"/>
<glyph unicode="l" horiz-adv-x="233" glyph-name="l" d="M30 110v531h165v-478q-1 -17 7 -24t27 -7l-13 -142h-55q-67 0 -99 28t-32 92z"/>
<glyph unicode="m" horiz-adv-x="706" glyph-name="m" d="M436 444q55 47 121 47q67 -1 93 -31t26 -91v-369h-170v312q0 25 -22 25q-28 0 -47 -14v-323h-170v312q0 25 -22 25q-28 0 -47 -14v-323h-168v479h153l10 -35h4q55 47 131 47t98 -56z"/>
<glyph unicode="n" horiz-adv-x="467" glyph-name="n" d="M197 444q55 47 121 47q66 -1 92 -31t27 -91v-369h-170v312q0 25 -22 25q-28 0 -47 -14v-323h-168v479h153l10 -35h4z"/>
<glyph unicode="o" horiz-adv-x="458" glyph-name="o" d="M230 356q-26 0 -33 -20t-7 -84v-24q0 -71 7 -92t33 -21t32 21q7 21 7 86v29q-1 65 -7 85t-32 20zM72 432q50 59 158 59t157 -58q49 -59 49 -191t-48 -192t-157 -60t-159 60t-50 192t50 190z"/>
<glyph unicode="p" horiz-adv-x="466" glyph-name="p" d="M273 185q1 17 1 65t-7 72q-7 26 -29 26t-42 -12v-207q18 -9 36 -9t26 6t10 24q4 18 5 35zM198 11v-148h-168v616h138l10 -30h5q28 41 110 41q81 0 115 -57t34 -187t-36 -194t-130 -63q-44 0 -74 22h-4z"/>
<glyph unicode="q" horiz-adv-x="466" glyph-name="q" d="M199 324q-7 -26 -7 -72q0 -48 1 -65t5 -35t10 -24q8 -6 26 -6t36 9v207q-20 12 -42 12t-29 -26zM268 -137v152h-4q-35 -25 -76 -25q-90 0 -127 64t-37 186t41 186t114 65q73 0 104 -42h5l10 30h138v-616h-168z"/>
<glyph unicode="r" horiz-adv-x="313" glyph-name="r" d="M196 269v-269h-166v479h146l10 -29h4q22 26 46 34t77 7l-7 -160h-46q-40 0 -52 -12t-12 -50z"/>
<glyph unicode="s" horiz-adv-x="342" glyph-name="s" d="M48 450q44 40 123 41q78 0 158 -20l-17 -139q-102 23 -137 23q-21 0 -21 -17q0 -11 23 -20q81 -29 121 -66t40 -111q0 -75 -38 -113t-116 -38t-157 20l11 135q100 -27 130 -27t29 14q0 14 -22 22q-89 34 -130 72t-41 112q0 72 44 112z"/>
<glyph unicode="t" horiz-adv-x="317" glyph-name="t" d="M300 -1q-74 -9 -128 -9t-86 28q-30 28 -30 99v232h-48v124h56l9 92h151v-92h89l-7 -124h-83v-199q0 -21 20 -21q2 0 62 3z"/>
<glyph unicode="u" horiz-adv-x="467" glyph-name="u" d="M149 -10q-119 0 -119 132v357h170v-316q0 -25 22 -25q28 0 47 14v327h168v-477h-159v35h-4q-55 -47 -125 -47z"/>
<glyph unicode="v" horiz-adv-x="441" glyph-name="v" d="M441 479l-102 -479h-236l-103 479h176l43 -307h13l46 307h163z"/>
<glyph unicode="w" horiz-adv-x="578" glyph-name="w" d="M573 479l-61 -479h-183l-39 202h-7l-38 -202h-179l-61 479h154l21 -242h8l34 242h139l33 -242h9l22 242h148z"/>
<glyph unicode="x" horiz-adv-x="433" glyph-name="x" d="M427 0h-177l-34 141h-6l-32 -141h-172l81 233l-81 246h182l29 -153h6l31 153h171l-80 -243z"/>
<glyph unicode="y" horiz-adv-x="445" glyph-name="y" d="M445 479l-124 -493q-19 -74 -56 -104t-121 -29h-100l-15 129h56q34 0 34 27q0 6 -4 26l-115 444h178l45 -299h9l49 299h164z"/>
<glyph unicode="z" horiz-adv-x="393" glyph-name="z" d="M381 0h-359l-4 96l148 243h-154v140h359l6 -89l-143 -252h147v-138z"/>
<glyph unicode="{" horiz-adv-x="335" glyph-name="braceleft" d="M293 -137h-110q-65 0 -93 30t-28 99v164q0 26 -9 32t-45 6v128q36 0 45 5t9 32v145q0 76 27 106t94 31h110v-133h-68v-160q0 -40 -11 -58t-37 -30v-7q26 -11 37 -29t11 -57v-177h68v-127z"/>
<glyph unicode="|" horiz-adv-x="337" glyph-name="bar" d="M247 -147h-157v768h157v-768z"/>
<glyph unicode="}" horiz-adv-x="335" glyph-name="braceright" d="M152 -137h-110v127h68v177q0 39 11 57t37 29v7q-26 12 -37 30t-11 58v160h-68v133h110q67 -1 94 -31t27 -106v-145q1 -27 9 -32t45 -5v-128q-35 0 -45 -6t-9 -32v-164q0 -69 -28 -99t-93 -30z"/>
<glyph unicode="~" d="M411 660v-8q0 -64 -18 -97t-72 -33q-36 0 -80 16l-24 8v-35h-109v10q0 65 19 97t67 33q16 0 89 -19l20 -5v33h108z" glyph-name="asciitilde"/>
<glyph unicode=" " horiz-adv-x="210" glyph-name="nbspace"/>
<glyph unicode="¡" horiz-adv-x="298" glyph-name="exclamdown" d="M230 416q0 -40 -21 -60t-67 -19q-46 -1 -67 19t-21 62q0 77 88 77t88 -79zM217 294l11 -431h-170l14 431h145z"/>
<glyph unicode="¢" horiz-adv-x="397" glyph-name="cent" d="M212 318q-10 -26 -10 -82t10 -81t40 -25t79 11l18 -128q-31 -11 -69 -18v-74h-132v84q-114 48 -114 226q0 87 29 151t85 91v95h132v-81q40 -4 77 -20l-18 -147q-57 25 -87 25q-30 -1 -40 -27z"/>
<glyph unicode="£" horiz-adv-x="563" glyph-name="sterling" d="M133 96q-1 -20 21 -20t37 17q-23 23 -41 23t-17 -20zM302 631q62 0 168 -19l-20 -161q-88 19 -108 19q-10 0 -10 -14t19 -76h93l-10 -100h-71v-61q0 -58 -20 -103l47 -20h7v59h150q1 -97 -33 -145t-111 -47q-43 0 -71 9t-70 30h-8q-48 -25 -108 -25t-96 32q-38 32 -38 93 t33 92t75 31t69 -12h4v67h-93v100h69q-26 78 -26 109q0 142 159 142z"/>
<glyph unicode="¤" horiz-adv-x="779" glyph-name="currency" d="M391 122q174 0 174 184q1 88 -43 136t-131 48q-172 0 -172 -185q0 -91 45 -137t127 -46zM84 76l-30 50l124 72q-17 54 -17 103t12 94l-125 73l31 53l120 -69q69 90 195 90t193 -88l114 67l30 -53l-117 -68q13 -45 13 -95t-20 -108l120 -71l-32 -51l-120 71 q-69 -74 -185 -74t-184 76q-43 -24 -122 -72z"/>
<glyph unicode="¥" horiz-adv-x="504" glyph-name="yen" d="M484 621l-106 -305h75v-99h-109l-8 -25v-6h117v-97h-117v-89h-170v89h-114v97h114v6l-9 25h-105v99h72l-104 305h188l45 -202h8l43 202h180z"/>
<glyph unicode="¦" horiz-adv-x="337" glyph-name="brokenbar" d="M247 621v-296h-157v296h157zM247 -147h-157v324h157v-324z"/>
<glyph unicode="§" horiz-adv-x="440" glyph-name="section" d="M388 332q20 -36 20 -86t-10 -82t-36 -68q11 -28 11 -66q0 -84 -44 -130t-129 -47q-51 0 -153 20l12 157q107 -29 137 -29t30 28q0 17 -20 33t-48 34t-58 39q-28 22 -48 58t-20 80q0 78 47 139q-13 26 -13 62q0 82 49 128t128 46q32 0 55 -4l46 -8t38 -7l-22 -151 q-91 21 -116 21t-25 -20q-1 -13 19 -27t48 -28q28 -15 56 -35q26 -21 46 -57zM273 200q1 4 1 14t-2 19t-8 18t-12 15q-4 6 -16 14q-12 10 -18 14q-5 4 -23 14l-24 16q-1 -6 -1 -20t6 -27q6 -12 22 -26q23 -19 75 -51z"/>
<glyph unicode="¨" d="M294 534q-16 16 -16 44t17 42q17 16 47 16t46 -16t17 -42q-1 -28 -17 -44t-46 -15q-32 -1 -48 15zM126 534q-16 16 -17 44q1 28 17 42q16 16 46 16t47 -16t17 -42q0 -59 -66 -59q-28 -1 -44 15z" glyph-name="dieresis"/>
<glyph unicode="©" horiz-adv-x="940" glyph-name="copyright" d="M449 148q9 -24 37 -23q28 0 85 16l23 -126q-77 -25 -129 -25q-93 0 -135 61t-42 181t44 182q44 64 144 64q58 0 118 -29l-24 -134q-64 21 -88 21t-34 -24t-9 -82q0 -58 10 -82zM154 551q114 116 316 116t316 -116t114 -317q0 -200 -118 -316t-319 -116t-312 114t-111 316 q0 203 114 319zM466 519q-266 0 -266 -287t269 -287q134 -1 200 71t66 212t-67 216q-67 75 -202 75z"/>
<glyph unicode="ª" horiz-adv-x="380" glyph-name="ordfeminine" d="M179 370q25 0 25 27v34q-25 -3 -36 -11t-11 -24q0 -26 22 -26zM314 543l-4 -145q0 -13 7 -18t23 -5l-11 -84q-30 -3 -45 -3q-52 0 -66 36h-3q-25 -36 -73 -36q-92 0 -92 99q0 59 36 81t114 29v17q0 20 -20 20q-37 0 -105 -21l-18 103q93 23 151 23t82 -23t24 -73z"/>
<glyph unicode="«" horiz-adv-x="527" glyph-name="guillemotleft" d="M234 207v62l173 208l77 -60l-105 -175l106 -175l-84 -63zM24 207v62l176 208l75 -60l-105 -175l106 -175l-82 -63z"/>
<glyph unicode="¬" horiz-adv-x="488" glyph-name="logicalnot" d="M288 130v101h-236v126h378v-227h-142z"/>
<glyph unicode="®" horiz-adv-x="940" glyph-name="registered" d="M154 551q114 116 316 116t316 -116t114 -317q0 -200 -118 -316t-319 -116t-312 114t-111 316q0 203 114 319zM654 314q0 -83 -46 -125l62 -161q65 79 65 210t-67 206t-202 75q-266 0 -266 -288q0 -142 68 -214t197 -72q108 0 182 55h-124l-50 146h-8v-146h-151v467h177 q163 0 163 -153zM514 293q0 22 -8 32t-26 10h-22v-83h24q32 0 32 41z"/>
<glyph unicode="¯" d="M395 530h-270v115h270v-115z" glyph-name="macron"/>
<glyph unicode="°" horiz-adv-x="302" glyph-name="degree" d="M176 506q0 20 -6 28t-20 8t-20 -8t-5 -28q-1 -20 5 -26q6 -8 20 -8t20 8t6 26zM239 601q27 -31 27 -95t-27 -94t-88 -30t-88 30t-27 94t28 94q28 31 88 31t87 -30z"/>
<glyph unicode="±" horiz-adv-x="482" glyph-name="plusminus" d="M430 0h-378v126h378v-126zM430 298h-126v-125h-130v125h-122v126h122v130h130v-130h126v-126z"/>
<glyph unicode="²" horiz-adv-x="362" glyph-name="twosuperior" d="M44 594q68 37 135 37q67 -1 103 -35t35 -98q0 -44 -14 -80t-31 -59t-58 -70h104v-100h-257l-6 71q50 52 75 81q24 29 46 66t22 61q0 47 -40 47q-28 0 -92 -29z"/>
<glyph unicode="³" horiz-adv-x="363" glyph-name="threesuperior" d="M181 631q131 0 131 -114q0 -63 -53 -98v-3q60 -27 60 -96q0 -138 -142 -138q-54 0 -121 28l25 98q57 -21 80 -21q33 0 33 36q0 40 -44 40h-43v91h44q35 0 35 34t-32 35q-24 0 -82 -24l-28 95q70 37 137 37z"/>
<glyph unicode="´" d="M376 660l-108 -140h-115l63 140h160z" glyph-name="acute"/>
<glyph unicode="µ" horiz-adv-x="519" glyph-name="mu" d="M242 -10q-24 0 -46 10v-144h-166v618h168v-290q0 -52 48 -52t49 52v290h170v-330q0 -31 46 -31l-21 -123h-37q-69 0 -104 38h-4q-38 -38 -103 -38z"/>
<glyph unicode="μ" horiz-adv-x="519" glyph-name="mu" d="M242 -10q-24 0 -46 10v-144h-166v618h168v-290q0 -52 48 -52t49 52v290h170v-330q0 -31 46 -31l-21 -123h-37q-69 0 -104 38h-4q-38 -38 -103 -38z"/>
<glyph unicode="¶" horiz-adv-x="576" glyph-name="paragraph" d="M522 -130h-141v645h-31v-645h-142v323q-88 -1 -138 55t-50 162t59 164q59 60 163 60h280v-764z"/>
<glyph unicode="·" horiz-adv-x="346" glyph-name="periodcentered" d="M177 216q-96 0 -96 90t96 89q96 1 96 -89t-96 -90z"/>
<glyph unicode="¸" d="M336 -62q16 -14 16 -42t-24 -48t-74 -19q-48 0 -91 29l34 63q41 -31 57 -31t16 10t-13 16l-17 10q-23 12 -23 32t15 34h65q-9 -8 -9 -16t16 -16t32 -22z" glyph-name="cedilla"/>
<glyph unicode="¹" horiz-adv-x="279" glyph-name="onesuperior" d="M211 186h-117v323h-50v74l71 38h96v-435z"/>
<glyph unicode="º" horiz-adv-x="388" glyph-name="ordmasculine" d="M194 544q-18 0 -23 -14t-5 -59v-16q0 -50 5 -65t23 -15q18 1 22 15t5 60v21q-1 45 -5 59t-22 14zM84 598q36 42 110 41q76 -1 110 -41t34 -133t-34 -135t-110 -42t-111 42t-35 134t36 134z"/>
<glyph unicode="»" horiz-adv-x="527" glyph-name="guillemotright" d="M293 269v-62l-167 -203l-84 63l106 175l-105 175l77 60zM503 269v-62l-170 -203l-82 63l106 175l-105 175l75 60z"/>
<glyph unicode="¼" horiz-adv-x="800" glyph-name="onequarter" d="M211 186h-117v323h-50v74l71 38h96v-435zM588 179v107h-4l-57 -107h61zM751 85h-49v-85h-117v85h-159l-12 83l143 267h145v-256h54zM493 631l-180 -641h-117l179 641h118z"/>
<glyph unicode="½" horiz-adv-x="776" glyph-name="onehalf" d="M458 405q68 37 135 37t103 -34t35 -99q0 -43 -14 -79t-31 -60q-17 -23 -58 -70h104v-100h-257l-6 71q50 52 75 81q24 29 46 66t22 61q0 47 -40 47q-28 0 -92 -29zM211 186h-117v323h-50v74l71 38h96v-435zM493 631l-180 -641h-117l179 641h118z"/>
<glyph unicode="¾" horiz-adv-x="878" glyph-name="threequarters" d="M666 179v107h-4l-57 -107h61zM829 85h-49v-85h-117v85h-159l-12 83l143 267h145v-256h54zM181 631q131 0 131 -114q0 -63 -53 -98v-3q60 -27 60 -96q0 -138 -142 -138q-54 0 -121 28l25 98q57 -21 80 -21q33 0 33 36q0 40 -44 40h-43v91h44q35 0 35 34t-32 35 q-24 0 -82 -24l-28 95q70 37 137 37zM571 631l-180 -641h-117l179 641h118z"/>
<glyph unicode="¿" horiz-adv-x="387" glyph-name="questiondown" d="M307 417q0 -79 -86 -79t-86 79q-1 39 19 57t64 18q89 0 89 -75zM30 21q0 75 30 116t88 76l10 6v61h131v-101q0 -31 -10 -47q-9 -16 -35 -28t-37 -19q-11 -5 -21 -19t-11 -36q0 -22 11 -32q11 -12 36 -12t113 23v-151q-84 -21 -142 -21q-163 0 -163 184z"/>
<glyph unicode="À" horiz-adv-x="498" glyph-name="Agrave" d="M215 664l-103 133h150l62 -133h-109zM285 215l-35 222h-7l-35 -222h77zM490 0h-167l-19 98h-118l-19 -98h-159l114 621h254z"/>
<glyph unicode="Á" horiz-adv-x="498" glyph-name="Aacute" d="M383 797l-102 -133h-110l60 133h152zM285 215l-35 222h-7l-35 -222h77zM490 0h-167l-19 98h-118l-19 -98h-159l114 621h254z"/>
<glyph unicode="Â" horiz-adv-x="498" glyph-name="Acircumflex" d="M318 792l63 -128h-101l-33 53l-33 -53h-102l63 128h143zM285 215l-35 222h-7l-35 -222h77zM490 0h-167l-19 98h-118l-19 -98h-159l114 621h254z"/>
<glyph unicode="Ã" horiz-adv-x="498" glyph-name="Atilde" d="M386 797v-8q0 -59 -17 -91t-69 -32q-31 0 -76 15l-23 8v-34h-103v10q0 63 18 93t63 30q18 0 85 -18l19 -4v31h103zM285 215l-35 222h-7l-35 -222h77zM490 0h-167l-19 98h-118l-19 -98h-159l114 621h254z"/>
<glyph unicode="Ä" horiz-adv-x="498" glyph-name="Adieresis" d="M278 678q-16 14 -16 40t16 41t44 15t45 -14q16 -14 16 -41q0 -26 -16 -41q-17 -15 -45 -15t-44 15zM118 678q-16 14 -16 40t16 41t43 15q29 0 45 -14t16 -41q0 -56 -63 -56q-25 0 -41 15zM285 215l-35 222h-7l-35 -222h77zM490 0h-167l-19 98h-118l-19 -98h-159l114 621 h254z"/>
<glyph unicode="Å" horiz-adv-x="498" glyph-name="Aring" d="M246 761q-21 0 -21 -28t21 -28t21 28t-21 28zM187 786q23 20 60 21t59 -19t22 -55t-22 -55t-59 -21q-37 0 -60 20q-23 21 -23 55t23 54zM285 215l-35 222h-7l-35 -222h77zM490 0h-167l-19 98h-118l-19 -98h-159l114 621h254z"/>
<glyph unicode="Æ" horiz-adv-x="698" glyph-name="AE" d="M338 215v222h-7l-81 -222h88zM674 0h-336v98h-132l-38 -98h-168l260 621h424l-10 -153h-165v-93h143v-132h-143v-103h175z"/>
<glyph unicode="Ç" horiz-adv-x="466" glyph-name="Ccedilla" d="M350 -56q16 -15 16 -43t-26 -49t-76 -21t-93 32l36 70q35 -33 63 -33q8 0 8 8t-11 13l-21 12q-21 13 -21 31t12 30q-95 15 -153 95q-58 79 -59 223t75 238t189 94t169 -59l-56 -150q-19 19 -31 29q-33 29 -75 29t-69 -51q-26 -51 -26 -129q1 -78 27 -128t70 -50 q59 0 105 51l56 -142q-60 -47 -150 -53q-5 -7 -5 -12t16 -13q14 -8 30 -22z"/>
<glyph unicode="È" horiz-adv-x="404" glyph-name="Egrave" d="M182 664l-103 133h150l62 -133h-109zM380 0h-336v621h346l-10 -153h-165v-93h143v-132h-143v-103h175z"/>
<glyph unicode="É" horiz-adv-x="404" glyph-name="Eacute" d="M360 797l-102 -133h-110l60 133h152zM380 0h-336v621h346l-10 -153h-165v-93h143v-132h-143v-103h175z"/>
<glyph unicode="Ê" horiz-adv-x="404" glyph-name="Ecircumflex" d="M283 792l63 -128h-101l-33 53l-33 -53h-102l63 128h143zM380 0h-336v621h346l-10 -153h-165v-93h143v-132h-143v-103h175z"/>
<glyph unicode="Ë" horiz-adv-x="404" glyph-name="Edieresis" d="M250 678q-16 14 -16 40t16 41t44 15t45 -14q16 -14 16 -41q0 -26 -16 -41q-17 -15 -45 -15t-44 15zM90 678q-16 14 -16 40t16 41t43 15q29 0 45 -14t16 -41q0 -56 -63 -56q-25 0 -41 15zM380 0h-336v621h346l-10 -153h-165v-93h143v-132h-143v-103h175z"/>
<glyph unicode="Ì" horiz-adv-x="272" glyph-name="Igrave" d="M82 664l-103 133h150l62 -133h-109zM209 0h-170v621h170v-621z"/>
<glyph unicode="Í" horiz-adv-x="272" glyph-name="Iacute" d="M258 797l-102 -133h-110l60 133h152zM213 0h-170v621h170v-621z"/>
<glyph unicode="Î" horiz-adv-x="272" glyph-name="Icircumflex" d="M196 792l63 -128h-101l-33 53l-33 -53h-102l63 128h143zM209 0h-170v621h170v-621z"/>
<glyph unicode="Ï" horiz-adv-x="272" glyph-name="Idieresis" d="M160 678q-16 14 -16 40t16 41t44 15t45 -14q16 -14 16 -41q0 -26 -16 -41q-17 -15 -45 -15t-44 15zM0 678q-16 14 -16 40t16 41t43 15q29 0 45 -14t16 -41q0 -56 -63 -56q-25 0 -41 15zM209 0h-170v621h170v-621z"/>
<glyph unicode="Ð" horiz-adv-x="526" glyph-name="Eth" d="M269 250h-55v-106h33q53 0 69 38t15 126t-17 125t-70 37h-30v-102h55v-118zM506 324q0 -324 -256 -324h-206v250h-55v118h55v253h210q136 -1 194 -77t58 -220z"/>
<glyph unicode="Ñ" horiz-adv-x="543" glyph-name="Ntilde" d="M419 797v-8q0 -59 -17 -91t-69 -32q-31 0 -76 15l-23 8v-34h-103v10q0 63 18 93t63 30q18 0 85 -18l19 -4v31h103zM498 0h-164l-129 289h-8v-289h-152v621h169l123 -298h8v298h153v-621z"/>
<glyph unicode="Ò" horiz-adv-x="538" glyph-name="Ograve" d="M229 664l-103 133h150l62 -133h-109zM328 440q-14 32 -60 33q-44 -1 -57 -33t-13 -123v-24q0 -97 14 -127t60 -31q44 0 57 29t13 120v32q0 92 -14 124zM270 631q132 0 188 -74q56 -75 56 -241t-58 -246t-188 -80t-187 79t-57 245t58 242q58 75 188 75z"/>
<glyph unicode="Ó" horiz-adv-x="538" glyph-name="Oacute" d="M412 797l-102 -133h-110l60 133h152zM328 440q-14 32 -60 33q-44 -1 -57 -33t-13 -123v-24q0 -97 14 -127t60 -31q44 0 57 29t13 120v32q0 92 -14 124zM270 631q132 0 188 -74q56 -75 56 -241t-58 -246t-188 -80t-187 79t-57 245t58 242q58 75 188 75z"/>
<glyph unicode="Ô" horiz-adv-x="538" glyph-name="Ocircumflex" d="M340 792l63 -128h-101l-33 53l-33 -53h-102l63 128h143zM328 440q-14 32 -60 33q-44 -1 -57 -33t-13 -123v-24q0 -97 14 -127t60 -31q44 0 57 29t13 120v32q0 92 -14 124zM270 631q132 0 188 -74q56 -75 56 -241t-58 -246t-188 -80t-187 79t-57 245t58 242q58 75 188 75z "/>
<glyph unicode="Õ" horiz-adv-x="538" glyph-name="Otilde" d="M406 797v-8q0 -59 -17 -91t-69 -32q-31 0 -76 15l-23 8v-34h-103v10q0 63 18 93t63 30q18 0 85 -18l19 -4v31h103zM328 440q-14 32 -60 33q-44 -1 -57 -33t-13 -123v-24q0 -97 14 -127t60 -31q44 0 57 29t13 120v32q0 92 -14 124zM270 631q132 0 188 -74q56 -75 56 -241 t-58 -246t-188 -80t-187 79t-57 245t58 242q58 75 188 75z"/>
<glyph unicode="Ö" horiz-adv-x="538" glyph-name="Odieresis" d="M305 678q-16 14 -16 40t16 41q17 15 45 15t44 -14t16 -41q0 -26 -16 -41t-44 -15t-45 15zM144 678q-16 14 -15 40q-1 26 15 41t44 15t44 -14t17 -41q0 -56 -63 -56q-26 0 -42 15zM328 440q-14 32 -60 33q-44 -1 -57 -33t-13 -123v-24q0 -97 14 -127t60 -31q44 0 57 29 t13 120v32q0 92 -14 124zM270 631q132 0 188 -74q56 -75 56 -241t-58 -246t-188 -80t-187 79t-57 245t58 242q58 75 188 75z"/>
<glyph unicode="×" horiz-adv-x="476" glyph-name="multiply" d="M334 110l-94 99l-96 -100l-92 92l100 96l-100 95l90 89l95 -99l95 99l92 -92l-99 -95l98 -95z"/>
<glyph unicode="Ø" horiz-adv-x="538" glyph-name="Oslash" d="M328 446q-14 32 -60 33q-44 -1 -57 -33t-13 -123v-24q0 -98 14 -131t59 -33q43 -1 57 31t14 124v32q0 92 -14 124zM270 631q26 0 50 -3l22 55h166l-50 -127q56 -74 56 -240t-58 -246t-189 -80q-12 0 -32 2l-25 -63h-168l50 126q-68 77 -68 251t58 250q58 75 188 75z"/>
<glyph unicode="Ù" horiz-adv-x="543" glyph-name="Ugrave" d="M226 664l-103 133h150l62 -133h-109zM232 158q12 -15 42 -15q30 1 42 15t11 47v416h172v-426q-1 -107 -59 -156t-172 -49t-168 48q-56 48 -56 155v428h175v-417q0 -31 13 -46z"/>
<glyph unicode="Ú" horiz-adv-x="543" glyph-name="Uacute" d="M425 797l-102 -133h-110l60 133h152zM232 158q12 -15 42 -15q30 1 42 15t11 47v416h172v-426q-1 -107 -59 -156t-172 -49t-168 48q-56 48 -56 155v428h175v-417q0 -31 13 -46z"/>
<glyph unicode="Û" horiz-adv-x="543" glyph-name="Ucircumflex" d="M345 792l63 -128h-101l-33 53l-33 -53h-102l63 128h143zM232 158q12 -15 42 -15q30 1 42 15t11 47v416h172v-426q-1 -107 -59 -156t-172 -49t-168 48q-56 48 -56 155v428h175v-417q0 -31 13 -46z"/>
<glyph unicode="Ü" horiz-adv-x="543" glyph-name="Udieresis" d="M308 678q-16 14 -16 40t16 41t44 15t45 -14q16 -14 16 -41q0 -26 -16 -41q-17 -15 -45 -15t-44 15zM148 678q-16 14 -16 40t16 41t43 15q29 0 45 -14t16 -41q0 -56 -63 -56q-25 0 -41 15zM232 158q12 -15 42 -15q30 1 42 15t11 47v416h172v-426q-1 -107 -59 -156 t-172 -49t-168 48q-56 48 -56 155v428h175v-417q0 -31 13 -46z"/>
<glyph unicode="Ý" horiz-adv-x="464" glyph-name="Yacute" d="M389 787l-102 -133h-110l60 133h152zM464 621l-148 -429v-192h-170v192l-146 429h188l45 -202h8l43 202h180z"/>
<glyph unicode="Þ" horiz-adv-x="462" glyph-name="Thorn" d="M278 310q0 44 -10 62t-40 18h-16v-158h20q28 0 37 17t9 61zM250 114h-38v-114h-168v621h168v-89h27q111 0 161 -48t50 -161t-48 -161t-152 -48z"/>
<glyph unicode="ß" horiz-adv-x="504" glyph-name="germandbls" d="M246 135l36 -3q45 0 45 59q0 70 -86 70v125q34 0 49 16t15 47q0 59 -48 59q-37 0 -37 -39v-469h-167v341h-44v124h44v16q-1 90 51 132t158 42q106 -1 161 -47q56 -46 56 -134t-61 -133v-4q82 -42 82 -158q0 -91 -43 -140t-129 -49q-31 0 -87 10z"/>
<glyph unicode="à" horiz-adv-x="436" glyph-name="agrave" d="M180 520l-108 140h158l65 -140h-115zM198 107q37 0 37 39v49q-37 -5 -53 -15t-15 -36q0 -37 31 -37zM391 354l-5 -207q0 -19 10 -25t32 -7l-15 -121q-58 -4 -64 -4q-74 0 -94 51h-5q-37 -51 -114 -51q-58 0 -90 38t-32 104q0 83 52 115t162 42v24q0 28 -28 28 q-48 0 -150 -29l-25 146q128 33 213 33t119 -33t34 -104z"/>
<glyph unicode="á" horiz-adv-x="436" glyph-name="aacute" d="M363 660l-108 -140h-115l63 140h160zM198 107q37 0 37 39v49q-37 -5 -53 -15t-15 -36q0 -37 31 -37zM391 354l-5 -207q0 -19 10 -25t32 -7l-15 -121q-58 -4 -64 -4q-74 0 -94 51h-5q-37 -51 -114 -51q-58 0 -90 38t-32 104q0 83 52 115t162 42v24q0 28 -28 28 q-48 0 -150 -29l-25 146q128 33 213 33t119 -33t34 -104z"/>
<glyph unicode="â" horiz-adv-x="436" glyph-name="acircumflex" d="M291 655l66 -135h-106l-35 56l-35 -56h-107l66 135h151zM198 107q37 0 37 39v49q-37 -5 -53 -15t-15 -36q0 -37 31 -37zM391 354l-5 -207q0 -19 10 -25t32 -7l-15 -121q-58 -4 -64 -4q-74 0 -94 51h-5q-37 -51 -114 -51q-58 0 -90 38t-32 104q0 83 52 115t162 42v24 q0 28 -28 28q-48 0 -150 -29l-25 146q128 33 213 33t119 -33t34 -104z"/>
<glyph unicode="ã" horiz-adv-x="436" glyph-name="atilde" d="M359 660v-8q0 -64 -18 -97t-72 -33q-36 0 -80 16l-24 8v-35h-109v10q0 65 19 97t67 33q16 0 89 -19l20 -5v33h108zM198 107q37 0 37 39v49q-37 -5 -53 -15t-15 -36q0 -37 31 -37zM391 354l-5 -207q0 -19 10 -25t32 -7l-15 -121q-58 -4 -64 -4q-74 0 -94 51h-5 q-37 -51 -114 -51q-58 0 -90 38t-32 104q0 83 52 115t162 42v24q0 28 -28 28q-48 0 -150 -29l-25 146q128 33 213 33t119 -33t34 -104z"/>
<glyph unicode="ä" horiz-adv-x="436" glyph-name="adieresis" d="M248 534q-16 16 -16 44t17 42q17 16 47 16t46 -16t17 -42q-1 -28 -17 -44t-46 -15q-32 -1 -48 15zM80 534q-16 16 -17 44q1 28 17 42q16 16 46 16t47 -16t17 -42q0 -59 -66 -59q-28 -1 -44 15zM198 107q37 0 37 39v49q-37 -5 -53 -15t-15 -36q0 -37 31 -37zM391 354 l-5 -207q0 -19 10 -25t32 -7l-15 -121q-58 -4 -64 -4q-74 0 -94 51h-5q-37 -51 -114 -51q-58 0 -90 38t-32 104q0 83 52 115t162 42v24q0 28 -28 28q-48 0 -150 -29l-25 146q128 33 213 33t119 -33t34 -104z"/>
<glyph unicode="å" horiz-adv-x="436" glyph-name="aring" d="M211 622q-22 0 -22 -30t22 -29q22 -1 22 29t-22 30zM149 650q24 22 63 21t62 -21t23 -57t-23 -59t-62 -21q-39 0 -63 21q-24 22 -24 58t24 58zM198 107q37 0 37 39v49q-37 -5 -53 -15t-15 -36q0 -37 31 -37zM391 354l-5 -207q0 -19 10 -25t32 -7l-15 -121q-58 -4 -64 -4 q-74 0 -94 51h-5q-37 -51 -114 -51q-58 0 -90 38t-32 104q0 83 52 115t162 42v24q0 28 -28 28q-48 0 -150 -29l-25 146q128 33 213 33t119 -33t34 -104z"/>
<glyph unicode="æ" horiz-adv-x="643" glyph-name="ae" d="M198 107q37 0 37 39v49q-37 -5 -53 -15t-15 -36q0 -37 31 -37zM432 350q-26 0 -34 -18t-8 -53h87v24q0 47 -45 47zM48 28q-34 38 -34 112q0 75 52 107t162 42v24q0 28 -28 28q-48 0 -150 -29l-25 146q128 33 220 33q53 0 90 -25q42 25 101 25q104 1 148 -49t44 -142 q0 -58 -6 -104h-229q0 -79 69 -79q33 0 129 23l18 -122q-91 -28 -179 -28t-137 62h-4q-54 -62 -148 -62q-59 0 -93 38z"/>
<glyph unicode="ç" horiz-adv-x="345" glyph-name="ccedilla" d="M320 324q-58 25 -88 25t-39 -28q-10 -29 -10 -85q-1 -56 9 -81t44 -25t82 11l18 -128q-58 -19 -108 -22q-7 -9 -7 -16t16 -15q48 -24 48 -58q-1 -34 -25 -54t-72 -19q-48 0 -92 29l34 63q41 -31 57 -31t16 10t-13 16l-17 10q-23 12 -23 32t15 36q-74 13 -112 75 q-38 63 -38 171t50 180t145 71q71 0 128 -24z"/>
<glyph unicode="è" horiz-adv-x="444" glyph-name="egrave" d="M204 520l-108 140h158l65 -140h-115zM236 491q104 1 148 -49t44 -142q0 -12 -7 -108h-228q0 -75 69 -75q33 0 129 23l14 -124q-84 -26 -168 -26q-103 0 -158 68t-55 183q0 250 212 250zM232 348q-26 0 -34 -18t-8 -53h87v24q0 47 -45 47z"/>
<glyph unicode="é" horiz-adv-x="444" glyph-name="eacute" d="M392 660l-108 -140h-115l63 140h160zM236 491q104 1 148 -49t44 -142q0 -12 -7 -108h-228q0 -75 69 -75q33 0 129 23l14 -124q-84 -26 -168 -26q-103 0 -158 68t-55 183q0 250 212 250zM232 348q-26 0 -34 -18t-8 -53h87v24q0 47 -45 47z"/>
<glyph unicode="ê" horiz-adv-x="444" glyph-name="ecircumflex" d="M313 655l66 -135h-106l-35 56l-35 -56h-107l66 135h151zM236 491q104 1 148 -49t44 -142q0 -12 -7 -108h-228q0 -75 69 -75q33 0 129 23l14 -124q-84 -26 -168 -26q-103 0 -158 68t-55 183q0 250 212 250zM232 348q-26 0 -34 -18t-8 -53h87v24q0 47 -45 47z"/>
<glyph unicode="ë" horiz-adv-x="444" glyph-name="edieresis" d="M270 534q-16 16 -17 44q0 28 17 42q17 16 47 16q31 0 47 -16t16 -42q0 -28 -16 -44t-48 -15q-30 -1 -46 15zM100 534q-16 16 -16 44t16 42q16 16 47 16q30 0 47 -16t17 -42q0 -59 -66 -59q-29 -1 -45 15zM236 491q104 1 148 -49t44 -142q0 -12 -7 -108h-228q0 -75 69 -75 q33 0 129 23l14 -124q-84 -26 -168 -26q-103 0 -158 68t-55 183q0 250 212 250zM232 348q-26 0 -34 -18t-8 -53h87v24q0 47 -45 47z"/>
<glyph unicode="ì" horiz-adv-x="232" glyph-name="igrave" d="M83 520l-108 140h158l65 -140h-115zM199 0h-165v474h165v-474z"/>
<glyph unicode="í" horiz-adv-x="232" glyph-name="iacute" d="M262 660l-108 -140h-115l63 140h160zM198 0h-165v474h165v-474z"/>
<glyph unicode="î" horiz-adv-x="232" glyph-name="icircumflex" d="M192 655l66 -135h-106l-35 56l-35 -56h-107l66 135h151zM198 0h-165v474h165v-474z"/>
<glyph unicode="ï" horiz-adv-x="232" glyph-name="idieresis" d="M154 534q-16 16 -17 44q0 28 17 42q17 16 47 16q31 0 47 -16t16 -42q0 -28 -16 -44t-48 -15q-30 -1 -46 15zM-16 534q-16 16 -16 44t16 42q16 16 47 16q30 0 47 -16t17 -42q0 -59 -66 -59q-29 -1 -45 15zM198 0h-165v474h165v-474z"/>
<glyph unicode="ð" horiz-adv-x="472" glyph-name="eth" d="M233 281q-25 0 -34 -21q-9 -22 -9 -62t9 -58t35 -18t33 22q8 22 8 64q0 73 -42 73zM183 400q38 0 74 -6l3 3q-13 37 -40 60l-106 -55v92l22 12q-33 6 -73 6v131q142 0 216 -30l93 46v-111l-16 -9q94 -94 94 -274q0 -139 -53 -207t-169 -68q-206 0 -206 218q0 94 44 143 t117 49z"/>
<glyph unicode="ñ" horiz-adv-x="473" glyph-name="ntilde" d="M379 660v-8q0 -64 -18 -97t-72 -33q-36 0 -80 16l-24 8v-35h-109v10q0 65 19 97t67 33q16 0 89 -19l20 -5v33h108zM200 444q55 47 121 47q67 -1 93 -31t26 -91v-369h-170v312q0 25 -22 25q-28 0 -47 -14v-323h-168v479h153l10 -35h4z"/>
<glyph unicode="ò" horiz-adv-x="462" glyph-name="ograve" d="M206 520l-108 140h158l65 -140h-115zM232 356q-26 0 -33 -20t-7 -84v-24q0 -71 7 -92t33 -21t32 21q7 21 7 86v29q-1 65 -7 85t-32 20zM74 432q50 59 158 59t157 -58q49 -59 49 -191t-48 -192t-157 -60t-159 60t-50 192t50 190z"/>
<glyph unicode="ó" horiz-adv-x="462" glyph-name="oacute" d="M382 660l-108 -140h-115l63 140h160zM232 356q-26 0 -33 -20t-7 -84v-24q0 -71 7 -92t33 -21t32 21q7 21 7 86v29q-1 65 -7 85t-32 20zM74 432q50 59 158 59t157 -58q49 -59 49 -191t-48 -192t-157 -60t-159 60t-50 192t50 190z"/>
<glyph unicode="ô" horiz-adv-x="462" glyph-name="ocircumflex" d="M308 655l66 -135h-106l-35 56l-35 -56h-107l66 135h151zM232 356q-26 0 -33 -20t-7 -84v-24q0 -71 7 -92t33 -21t32 21q7 21 7 86v29q-1 65 -7 85t-32 20zM74 432q50 59 158 59t157 -58q49 -59 49 -191t-48 -192t-157 -60t-159 60t-50 192t50 190z"/>
<glyph unicode="õ" horiz-adv-x="462" glyph-name="otilde" d="M381 660v-8q0 -64 -18 -97t-72 -33q-36 0 -80 16l-24 8v-35h-109v10q0 65 19 97t67 33q16 0 89 -19l20 -5v33h108zM232 356q-26 0 -33 -20t-7 -84v-24q0 -71 7 -92t33 -21t32 21q7 21 7 86v29q-1 65 -7 85t-32 20zM74 432q50 59 158 59t157 -58q49 -59 49 -191t-48 -192 t-157 -60t-159 60t-50 192t50 190z"/>
<glyph unicode="ö" horiz-adv-x="462" glyph-name="odieresis" d="M268 534q-16 16 -16 44t17 42q17 16 47 16t46 -16t17 -42q-1 -28 -17 -44t-46 -15q-32 -1 -48 15zM100 534q-16 16 -17 44q1 28 17 42q16 16 46 16t47 -16t17 -42q0 -59 -66 -59q-28 -1 -44 15zM232 356q-26 0 -33 -20t-7 -84v-24q0 -71 7 -92t33 -21t32 21q7 21 7 86v29 q-1 65 -7 85t-32 20zM74 432q50 59 158 59t157 -58q49 -59 49 -191t-48 -192t-157 -60t-159 60t-50 192t50 190z"/>
<glyph unicode="÷" horiz-adv-x="482" glyph-name="divide" d="M154 499q0 39 21 59t67 20t67 -20t21 -61q0 -77 -88 -77t-88 79zM154 85q0 39 21 59t67 20t67 -20t21 -61q0 -77 -88 -77t-88 79zM430 231h-378v126h378v-126z"/>
<glyph unicode="ø" horiz-adv-x="445" glyph-name="oslash" d="M225 356q-26 0 -33 -20t-7 -84v-24q0 -71 7 -92q6 -21 32 -21t33 21t7 86v29q0 65 -6 85t-33 20zM226 491q22 0 32 -1l24 60h131l-42 -106q60 -58 60 -196t-48 -198t-157 -60q-12 0 -34 2l-24 -63h-133l43 108q-61 58 -61 197q1 139 51 198t158 59z"/>
<glyph unicode="ù" horiz-adv-x="467" glyph-name="ugrave" d="M189 520l-108 140h158l65 -140h-115zM149 -10q-119 0 -119 132v357h170v-316q0 -25 22 -25q28 0 47 14v327h168v-477h-159v35h-4q-55 -47 -125 -47z"/>
<glyph unicode="ú" horiz-adv-x="467" glyph-name="uacute" d="M403 660l-108 -140h-115l63 140h160zM149 -10q-119 0 -119 132v357h170v-316q0 -25 22 -25q28 0 47 14v327h168v-477h-159v35h-4q-55 -47 -125 -47z"/>
<glyph unicode="û" horiz-adv-x="467" glyph-name="ucircumflex" d="M311 655l66 -135h-106l-35 56l-35 -56h-107l66 135h151zM149 -10q-119 0 -119 132v357h170v-316q0 -25 22 -25q28 0 47 14v327h168v-477h-159v35h-4q-55 -47 -125 -47z"/>
<glyph unicode="ü" horiz-adv-x="467" glyph-name="udieresis" d="M270 534q-16 16 -16 44t17 42q17 16 47 16t46 -16t17 -42q-1 -28 -17 -44t-46 -15q-32 -1 -48 15zM102 534q-16 16 -17 44q1 28 17 42q16 16 46 16t47 -16t17 -42q0 -59 -66 -59q-28 -1 -44 15zM149 -10q-119 0 -119 132v357h170v-316q0 -25 22 -25q28 0 47 14v327h168 v-477h-159v35h-4q-55 -47 -125 -47z"/>
<glyph unicode="ý" horiz-adv-x="445" glyph-name="yacute" d="M395 660l-108 -140h-115l63 140h160zM445 479l-124 -493q-19 -74 -56 -104t-121 -29h-100l-15 129h56q34 0 34 27q0 6 -4 26l-115 444h178l45 -299h9l49 299h164z"/>
<glyph unicode="þ" horiz-adv-x="466" glyph-name="thorn" d="M273 185q1 17 1 65t-7 72q-7 26 -29 26t-42 -12v-207q18 -9 36 -9t26 6t10 24q4 18 5 35zM411 436q31 -54 31 -188q0 -132 -34 -196t-132 -63q-45 0 -78 19v-145h-168v778h167v-173h4q29 22 85 22q94 0 125 -54z"/>
<glyph unicode="ÿ" horiz-adv-x="445" glyph-name="ydieresis" d="M252 534q-16 16 -17 44q0 28 17 42q17 16 47 16q31 0 47 -16t16 -42q0 -28 -16 -44t-48 -15q-30 -1 -46 15zM82 534q-16 16 -16 44t16 42q16 16 47 16q30 0 47 -16t17 -42q0 -59 -66 -59q-29 -1 -45 15zM445 479l-124 -493q-19 -74 -56 -104t-121 -29h-100l-15 129h56 q34 0 34 27q0 6 -4 26l-115 444h178l45 -299h9l49 299h164z"/>
<glyph unicode="ħ" horiz-adv-x="467" glyph-name="hbar" d="M201 444q55 47 119 47q64 -1 90 -31t27 -91v-369h-170v312q0 25 -22 25q-28 0 -47 -14v-323h-168v506h-30v95h30v40h167v-40h73v-95h-73v-62h4z"/>
<glyph unicode="Ĩ" horiz-adv-x="278" glyph-name="Itilde" d="M276 797v-8q0 -59 -17 -91t-69 -32q-31 0 -76 15l-23 8v-34h-103v10q0 63 18 93t63 30q18 0 85 -18l19 -4v31h103zM224 0h-170v621h170v-621z"/>
<glyph unicode="ĩ" horiz-adv-x="232" glyph-name="itilde" d="M268 660v-8q0 -64 -18 -97t-72 -33q-36 0 -80 16l-24 8v-35h-109v10q0 65 19 97t67 33q16 0 89 -19l20 -5v33h108zM199 0h-165v474h165v-474z"/>
<glyph unicode="ı" horiz-adv-x="232" glyph-name="dotlessi" d="M199 0h-165v474h165v-474z"/>
<glyph unicode="Ĳ" horiz-adv-x="562" glyph-name="IJ" d="M518 621v-496q0 -77 -35 -106t-129 -29h-51l-13 136h34q18 0 22 4t4 20v471h168zM224 0h-170v621h170v-621z"/>
<glyph unicode="ĳ" horiz-adv-x="480" glyph-name="ij" d="M265 570q0 40 21 59t69 19t69 -19t21 -59t-21 -58t-69 -18t-69 18t-21 58zM26 570q0 40 21 59t69 19t69 -19t21 -59t-21 -58t-69 -18t-69 18t-21 58zM199 0h-165v474h165v-474zM439 474v-486q-1 -78 -35 -106t-128 -29h-50l-14 138h34q18 1 22 5t4 19v459h167z"/>
<glyph unicode="Ĵ" horiz-adv-x="288" glyph-name="Jcircumflex" d="M226 792l63 -128h-101l-33 53l-33 -53h-102l63 128h143zM244 621v-496q0 -77 -35 -106t-129 -29h-51l-13 136h34q18 0 22 4t4 20v471h168z"/>
<glyph unicode="ĵ" horiz-adv-x="248" glyph-name="jcircumflex" d="M200 655l66 -135h-106l-35 56l-35 -56h-107l66 135h151zM209 474v-486q-1 -78 -35 -106t-128 -29h-50l-14 138h34q18 1 22 5t4 19v459h167z"/>
<glyph unicode="ķ" horiz-adv-x="442" glyph-name="kcommaaccent" d="M129 -76q0 67 92 67t92 -69q0 -54 -77 -97l-80 6l36 41q-28 0 -46 14t-17 38zM443 0h-185l-61 184h-4v-184h-163v641h165v-353h4l73 191h175l-101 -239z"/>
<glyph unicode="ĸ" horiz-adv-x="446" glyph-name="kgreenlandic" d="M447 0h-185l-62 170h-4v-170h-166v480h168v-192h4q46 120 74 146q44 42 80 50t72 7l-7 -166q-17 0 -31 -11t-20 -24t-22 -46z"/>
<glyph unicode="Ŀ" horiz-adv-x="424" glyph-name="Ldotaccent" d="M340 216q-96 0 -96 90t96 89q96 1 96 -89t-96 -90zM360 0h-316v621h171v-482h155z"/>
<glyph unicode="ŀ" horiz-adv-x="420" glyph-name="ldot" d="M320 216q-96 0 -96 90t96 89q96 1 96 -89t-96 -90zM30 110v531h165v-478q-1 -17 7 -24t27 -7l-13 -142h-55q-67 0 -99 28t-32 92z"/>
<glyph unicode="Ł" horiz-adv-x="362" glyph-name="Lslash" d="M360 0h-316v179l-43 -27v148l43 27v294h171v-185l53 34v-148l-53 -34v-149h155z"/>
<glyph unicode="ł" horiz-adv-x="233" glyph-name="lslash" d="M34 110v69l-34 -21v148l34 21v314h165v-209l34 22v-148l-34 -22v-121q-1 -17 7 -24t27 -7l-13 -142h-55q-67 0 -99 28t-32 92z"/>
<glyph unicode="Ń" horiz-adv-x="541" glyph-name="Nacute" d="M418 797l-102 -133h-110l60 133h152zM497 0h-164l-129 289h-8v-289h-152v621h169l123 -298h8v298h153v-621z"/>
<glyph unicode="ń" horiz-adv-x="467" glyph-name="nacute" d="M385 660l-108 -140h-115l63 140h160zM197 444q55 47 121 47q66 -1 92 -31t27 -91v-369h-170v312q0 25 -22 25q-28 0 -47 -14v-323h-168v479h153l10 -35h4z"/>
<glyph unicode="Œ" horiz-adv-x="692" glyph-name="OE" d="M328 446q-14 32 -58 33q-44 -1 -58 -33q-13 -32 -13 -123v-24q1 -98 15 -131t58 -33q44 -1 58 31t13 124v32q-1 92 -15 124zM271 631q44 0 86 -10h310v-147h-169q10 -40 15 -93h132v-132h-133q-4 -58 -18 -103h173v-146h-316q-40 -10 -83 -10q-129 0 -186 79t-57 245 q-1 166 57 242q58 75 189 75z"/>
<glyph unicode="œ" horiz-adv-x="684" glyph-name="oe" d="M473 350q-26 0 -34 -18t-8 -53h87v24q0 47 -45 47zM225 356q-26 0 -33 -20t-7 -84v-24q0 -71 7 -92q6 -21 32 -21t33 21t7 86v29q0 65 -6 85t-33 20zM352 451q43 40 136 40q181 0 181 -191q0 -58 -6 -104h-229q0 -79 69 -79q33 0 129 23l18 -122q-92 -28 -172 -28 t-123 43q-39 -43 -139 -43t-149 60q-50 60 -50 192q1 132 51 190q50 59 158 59q86 0 126 -40z"/>
<glyph unicode="Ŕ" horiz-adv-x="494" glyph-name="Racute" d="M383 797l-102 -133h-110l60 133h152zM275 344q11 14 11 54t-11 56t-36 15h-27v-140h26q26 0 37 15zM469 424q0 -56 -17 -93t-53 -67l83 -264h-185l-62 224h-23v-224h-168v621h232q100 0 146 -47t47 -150z"/>
<glyph unicode="Ŗ" horiz-adv-x="494" glyph-name="Rcommaaccent" d="M165 -76q0 67 92 67t92 -69q0 -54 -77 -97l-80 6l36 41q-28 0 -46 14t-17 38zM275 344q11 14 11 54t-11 56t-36 15h-27v-140h26q26 0 37 15zM469 424q0 -56 -17 -93t-53 -67l83 -264h-185l-62 224h-23v-224h-168v621h232q100 0 146 -47t47 -150z"/>
<glyph unicode="ŗ" horiz-adv-x="313" glyph-name="rcommaaccent" d="M35 -76q0 67 92 67t92 -69q0 -54 -77 -97l-80 6l36 41q-28 0 -46 14t-17 38zM196 269v-269h-166v479h146l10 -29h4q22 26 46 34t77 7l-7 -160h-46q-40 0 -52 -12t-12 -50z"/>
<glyph unicode="Ř" horiz-adv-x="494" glyph-name="Rcaron" d="M172 652l-55 129h93l26 -48l27 48h93l-54 -129h-130zM275 344q11 14 11 54t-11 56t-36 15h-27v-140h26q26 0 37 15zM469 424q0 -56 -17 -93t-53 -67l83 -264h-185l-62 224h-23v-224h-168v621h232q100 0 146 -47t47 -150z"/>
<glyph unicode="ř" horiz-adv-x="313" glyph-name="rcaron" d="M99 518l-58 136h98l28 -51l28 51h98l-57 -136h-137zM196 269v-269h-166v479h146l10 -29h4q22 26 46 34t77 7l-7 -160h-46q-40 0 -52 -12t-12 -50z"/>
<glyph unicode="Š" horiz-adv-x="427" glyph-name="Scaron" d="M146 652l-55 129h93l26 -48l27 48h93l-54 -129h-130zM68 577q52 54 142 54t186 -18l-20 -160q-99 23 -136 23q-47 0 -47 -38q1 -15 23 -29q22 -13 54 -29t64 -38t54 -61q22 -40 23 -92q0 -95 -51 -147q-50 -52 -144 -52t-183 29l11 149q107 -31 149 -31t42 37 q-1 19 -23 35t-54 32t-64 37t-56 61q-22 40 -22 95q0 89 52 143z"/>
<glyph unicode="š" horiz-adv-x="371" glyph-name="scaron" d="M131 518l-58 136h98l28 -51l28 51h98l-57 -136h-137zM74 450q44 40 123 41q78 0 158 -20l-17 -139q-102 23 -137 23q-21 0 -21 -17q0 -11 23 -20q81 -29 121 -66t40 -111q0 -75 -38 -113t-116 -38t-157 20l11 135q100 -27 130 -27t29 14q0 14 -22 22q-89 34 -130 72 t-41 112q0 72 44 112z"/>
<glyph unicode="Ÿ" horiz-adv-x="464" glyph-name="Ydieresis" d="M271 678q-16 14 -16 40t16 41q17 15 45 15t44 -14t16 -41q0 -26 -16 -41t-44 -15t-45 15zM110 678q-16 14 -15 40q-1 26 15 41t44 15t44 -14t17 -41q0 -56 -63 -56q-26 0 -42 15zM464 621l-148 -429v-192h-170v192l-146 429h188l45 -202h8l43 202h180z"/>
<glyph unicode="Ž" horiz-adv-x="452" glyph-name="Zcaron" d="M172 652l-55 129h93l26 -48l27 48h93l-54 -129h-130zM442 0h-408l-4 92l183 374h-193l-10 155h422l5 -98l-174 -380h179v-143z"/>
<glyph unicode="ž" horiz-adv-x="393" glyph-name="zcaron" d="M134 518l-58 136h98l28 -51l28 51h98l-57 -136h-137zM381 0h-359l-4 96l148 243h-154v140h359l6 -89l-143 -252h147v-138z"/>
<glyph unicode="ƒ" horiz-adv-x="369" glyph-name="florin" d="M92 -147q-41 0 -86 10l7 143q36 -6 49 -6q10 0 12 15l25 309h-57l9 99h55l6 73q6 72 46 112t96 40t109 -9l-22 -155q-40 9 -49 9t-11 -13l-5 -57h60l-10 -99h-58l-26 -317q-6 -74 -44 -114t-106 -40z"/>
<glyph unicode="ˆ" d="M332 655l66 -135h-106l-35 56l-35 -56h-107l66 135h151z" glyph-name="circumflex"/>
<glyph unicode="ˇ" d="M182 518l-58 136h98l28 -51l28 51h98l-57 -136h-137z" glyph-name="caron"/>
<glyph unicode="˘" d="M269 616q27 0 27 47h109q-3 -157 -139 -157t-135 157h111q0 -47 27 -47z" glyph-name="breve"/>
<glyph unicode="˙" d="M169 570q0 40 21 59t69 19t69 -19t21 -59t-21 -58t-69 -18t-69 18t-21 58z" glyph-name="dotaccent"/>
<glyph unicode="˚" d="M257 622q-22 0 -22 -30t22 -29q22 -1 22 29t-22 30zM195 650q24 22 63 21t62 -21t23 -57t-23 -59t-62 -21q-39 0 -63 21q-24 22 -24 58t24 58z" glyph-name="ring"/>
<glyph unicode="˛" d="M176 -93q0 47 56 93h84q-43 -50 -43 -74q1 -9 13 -9t31 19l32 -56q-45 -43 -98 -43q-33 -1 -54 17t-21 53z" glyph-name="ogonek"/>
<glyph unicode="˜" d="M408 660v-8q0 -64 -18 -97t-72 -33q-36 0 -80 16l-24 8v-35h-109v10q0 65 19 97t67 33q16 0 89 -19l20 -5v33h108z" glyph-name="tilde"/>
<glyph unicode="˝" d="M451 659l-120 -151h-90l78 151h132zM291 659l-110 -151h-88l77 151h121z" glyph-name="hungarumlaut"/>
<glyph unicode="̇" d="M169 570q0 40 21 59t69 19t69 -19t21 -59t-21 -58t-69 -18t-69 18t-21 58z" glyph-name="dotaccentcmb"/>
<glyph unicode="Δ" horiz-adv-x="498" glyph-name="Delta" d="M197 150h102l-47 283h-9zM8 0l116 621h252l114 -621h-482z"/>
<glyph unicode="∆" horiz-adv-x="498" glyph-name="Delta" d="M197 150h102l-47 283h-9zM8 0l116 621h252l114 -621h-482z"/>
<glyph unicode="Ω" horiz-adv-x="550" glyph-name="Omega" d="M274 631q242 0 242 -271q0 -72 -20 -124t-59 -99v-4h81v-133h-227v123q55 78 55 194q0 103 -18 129q-17 27 -59 27q-42 -1 -55 -37t-13 -130t56 -182v-124h-225v133h74v4q-74 101 -74 230q0 264 242 264z"/>
<glyph unicode="Ω" horiz-adv-x="550" glyph-name="Omega" d="M274 631q242 0 242 -271q0 -72 -20 -124t-59 -99v-4h81v-133h-227v123q55 78 55 194q0 103 -18 129q-17 27 -59 27q-42 -1 -55 -37t-13 -130t56 -182v-124h-225v133h74v4q-74 101 -74 230q0 264 242 264z"/>
<glyph unicode="π" horiz-adv-x="508" glyph-name="pi" d="M457 0h-170v337h-69v-337h-168v337h-37v137h482v-137h-38v-337z"/>
<glyph unicode="–" horiz-adv-x="429" glyph-name="endash" d="M381 186h-333v134h333v-134z"/>
<glyph unicode="—" horiz-adv-x="639" glyph-name="emdash" d="M591 186h-543v134h543v-134z"/>
<glyph unicode="‘" horiz-adv-x="237" glyph-name="quoteleft" d="M103 388q-89 0 -89 90t126 170l59 -22l-62 -81l2 -5q53 -11 53 -73q0 -79 -89 -79z"/>
<glyph unicode="’" horiz-adv-x="237" glyph-name="quoteright" d="M134 641q89 -1 89 -91t-126 -169l-59 22l62 81l-2 5q-53 11 -53 73q0 79 89 79z"/>
<glyph unicode="‚" horiz-adv-x="237" glyph-name="quotesinglbase" d="M134 141q89 -1 89 -91t-126 -169l-59 22l62 81l-2 5q-53 11 -53 73q0 79 89 79z"/>
<glyph unicode="“" horiz-adv-x="437" glyph-name="quotedblleft" d="M103 388q-89 0 -89 90t126 170l59 -22l-62 -81l2 -5q53 -11 53 -73q0 -79 -89 -79zM303 388q-89 0 -89 90t126 170l59 -22l-62 -81l2 -5q53 -11 53 -73q0 -79 -89 -79z"/>
<glyph unicode="”" horiz-adv-x="437" glyph-name="quotedblright" d="M310 641q89 -1 89 -91t-126 -169l-59 22l62 81l-2 5q-53 11 -53 73q0 79 89 79zM110 641q89 -1 89 -91t-126 -169l-59 22l62 81l-2 5q-53 11 -53 73q0 79 89 79z"/>
<glyph unicode="„" horiz-adv-x="437" glyph-name="quotedblbase" d="M334 141q89 -1 89 -91t-126 -169l-59 22l62 81l-2 5q-53 11 -53 73q0 79 89 79zM134 141q89 -1 89 -91t-126 -169l-59 22l62 81l-2 5q-53 11 -53 73q0 79 89 79z"/>
<glyph unicode="†" horiz-adv-x="405" glyph-name="dagger" d="M30 333v133h96v142h148v-142h101v-133h-101v-482h-148v482h-96z"/>
<glyph unicode="‡" horiz-adv-x="418" glyph-name="daggerdbl" d="M30 7v134h96v192h-96v133h96v142h148v-142h101v-133h-101v-192h100v-134h-100v-156h-148v156h-96z"/>
<glyph unicode="•" horiz-adv-x="413" glyph-name="bullet" d="M209 171q-127 -1 -127 129t127 130q122 0 122 -130t-122 -129z"/>
<glyph unicode="…" horiz-adv-x="782" glyph-name="ellipsis" d="M540 68q0 40 21 60t67 19q46 1 67 -19t21 -62q0 -77 -88 -77t-88 79zM301 68q0 40 21 60t67 19q46 1 67 -19t21 -62q0 -77 -88 -77t-88 79zM66 68q0 40 21 60t67 19q46 1 67 -19t21 -62q0 -77 -88 -77t-88 79z"/>
<glyph unicode="‰" horiz-adv-x="1133" glyph-name="perthousand" d="M1101 215q0 -117 -31 -171q-32 -54 -120 -54t-120 54t-31 171q0 117 31 171t120 53q89 0 120 -53t31 -171zM989 211v11q0 60 -4 80q-5 20 -13 27t-22 7t-22 -7t-12 -25q-4 -23 -4 -82v-11q0 -67 4 -89t13 -28t23 -7q14 1 22 7t10 26q5 25 5 91zM779 215q0 -117 -31 -171 q-32 -54 -120 -54t-120 54t-31 171q0 117 31 171t120 53q89 0 120 -53t31 -171zM667 211v11q0 60 -4 80q-5 20 -13 27t-22 7t-22 -7t-12 -25q-4 -23 -4 -82v-11q0 -67 4 -89t13 -28t23 -7q14 1 22 7t10 26q5 25 5 91zM334 407q0 -117 -31 -171t-119 -54t-120 54t-32 171 t31 171t120 53q89 0 120 -53t31 -171zM222 403v11q0 60 -4 80t-12 27t-23 7q-14 0 -22 -7t-11 -25q-5 -23 -5 -82v-11q1 -67 5 -89t12 -28t22 -7q14 1 22 7t12 26q4 25 4 91zM554 631l-180 -641h-117l179 641h118z"/>
<glyph unicode="‹" horiz-adv-x="318" glyph-name="guilsinglleft" d="M24 207v62l176 208l75 -60l-105 -175l106 -175l-82 -63z"/>
<glyph unicode="›" horiz-adv-x="317" glyph-name="guilsinglright" d="M293 269v-62l-167 -203l-84 63l106 175l-105 175l77 60z"/>
<glyph unicode="⁄" horiz-adv-x="361" glyph-name="fraction" d="M371 621l-216 -768h-165l215 768h166z"/>
<glyph unicode="€" horiz-adv-x="499" glyph-name="Euro" d="M24 416h60q35 215 235 215q76 0 145 -32l-27 -155q-78 26 -109 26q-51 0 -67 -54h172l-10 -99h-173v-31h171l-6 -97h-152q17 -48 68 -48q34 0 107 19l26 -141q-79 -29 -159 -29q-184 0 -220 199h-61v97h54v31h-54v99z"/>
<glyph unicode="™" horiz-adv-x="571" glyph-name="trademark" d="M547 280h-80v178h-4l-30 -178h-80l-28 178h-5v-178h-79l12 341h112l28 -185h4l27 185h111zM229 538h-58v-258h-86v258h-61l5 83h205z"/>
<glyph unicode="∂" horiz-adv-x="468" glyph-name="partialdiff" d="M231 281q-25 0 -34 -21q-9 -22 -9 -62t9 -58t35 -18t33 22q8 22 8 64q0 73 -42 73zM181 400q38 0 74 -6l3 3q-54 83 -207 83v151q397 0 397 -366q0 -139 -53 -207t-169 -68q-206 0 -206 218q0 94 44 143t117 49z"/>
<glyph unicode="∏" horiz-adv-x="577" glyph-name="product" d="M568 479h-55v-479h-171v479h-97v-479h-172v479h-64v142h559v-142z"/>
<glyph unicode="∑" horiz-adv-x="481" glyph-name="summation" d="M459 466h-166l101 -130v-46l-117 -147h192v-143h-438l-6 113l154 194l-164 192l4 117h440v-150z"/>
<glyph unicode="−" horiz-adv-x="482" glyph-name="minus" d="M430 231h-378v126h378v-126z"/>
<glyph unicode="√" horiz-adv-x="598" glyph-name="radical" d="M288 111l156 721h363l-19 -135h-206l-212 -827h-186l-169 609h182l77 -368h14z"/>
<glyph unicode="∞" horiz-adv-x="667" glyph-name="infinity" d="M460 336q-16 0 -36 -19t-35 -51q32 -66 71 -66q37 0 37 68t-37 68zM278 268q-36 68 -72 68t-37 -68q0 -68 36 -68q40 0 73 68zM196 458q81 0 131 -77h4q50 77 137 77q71 0 113 -50t42 -140t-42 -140t-113 -49q-85 0 -133 80h-5q-56 -80 -130 -80t-115 49q-41 48 -41 138 t42 141t110 51z"/>
<glyph unicode="∫" horiz-adv-x="441" glyph-name="integral" d="M145 167l19 425q6 118 64 180t189 63h59l-8 -130q-78 -1 -104 -35t-30 -118l-21 -448q-6 -134 -64 -190t-203 -56h-54q2 29 7 74t7 69q34 1 56 4t38 13t23 20q8 8 13 32q6 35 9 97z"/>
<glyph unicode="≈" horiz-adv-x="492" glyph-name="approxequal" d="M444 454v-13q0 -71 -24 -109t-99 -38q-44 0 -128 28v-34h-153v14q0 72 26 110t92 37q33 0 133 -28v33h153zM452 263v-13q0 -71 -24 -109t-99 -38q-44 0 -128 28v-34h-153v14q0 72 26 109t92 37q35 0 133 -28v34h153z"/>
<glyph unicode="≠" horiz-adv-x="454" glyph-name="notequal" d="M400 91h-154l-38 -117h-151l38 117h-41v136h86l21 66h-107v136h152l40 120h150l-39 -120h43v-136h-88l-21 -66h109v-136z"/>
<glyph unicode="≤" horiz-adv-x="474" glyph-name="lessequal" d="M426 0h-378v127h378v-127zM426 157l-378 142v154l378 147v-160l-222 -63l222 -61v-159z"/>
<glyph unicode="≥" horiz-adv-x="474" glyph-name="greaterequal" d="M426 0h-378v127h378v-127zM426 299l-378 -142v159l222 61l-222 63v160l378 -147v-154z"/>
<glyph unicode="◊" horiz-adv-x="577" glyph-name="lozenge" d="M386 298l-93 189l-91 -189l91 -190zM541 298l-190 -355h-118l-187 355l189 355h116z"/>
<glyph unicode="ﬀ" horiz-adv-x="553" glyph-name="ff" d="M448 655q62 0 130 -6l-14 -146q-46 5 -66 5t-20 -18v-25h82l-8 -124h-72v-341h-167v341h-93v-341h-167v341h-44v124h44v57q0 133 135 133q36 0 102 -4l-12 -146q-33 3 -42 3q-18 0 -18 -18v-25h95v57q0 133 135 133z"/>
<glyph unicode="ﬁ" horiz-adv-x="511" glyph-name="fi" d="M305 570q0 40 21 59t69 19t69 -19t21 -59t-21 -58t-69 -18t-69 18t-21 58zM188 648q46 0 102 -4l-12 -146q-35 3 -42 3q-18 0 -18 -18v-18h260v-465h-165v341h-93v-341h-167v341h-44v124h44v50q0 133 135 133z"/>
<glyph unicode="ﬂ" horiz-adv-x="516" glyph-name="fl" d="M188 655q54 0 102 -4l-12 -146q-35 3 -42 3q-18 0 -18 -18v-25h95v176h165v-478q0 -17 8 -24t26 -7l-13 -142h-55q-66 0 -98 28t-33 92v231h-93v-341h-167v341h-44v124h44v57q0 133 135 133z"/>
<glyph unicode="ﬃ" horiz-adv-x="765" glyph-name="ffi" d="M559 576q0 40 21 59t69 19t69 -19t21 -59t-21 -58t-69 -18t-69 18t-21 58zM448 655q46 0 102 -4l-12 -146q-35 3 -42 3q-18 0 -18 -18v-25h260v-465h-165v341h-93v-341h-167v341h-93v-341h-167v341h-44v124h44v57q0 133 135 133q36 0 102 -4l-12 -146q-33 3 -42 3 q-18 0 -18 -18v-25h95v57q0 133 135 133z"/>
<glyph unicode="ﬄ" horiz-adv-x="776" glyph-name="ffl" d="M448 655q54 0 102 -4l-12 -146q-35 3 -42 3q-18 0 -18 -18v-25h95v176h165v-478q0 -17 8 -24t26 -7l-13 -142h-55q-66 0 -98 28t-33 92v231h-93v-341h-167v341h-93v-341h-167v341h-44v124h44v57q0 133 135 133q36 0 102 -4l-12 -146q-33 3 -42 3q-18 0 -18 -18v-25h95v57 q0 133 135 133z"/>
<glyph horiz-adv-x="517" glyph-name="fj" d="M305 586q0 40 21 59t69 19t69 -19t21 -59t-21 -58t-69 -18t-69 18t-21 58zM478 465v-477q0 -78 -34 -106t-129 -29h-50l-14 138h34q17 1 21 5t5 19v326h-91v-341h-167v341h-44v124h44v57q0 133 135 133q36 0 102 -4l-12 -146q-35 3 -42 3q-18 0 -18 -18v-25h260z"/>
<glyph d="M161 -76q0 67 92 67t92 -69q0 -54 -77 -97l-80 6l36 41q-28 0 -46 14t-17 38z" glyph-name="commaaccent"/>
<glyph horiz-adv-x="1241" glyph-name="foundryicon" d="M668 73q27 5 66 31q40 26 78 66t66 96t27 118q0 60 -30 98t-85 39q-83 0 -114 -84h-16q-31 84 -114 84q-54 0 -84 -39t-30 -106q0 -24 5 -51h198v-52h-180q33 -77 99 -135t114 -65zM186 157l-146 143l146 141l40 -32l-88 -84h248q-6 30 -6 62q0 82 42 132t113 50 q49 -1 79 -17t54 -51q46 68 136 68q71 0 112 -50t41 -132q0 -27 -7 -62h201v116h50v-284h-50v116h-216q-40 -102 -131 -176q-90 -74 -138 -74q-48 -1 -137 73t-128 177h-262l87 -85z"/>
<glyph horiz-adv-x="0" glyph-name="CR"/>
</font>
</defs>
</svg>
